{"glyphs":{"0":{"ha":442,"x_min":46,"x_max":397,"o":"m 300 531 q 397 386 397 531 q 322 107 397 242 q 139 -28 246 -28 q 46 90 46 -28 q 108 356 46 200 q 190 480 139 429 q 300 531 240 531 m 332 261 q 353 398 353 324 q 303 472 353 472 q 174 342 236 472 q 111 114 111 211 q 156 17 111 17 q 259 90 213 17 q 332 261 306 163 z "},"1":{"ha":382,"x_min":56,"x_max":350,"o":"m 208 357 l 204 375 q 208 393 204 381 q 107 329 142 346 q 68 313 72 313 q 56 328 56 313 q 64 340 56 338 q 249 490 136 378 q 257 502 251 494 q 264 513 263 510 q 332 539 274 539 q 350 526 350 539 q 347 514 350 521 q 203 178 246 324 q 189 140 199 163 q 176 107 179 118 q 175 38 192 103 q 171 17 172 26 q 153 -7 169 7 q 121 -21 138 -21 q 94 4 94 -21 q 128 116 94 21 q 173 241 163 211 q 192 297 183 271 q 208 357 208 342 z "},"2":{"ha":569,"x_min":19,"x_max":544,"o":"m 483 -49 q 478 -40 478 -49 l 478 -37 q 496 8 496 -14 q 425 50 496 50 q 217 28 354 50 q 33 -12 81 6 q 19 10 19 -17 q 22 25 19 18 q 121 85 26 50 q 358 244 247 144 q 469 432 469 343 q 451 468 469 454 q 388 482 433 482 q 260 452 342 482 q 151 403 179 422 q 117 385 122 385 q 110 397 107 385 q 133 440 110 428 q 164 461 140 443 q 235 510 228 510 q 242 501 243 510 q 224 476 240 493 q 451 529 357 529 q 544 454 544 529 q 544 446 544 450 q 466 299 542 381 q 331 176 390 218 q 144 56 224 103 q 269 82 188 69 q 413 94 350 94 q 531 46 531 94 q 513 -15 531 18 q 483 -49 494 -49 z "},"3":{"ha":681,"x_min":-4,"x_max":661,"o":"m 450 254 q 639 100 639 253 q 502 -144 639 -39 q 181 -250 365 -250 q -4 -106 -4 -250 q 64 22 -4 -26 q 219 71 132 71 q 235 58 235 71 q 219 50 235 50 q 108 8 160 50 q 56 -97 56 -35 q 94 -189 56 -158 q 201 -219 133 -219 q 453 -132 344 -219 q 563 81 563 -44 q 397 221 563 221 q 317 210 367 221 q 256 199 267 199 q 233 219 233 199 q 243 243 233 232 q 268 254 253 254 q 468 292 367 254 q 553 345 519 310 q 586 426 586 381 q 567 465 586 450 q 501 479 547 479 q 376 449 456 479 q 244 385 296 419 q 235 382 242 382 q 228 394 228 382 q 250 438 228 426 q 281 458 257 440 q 348 507 342 507 q 354 500 354 507 q 339 474 354 493 q 557 526 469 526 q 661 443 661 526 q 591 326 661 383 q 450 254 521 268 z "},"4":{"ha":614,"x_min":4,"x_max":649,"o":"m 501 50 l 454 49 q 400 -117 401 -108 q 399 -186 415 -121 q 394 -207 396 -197 q 377 -231 393 -217 q 344 -244 361 -244 q 318 -219 318 -244 q 324 -190 318 -207 l 406 46 q 89 10 243 33 q 18 -12 58 4 q 4 14 4 -17 q 15 40 4 31 q 276 249 61 64 q 547 490 492 435 q 556 502 550 494 q 563 513 561 510 q 631 539 572 539 q 649 526 649 539 q 646 514 649 521 q 469 94 568 369 l 492 94 q 610 46 610 94 q 592 -15 610 18 q 563 -49 574 -49 q 557 -40 557 -49 l 557 -37 q 575 8 575 -14 q 501 50 575 50 m 94 63 q 170 72 103 63 q 422 92 238 82 l 518 364 q 524 389 524 381 q 519 397 524 397 q 504 390 514 397 q 331 250 494 383 q 94 63 167 117 z "},"5":{"ha":681,"x_min":50,"x_max":757,"o":"m 710 385 q 704 393 704 385 l 704 396 q 722 442 722 419 q 638 478 722 478 q 403 454 507 478 q 306 243 356 369 q 386 261 336 261 q 572 227 504 261 q 639 100 639 193 q 523 -129 639 -37 q 239 -221 407 -221 q 67 -147 107 -221 q 50 -81 50 -118 q 86 0 50 -43 q 256 75 146 75 q 269 63 269 75 q 256 56 269 56 q 169 31 207 56 q 110 -85 110 -11 q 150 -164 110 -136 q 253 -192 190 -192 q 474 -118 386 -192 q 563 81 563 -44 q 523 187 563 144 q 403 229 483 229 q 256 199 322 229 q 240 202 246 194 q 233 220 233 210 q 251 238 233 231 q 292 340 265 267 q 325 428 318 413 q 319 441 319 431 q 325 471 319 451 q 421 510 328 492 q 635 528 514 528 q 757 479 757 528 q 739 418 757 451 q 710 385 721 385 z "},"6":{"ha":782,"x_min":74,"x_max":732,"o":"m 379 594 q 422 631 379 594 q 538 720 465 668 q 658 803 610 772 q 719 835 706 835 q 732 817 732 835 q 725 788 732 800 q 676 740 719 771 q 599 694 632 710 q 289 444 424 590 q 180 292 222 374 q 138 151 138 210 q 164 67 138 92 q 231 42 190 42 q 443 106 342 42 q 613 274 544 171 q 649 383 649 328 q 604 443 649 439 q 586 444 594 444 q 449 390 521 444 q 328 249 378 335 q 272 86 279 163 q 264 67 271 72 q 250 67 257 63 q 243 93 243 72 q 293 260 243 168 q 430 419 343 353 q 606 485 517 485 q 683 457 658 485 q 707 386 707 429 q 616 188 707 279 q 416 51 525 97 q 208 6 307 6 q 110 35 147 6 q 74 126 74 65 q 120 291 74 204 q 230 449 167 378 q 379 594 293 519 z "},"7":{"ha":583,"x_min":24,"x_max":618,"o":"m 71 -218 l 72 -239 q 58 -250 72 -250 q 38 -208 38 -250 q 76 -55 38 -140 q 164 99 115 31 q 504 467 303 285 q 270 476 417 476 q 81 347 124 476 q 56 324 72 324 q 24 351 24 324 q 67 493 24 399 q 96 529 83 528 q 101 515 104 529 q 96 492 99 501 q 91 475 93 482 q 85 458 89 468 q 79 440 81 447 q 240 519 128 519 q 525 496 393 519 q 574 526 564 526 q 600 513 583 526 q 617 490 617 499 q 615 479 618 481 q 207 81 393 297 q 115 -65 160 25 q 71 -218 71 -156 z "},"8":{"ha":569,"x_min":44,"x_max":704,"o":"m 685 747 q 704 714 704 747 q 678 621 704 669 q 628 546 651 572 q 561 489 606 519 q 456 421 508 450 q 401 390 404 392 q 394 385 399 388 q 385 381 389 383 q 476 314 446 340 q 542 200 542 258 q 497 106 542 154 q 276 -15 414 17 q 199 -26 226 -26 q 164 -26 172 -26 q 78 8 111 -24 q 44 99 44 40 q 236 326 44 196 q 300 364 268 347 q 194 524 194 442 q 197 557 194 539 q 294 689 214 638 q 471 740 374 740 q 599 647 599 740 q 585 589 599 604 q 563 575 572 574 q 561 597 551 576 q 565 624 565 611 q 533 681 565 657 q 456 704 501 704 q 443 704 450 704 q 322 673 376 701 q 256 585 267 644 q 251 542 251 568 q 360 399 251 478 q 631 611 581 522 q 654 697 654 656 q 685 747 654 747 m 468 185 q 440 255 468 226 q 397 294 411 283 q 325 346 344 335 q 206 260 247 299 q 138 178 165 221 q 108 118 110 136 q 106 92 106 100 q 179 18 106 32 q 367 51 265 1 q 468 185 468 101 z "},"9":{"ha":711,"x_min":61,"x_max":688,"o":"m 61 -40 q 73 -10 61 -28 q 144 39 85 7 q 163 42 151 43 q 179 44 174 42 q 486 288 357 156 q 599 448 557 361 q 642 606 642 535 q 608 701 642 678 q 520 724 575 724 q 404 701 465 724 q 285 641 343 679 q 188 542 228 603 q 149 422 149 482 q 192 354 149 363 q 231 350 211 350 q 422 433 322 350 q 556 651 542 536 q 564 670 557 665 q 577 669 571 675 q 583 651 583 664 q 524 490 583 574 q 378 358 465 406 q 214 311 290 311 q 182 313 199 311 q 92 422 92 321 q 228 659 92 560 q 518 758 365 758 q 650 724 613 758 q 688 613 688 690 q 647 450 688 536 q 551 299 606 364 q 409 160 497 233 q 261 44 321 86 q 82 -64 103 -64 q 61 -40 61 -64 z "},"\u0000":{"ha":0,"x_min":0,"x_max":0,"o":""},"\r":{"ha":278,"x_min":0,"x_max":0,"o":""}," ":{"ha":278,"x_min":0,"x_max":0,"o":""},"!":{"ha":281,"x_min":106,"x_max":549,"o":"m 546 903 q 393 616 515 865 q 271 308 271 367 q 276 294 271 301 q 281 278 281 286 q 263 259 281 269 q 228 249 244 249 q 211 282 211 249 q 244 403 211 315 q 330 606 278 492 q 387 734 382 721 q 411 785 392 747 q 461 893 461 881 q 456 894 461 894 q 436 910 439 897 q 459 926 438 919 q 515 932 481 932 q 549 913 549 932 q 546 903 549 908 m 200 100 q 194 72 197 89 l 189 47 q 174 -6 179 0 l 161 -14 q 136 -24 151 -21 q 106 33 106 -24 q 136 83 106 60 q 181 106 167 106 q 199 103 196 106 l 200 100 z "},"\"":{"ha":564,"x_min":124,"x_max":539,"o":"m 349 876 q 358 833 358 846 q 352 810 358 821 q 344 796 346 800 l 346 794 q 238 621 313 692 q 131 550 164 550 q 124 557 124 550 l 125 557 q 218 667 171 603 q 265 763 265 731 q 256 783 265 774 q 246 815 246 793 q 268 856 246 838 l 269 857 l 269 856 q 324 888 304 888 q 349 876 343 888 m 529 888 q 539 844 539 857 q 533 822 539 832 q 526 807 528 813 l 526 806 q 419 632 493 703 q 311 561 344 561 q 306 567 306 561 l 306 568 q 399 678 351 614 q 446 774 446 742 q 440 790 446 785 l 440 792 q 428 827 428 804 q 449 867 428 850 l 451 868 q 505 899 486 899 q 529 888 524 899 z "},"#":{"ha":933,"x_min":-10,"x_max":918,"o":"m 886 564 q 918 554 918 564 q 863 526 918 542 q 775 511 807 511 l 663 511 q 586 306 589 314 l 756 306 q 815 292 815 306 q 761 266 815 279 q 672 253 707 253 l 565 251 q 548 203 558 231 q 531 158 538 175 q 517 120 525 140 q 503 88 510 100 q 492 65 497 76 q 464 44 479 44 q 449 70 449 44 q 458 126 449 96 q 485 199 467 157 q 507 251 503 240 l 275 250 l 250 183 q 196 57 208 69 q 174 44 183 44 q 158 69 158 44 q 169 124 158 93 q 199 195 181 156 q 224 250 218 235 l 100 250 q -10 278 -10 250 q 5 294 -10 288 q 33 303 19 301 l 49 304 l 244 304 q 319 510 264 354 l 203 508 q 186 508 194 508 q 93 538 93 508 q 108 553 93 547 q 136 561 122 560 l 151 563 q 338 561 275 563 q 369 651 357 614 q 392 713 382 688 q 422 765 413 765 q 432 739 432 765 q 414 618 432 667 l 392 560 l 618 558 q 714 764 693 760 q 725 739 725 764 q 704 618 725 672 l 682 560 l 886 564 m 372 510 q 296 304 299 313 l 526 304 q 599 511 565 418 l 372 510 z "},"$":{"ha":794,"x_min":57,"x_max":619,"o":"m 463 725 q 517 857 503 829 q 545 885 531 885 q 560 868 560 885 q 535 797 560 851 q 506 728 511 742 l 518 728 q 619 635 619 728 q 608 588 619 608 q 585 568 596 568 q 574 575 574 568 l 579 617 q 489 688 579 685 q 372 379 417 501 q 510 311 479 339 q 542 244 540 283 q 452 89 542 165 q 242 -6 363 13 q 203 -177 203 -140 q 226 -226 203 -214 q 193 -260 226 -251 q 167 -196 167 -260 q 201 -10 167 -132 q 163 -11 189 -11 q 57 54 57 -10 l 57 71 q 67 97 57 81 q 96 113 76 113 q 100 106 99 113 q 107 68 101 81 q 211 22 129 22 q 324 346 249 149 q 218 394 253 372 q 171 442 183 417 q 158 499 158 467 q 249 647 158 582 q 463 725 340 711 m 389 72 q 479 215 479 132 q 447 285 479 258 q 356 333 415 311 q 250 24 288 146 q 389 72 322 31 m 213 521 q 247 444 213 474 q 340 392 281 415 q 347 410 340 393 l 449 686 q 290 633 367 679 q 213 521 213 588 z "},"%":{"ha":828,"x_min":113,"x_max":796,"o":"m 431 704 q 432 697 432 699 q 344 545 432 649 q 193 442 256 442 l 175 442 q 128 470 144 442 q 113 524 113 499 q 216 722 113 594 q 381 850 319 850 q 443 785 443 850 q 438 744 443 772 q 468 742 440 742 q 572 765 496 742 q 707 812 649 789 q 773 835 765 835 q 788 827 781 835 q 796 810 796 819 q 785 790 796 801 q 386 281 603 579 q 169 -85 169 -18 q 177 -108 169 -99 q 185 -118 185 -117 q 174 -131 185 -125 q 157 -136 163 -136 q 136 -95 136 -136 q 165 21 136 -54 q 395 374 193 96 q 715 785 597 651 q 569 731 657 757 q 431 704 482 706 m 667 167 q 668 160 668 161 q 580 7 668 111 q 429 -97 492 -97 l 411 -97 q 365 -69 381 -97 q 349 -15 349 -40 q 452 183 349 56 q 617 311 556 311 q 679 247 679 311 q 674 206 679 233 q 684 201 675 203 q 693 192 693 200 q 667 167 693 176 m 403 701 q 356 756 382 714 q 242 661 315 756 q 168 522 168 567 q 196 476 168 476 q 324 568 246 476 q 403 701 403 660 m 639 163 q 592 217 621 172 q 478 122 551 217 q 404 -17 404 28 q 432 -61 404 -61 q 560 31 482 -61 q 639 163 639 122 z "},"&":{"ha":1197,"x_min":58,"x_max":1135,"o":"m 547 306 l 556 258 q 545 249 556 249 q 522 263 535 249 q 508 299 508 278 q 572 398 508 365 q 706 431 635 431 q 894 398 778 431 q 1071 365 1011 365 q 1103 371 1086 365 q 1125 376 1121 376 q 1135 369 1135 376 q 1108 340 1135 350 q 1040 329 1081 329 q 958 335 999 329 q 895 347 918 340 q 841 364 872 354 q 800 376 810 374 q 850 331 829 363 q 871 263 871 300 q 785 113 871 185 q 574 -1 699 40 q 323 -43 449 -43 q 128 6 197 -43 q 58 133 58 56 q 132 290 58 211 q 338 413 206 368 q 158 538 158 428 q 218 688 158 619 q 369 796 278 756 q 754 879 560 879 q 930 847 863 879 q 997 752 997 814 q 941 638 997 690 q 817 563 885 586 q 699 539 750 539 q 686 547 686 539 q 704 560 686 560 q 839 617 768 560 q 910 735 910 675 q 731 851 910 851 q 411 775 578 851 q 278 675 331 738 q 225 538 225 613 q 273 474 225 494 q 369 454 321 454 q 463 464 418 454 q 517 474 508 474 q 542 458 542 474 q 519 431 542 443 q 451 414 496 418 q 227 299 307 375 q 147 150 147 222 q 206 35 147 78 q 375 -8 265 -8 q 690 80 574 -8 q 807 269 807 168 q 774 351 807 319 q 681 383 740 383 q 585 364 622 383 q 547 306 547 344 z "},"'":{"ha":290,"x_min":190,"x_max":425,"o":"m 336 764 q 389 794 371 794 q 425 739 425 794 q 411 701 425 715 q 303 528 378 599 q 196 457 229 457 q 190 463 190 457 l 190 465 q 283 575 236 511 q 331 671 331 639 q 321 690 331 681 q 311 722 311 700 q 333 763 311 744 l 336 764 z "},"(":{"ha":372,"x_min":-25,"x_max":622,"o":"m 604 942 q 622 924 622 938 q 601 894 622 911 q 565 876 581 876 q 389 836 474 875 q 242 736 304 797 q 67 462 115 608 q 18 169 18 315 q 122 -56 18 -31 q 156 -75 156 -57 q 133 -90 156 -90 q 17 -5 58 -90 q -25 210 -25 81 q 17 479 -25 339 q 217 786 65 643 q 390 899 289 856 q 603 942 492 942 l 604 942 z "},")":{"ha":551,"x_min":-43,"x_max":563,"o":"m 508 442 q 264 71 415 219 q -32 -78 113 -78 l -33 -78 q -43 -59 -43 -74 q -22 -20 -43 -44 q 18 4 -1 4 q 247 140 128 4 q 457 463 367 276 l 458 463 q 522 710 522 596 q 329 897 522 897 l 318 897 q 299 907 311 897 q 288 926 288 917 q 331 936 288 936 q 508 869 454 936 q 563 689 563 803 q 508 442 563 575 z "},"*":{"ha":282,"x_min":29,"x_max":253,"o":"m 232 911 q 247 905 240 911 q 253 892 253 899 q 169 832 253 864 q 251 776 251 807 q 227 756 251 756 q 160 801 203 756 q 171 740 171 753 q 144 706 171 706 q 115 744 115 706 q 125 801 115 765 q 55 757 81 757 q 29 779 29 757 q 113 831 29 811 q 29 889 29 863 q 57 908 29 908 q 125 858 85 908 q 117 922 117 889 q 143 957 117 956 q 168 917 168 953 q 158 860 168 899 q 232 911 210 911 z "},"+":{"ha":526,"x_min":79,"x_max":506,"o":"m 311 250 l 433 253 q 494 249 482 253 q 506 238 506 242 q 472 224 506 228 q 382 218 438 221 q 299 211 326 215 q 224 17 278 131 q 199 -18 206 -18 q 193 7 193 -18 q 199 40 193 32 q 247 214 251 203 q 118 211 247 211 l 88 213 q 79 217 79 213 l 81 222 q 92 243 81 233 q 121 254 104 253 l 258 251 q 296 367 275 317 q 328 429 317 417 q 351 442 340 442 q 364 433 361 442 q 311 250 364 386 z "},",":{"ha":281,"x_min":1,"x_max":235,"o":"m 225 92 q 235 49 235 61 q 228 26 235 36 q 221 11 222 15 q 114 -164 188 -93 q 7 -235 40 -235 q 1 -231 1 -235 l 1 -228 q 94 -117 47 -179 q 142 -22 142 -54 q 136 -6 142 -11 l 135 -6 q 122 31 122 8 q 144 71 122 53 l 147 72 q 201 103 182 103 q 225 92 219 103 z "},"-":{"ha":401,"x_min":32,"x_max":360,"o":"m 103 218 q 224 213 175 213 q 335 217 272 213 q 360 208 360 217 q 265 181 360 194 q 93 168 171 168 l 65 169 l 53 168 q 32 186 32 168 q 100 240 32 225 q 110 233 110 240 q 103 218 110 225 z "},".":{"ha":343,"x_min":157,"x_max":246,"o":"m 246 104 q 239 69 244 97 q 228 22 233 40 q 181 -18 217 -18 q 157 36 157 -18 q 190 83 157 60 q 233 107 222 107 q 246 104 243 107 z "},"/":{"ha":839,"x_min":28,"x_max":813,"o":"m 806 958 q 813 939 813 947 q 800 917 813 931 q 332 322 590 676 q 74 -111 74 -33 q 83 -139 74 -126 l 93 -151 q 81 -165 93 -158 q 61 -172 68 -172 q 28 -128 28 -172 q 141 144 28 -44 q 393 512 254 332 q 650 831 532 692 q 779 969 768 969 q 806 958 796 969 z "},":":{"ha":281,"x_min":125,"x_max":278,"o":"m 278 496 q 242 383 264 401 q 210 372 231 372 q 183 428 183 372 q 215 478 183 454 q 260 501 246 501 q 276 499 274 501 l 278 496 m 219 211 q 183 97 206 117 q 151 88 172 88 q 125 143 125 88 q 156 192 125 169 q 201 215 186 215 q 219 211 215 215 z "},";":{"ha":281,"x_min":39,"x_max":294,"o":"m 294 354 q 289 322 294 354 q 283 297 285 306 q 279 278 282 289 q 274 262 276 267 q 267 251 271 257 q 258 242 264 244 q 231 231 249 236 q 203 268 203 231 q 231 333 203 306 q 285 360 258 360 q 294 356 292 360 l 294 354 m 225 92 q 235 49 235 61 q 228 26 235 36 q 221 11 222 15 q 137 -144 190 -87 q 50 -200 83 -200 q 39 -190 39 -200 l 39 -189 q 78 -136 49 -175 q 142 -25 142 -56 q 132 0 142 -17 q 122 35 122 17 q 144 71 122 53 l 147 72 q 201 103 182 103 q 225 92 219 103 z "},"<":{"ha":442,"x_min":118,"x_max":318,"o":"m 122 347 q 118 360 118 351 q 151 418 118 368 q 231 529 185 468 q 283 602 276 590 q 304 614 290 614 q 318 606 318 614 q 263 513 318 597 q 181 393 207 429 q 202 367 183 389 q 238 323 221 344 q 272 276 254 301 q 315 204 315 219 q 301 189 315 189 l 290 194 q 122 347 239 264 z "},"=":{"ha":554,"x_min":149,"x_max":482,"o":"m 219 215 q 340 210 292 210 q 451 214 389 210 q 476 206 476 214 q 382 178 476 192 q 210 165 288 165 l 182 167 l 169 165 q 149 183 149 165 q 217 238 149 222 q 226 230 226 238 q 219 215 226 222 m 225 329 q 346 324 297 324 q 457 328 394 324 q 482 319 482 328 q 388 292 482 306 q 215 279 293 279 l 188 281 l 175 279 q 154 297 154 279 q 222 351 154 336 q 232 344 232 351 q 225 329 232 336 z "},">":{"ha":442,"x_min":118,"x_max":318,"o":"m 314 446 q 318 435 318 444 q 284 375 318 425 q 204 264 250 325 q 151 191 158 203 q 131 179 143 179 q 118 188 118 179 q 174 280 118 196 q 256 400 229 364 q 119 583 119 561 q 135 604 119 604 l 146 599 q 314 446 193 535 z "},"?":{"ha":644,"x_min":149,"x_max":783,"o":"m 210 739 q 376 863 264 813 q 583 913 489 913 q 783 765 783 913 q 720 631 783 703 q 594 516 657 560 q 458 424 532 472 q 381 375 383 376 q 356 360 375 371 q 320 324 338 349 q 288 260 303 300 q 269 217 272 221 l 268 217 q 252 207 261 207 q 235 219 243 207 q 228 262 228 232 q 261 335 228 292 q 356 406 281 358 q 503 500 431 454 q 634 615 575 546 q 693 754 693 685 q 656 830 693 801 q 543 858 619 858 q 342 806 431 858 q 254 671 254 753 q 265 616 254 632 q 288 598 276 600 q 299 592 299 596 q 267 569 299 569 q 210 598 236 569 q 183 665 183 626 q 210 739 183 703 m 149 15 q 182 63 149 39 q 226 86 215 86 q 236 83 236 86 q 208 -23 219 -7 q 171 -39 197 -39 q 149 14 149 -39 l 149 15 z "},"@":{"ha":1117,"x_min":13,"x_max":1029,"o":"m 347 865 l 218 860 q 183 871 183 860 q 422 904 183 904 l 458 904 q 699 943 592 943 q 867 925 806 943 q 972 858 929 907 q 1014 746 1014 810 q 989 617 1014 682 q 1029 468 1029 544 q 935 237 1029 347 q 699 62 842 126 q 415 -3 557 -3 q 125 108 238 -3 q 13 381 13 219 q 109 666 13 543 q 347 865 206 789 m 957 549 q 781 297 914 436 q 572 157 649 157 q 519 211 529 157 q 565 426 519 269 q 299 169 379 169 q 265 226 265 169 q 303 392 265 283 q 397 590 342 501 q 494 678 453 678 l 499 678 l 514 689 q 551 703 526 703 q 611 692 575 703 q 653 681 647 681 q 667 692 658 681 q 689 703 676 703 q 724 674 724 703 q 693 585 724 654 q 681 575 692 581 q 668 567 669 569 q 612 376 635 474 q 589 253 589 278 q 614 210 589 210 q 779 361 663 210 q 931 607 896 513 q 735 788 865 728 q 449 856 606 849 q 180 660 292 804 q 68 370 68 515 q 149 131 68 225 q 366 36 229 36 q 639 94 503 36 q 872 255 775 151 q 969 471 969 358 q 957 549 969 508 m 626 654 q 597 658 617 654 q 560 660 576 661 q 522 654 544 660 q 408 490 488 646 q 329 258 329 335 q 343 235 329 235 q 447 319 372 235 q 550 450 521 404 q 608 560 579 496 q 638 640 638 625 q 631 654 638 654 l 626 654 m 950 671 q 958 739 958 706 q 739 911 958 911 q 550 886 650 911 q 790 817 682 872 q 950 671 897 763 z "},"A":{"ha":860,"x_min":56,"x_max":801,"o":"m 199 375 l 129 374 q 115 383 115 374 q 127 405 115 393 q 153 417 139 417 l 222 417 q 564 867 363 644 q 556 891 556 878 q 571 918 556 904 q 617 932 586 932 q 649 903 649 932 q 644 883 649 893 q 704 674 669 819 q 754 418 739 529 q 800 403 800 417 l 758 381 q 768 306 758 374 q 801 32 801 93 q 781 6 801 18 q 744 -6 761 -6 q 726 6 726 -6 l 726 22 q 715 206 726 75 q 699 379 704 338 q 254 375 274 375 q 110 6 131 149 q 83 -10 108 -10 q 57 -6 58 -10 q 56 0 56 -3 l 58 22 q 199 375 86 178 m 694 417 q 648 654 681 528 q 596 840 615 781 q 419 630 511 750 q 274 414 326 510 l 694 417 z "},"B":{"ha":876,"x_min":114,"x_max":826,"o":"m 666 428 q 696 423 666 428 q 776 377 726 417 q 826 270 826 338 q 779 146 826 203 q 657 56 732 89 q 328 -15 503 -15 q 214 -6 261 -15 q 187 -22 207 -22 q 142 -2 167 -22 q 118 31 118 18 q 133 44 118 44 q 151 40 135 44 q 140 218 140 92 q 164 544 140 344 q 218 868 188 743 l 144 868 q 114 878 114 869 q 132 895 114 888 q 172 903 150 903 l 226 903 q 311 961 236 961 q 332 949 332 961 q 318 918 332 936 q 304 899 304 900 q 690 675 690 863 q 619 536 690 600 q 464 438 547 472 q 554 440 503 440 q 666 428 606 440 m 763 260 q 731 336 761 304 q 650 383 700 368 q 464 411 557 411 q 204 386 371 411 q 200 233 200 350 q 208 31 200 117 q 349 19 261 19 q 529 41 436 19 q 692 119 622 63 q 763 260 763 175 m 211 431 l 239 429 q 450 469 315 429 q 576 542 524 492 q 629 664 629 593 q 626 694 629 672 q 574 769 614 736 q 481 819 533 801 q 294 865 385 854 l 293 865 q 243 651 275 811 q 207 431 211 490 l 211 431 z "},"C":{"ha":950,"x_min":82,"x_max":904,"o":"m 888 225 q 897 232 894 232 q 904 211 904 232 q 829 84 904 140 q 660 3 754 28 q 483 -22 565 -22 q 185 86 289 -22 q 82 381 82 194 q 224 759 82 604 q 610 914 365 914 q 854 744 854 914 q 838 681 854 703 q 799 658 822 658 q 769 685 769 658 q 783 729 769 701 q 797 768 797 757 q 740 848 797 817 q 614 879 682 879 q 278 728 407 879 q 150 376 150 578 q 233 116 150 222 q 471 10 315 10 q 888 225 736 10 z "},"D":{"ha":1076,"x_min":128,"x_max":1007,"o":"m 210 849 l 138 840 q 128 855 128 840 q 142 885 128 869 q 178 900 156 900 l 232 900 q 304 961 243 961 q 324 946 324 961 q 307 904 314 924 l 343 904 q 789 807 589 904 q 947 673 888 758 q 1007 478 1007 588 q 971 328 1007 400 q 874 205 935 257 q 738 110 814 153 q 581 42 663 68 q 283 -12 413 -12 q 171 4 213 -12 q 129 46 129 21 q 139 57 129 57 q 147 56 143 57 q 138 220 138 104 q 163 531 138 336 q 221 849 189 725 l 210 849 m 200 146 q 227 52 203 79 q 325 25 251 25 q 616 101 453 25 q 853 274 779 178 q 956 524 956 406 q 919 654 956 597 q 821 745 883 711 q 693 802 758 779 q 551 835 628 825 q 342 851 421 851 l 293 851 q 199 218 199 532 q 200 146 199 169 z "},"E":{"ha":801,"x_min":76,"x_max":742,"o":"m 483 900 l 721 901 q 742 881 742 901 q 727 842 742 865 q 703 819 713 819 q 680 837 693 819 q 647 856 667 854 q 533 858 628 858 l 468 857 q 297 860 461 857 q 222 479 250 699 q 619 483 536 479 q 628 474 628 483 q 614 453 628 465 q 575 436 600 440 l 217 436 q 196 146 196 219 q 201 43 196 72 l 563 42 q 722 64 651 42 l 724 64 q 729 49 729 64 q 718 17 729 33 q 688 0 707 0 l 494 -1 q 76 7 76 -1 q 93 35 76 18 q 125 54 110 51 q 124 110 124 61 q 154 436 124 158 l 136 436 q 122 446 122 436 q 133 467 122 456 q 158 479 144 478 q 224 867 190 743 l 150 867 q 119 878 119 868 q 138 892 119 885 q 178 900 156 900 l 232 900 q 311 961 243 961 q 332 947 332 961 q 322 922 332 939 q 311 901 313 906 l 393 900 l 483 900 z "},"F":{"ha":750,"x_min":111,"x_max":743,"o":"m 535 860 l 469 858 q 299 861 463 858 q 219 481 254 724 q 621 485 536 481 q 629 476 629 485 q 615 454 629 467 q 576 438 601 442 l 214 438 q 179 89 179 157 q 190 60 190 88 q 144 -11 190 -11 q 111 19 111 -11 q 154 438 114 46 l 138 438 q 124 447 124 438 q 135 468 124 457 q 160 481 146 479 q 225 868 186 704 l 151 868 q 121 879 121 869 q 139 894 121 886 q 179 901 157 901 l 233 901 q 311 961 244 961 q 332 947 332 961 q 313 903 332 942 l 336 903 l 485 901 l 722 903 q 743 882 743 903 q 728 844 743 867 q 704 821 714 821 q 681 838 694 821 q 649 858 668 856 q 535 860 629 860 z "},"G":{"ha":1083,"x_min":82,"x_max":1032,"o":"m 908 85 l 913 31 q 899 -11 913 6 q 868 -28 885 -28 q 842 8 842 -28 q 858 135 842 43 q 698 16 801 54 q 483 -22 594 -22 q 186 85 290 -22 q 82 379 82 193 q 237 759 82 604 q 661 914 392 914 q 931 744 931 914 q 913 681 931 703 q 869 658 896 658 q 843 674 843 658 q 857 713 843 682 q 871 760 871 744 q 812 849 871 818 q 649 879 753 879 q 447 837 546 879 q 283 724 347 794 q 185 564 219 654 q 150 376 150 474 q 233 116 150 222 q 471 10 315 10 q 628 32 556 10 q 750 90 701 54 q 878 231 844 160 q 897 344 885 263 l 576 344 q 563 354 563 344 q 574 376 563 364 q 600 388 586 388 q 1024 392 919 388 q 1032 383 1032 392 q 1018 361 1032 374 q 979 344 1004 349 l 951 344 l 943 319 q 917 219 921 254 q 908 85 908 154 z "},"H":{"ha":957,"x_min":111,"x_max":868,"o":"m 758 463 l 790 464 q 799 455 799 464 q 787 434 799 446 q 753 418 775 422 q 725 65 725 197 q 735 29 725 65 q 722 0 735 11 q 692 -11 708 -11 q 658 19 658 -11 q 697 417 681 263 l 199 417 q 168 78 168 213 q 173 48 168 63 q 178 22 178 33 q 166 -1 178 10 q 140 -11 154 -11 q 111 17 111 -11 q 144 417 111 139 l 131 417 q 117 426 117 417 q 126 447 117 436 q 149 460 136 458 q 183 691 168 617 q 203 791 199 765 q 211 826 208 817 q 222 857 214 836 q 238 887 229 878 q 263 904 247 896 q 300 913 279 913 q 321 899 321 913 l 321 896 q 204 460 251 738 q 703 463 408 460 q 743 749 722 626 l 743 790 q 769 877 743 842 q 847 913 794 913 q 868 899 868 913 l 868 896 q 758 463 796 732 z "},"I":{"ha":636,"x_min":64,"x_max":649,"o":"m 351 831 l 354 858 l 193 858 q 179 868 179 858 q 191 890 179 878 q 217 901 203 901 l 368 901 q 449 932 381 932 q 469 918 469 932 l 469 915 l 461 903 q 640 906 582 903 q 649 897 649 906 q 635 875 649 888 q 596 858 621 863 l 444 858 l 444 856 q 356 443 392 707 q 321 65 321 179 q 325 43 321 50 q 525 47 492 46 q 533 38 533 47 q 519 17 533 29 q 481 0 506 4 l 317 0 q 285 -11 303 -11 q 260 0 268 -11 l 78 0 q 64 10 64 0 q 76 31 64 19 q 101 43 88 43 l 256 43 q 351 789 301 531 l 351 831 z "},"J":{"ha":717,"x_min":54,"x_max":696,"o":"m 351 150 q 438 779 413 508 q 435 793 435 781 q 443 858 435 806 l 276 858 q 263 868 263 858 q 274 890 263 878 q 300 901 286 901 l 458 901 q 526 940 479 940 q 547 926 547 940 l 547 924 l 538 903 q 688 906 635 903 q 696 897 696 906 q 682 875 696 888 q 643 858 668 863 l 519 858 l 515 843 q 447 403 467 635 q 421 181 431 224 q 402 99 411 138 q 381 38 393 60 q 356 -6 369 17 q 281 -46 328 -46 q 132 48 210 -46 q 54 206 54 142 q 67 232 54 232 q 87 197 71 232 q 124 119 103 161 q 183 42 146 78 q 260 7 219 7 q 321 47 301 7 q 351 150 340 86 z "},"K":{"ha":882,"x_min":101,"x_max":915,"o":"m 783 153 l 779 215 q 792 238 779 238 q 819 149 819 238 q 778 12 819 60 q 690 -36 738 -36 q 488 74 618 -36 q 228 333 358 183 q 204 356 221 339 q 183 65 183 179 l 193 29 q 180 0 193 11 q 150 -11 167 -11 q 117 19 117 -11 q 154 407 146 335 q 101 476 101 465 q 111 488 101 488 q 151 478 121 478 l 163 478 q 201 749 181 629 l 201 790 q 227 877 201 842 q 306 913 253 913 q 326 899 326 913 l 326 896 q 221 485 256 735 q 255 492 231 488 q 289 501 279 497 q 494 609 393 542 q 653 730 596 676 q 767 842 711 783 q 829 904 824 900 q 826 911 826 907 q 851 940 826 925 q 895 954 875 954 q 915 939 915 954 q 791 790 915 899 q 510 578 667 681 q 272 451 354 475 q 233 421 233 440 q 250 392 233 408 q 372 265 333 304 q 486 153 410 225 q 717 8 635 14 q 783 153 783 8 z "},"L":{"ha":804,"x_min":78,"x_max":729,"o":"m 526 -1 l 185 0 q 153 -11 171 -11 q 128 0 136 -11 l 88 0 q 78 7 78 0 q 94 33 78 17 q 125 54 110 49 q 207 749 167 514 l 207 790 q 233 877 207 842 q 311 913 258 913 q 332 900 332 913 q 317 853 332 888 q 222 451 254 715 q 189 65 189 186 q 193 43 189 56 l 563 42 q 722 64 651 42 l 724 64 q 729 47 729 64 q 717 17 729 29 q 617 -4 696 -4 l 526 -1 z "},"M":{"ha":1049,"x_min":76,"x_max":988,"o":"m 874 756 l 869 799 q 965 913 869 913 q 988 897 988 913 q 975 854 988 886 q 906 218 906 664 q 908 72 906 94 q 916 42 911 50 q 921 28 921 33 q 882 -11 921 -11 q 847 15 847 -11 q 863 617 850 396 q 655 297 760 400 q 476 193 550 193 q 383 235 425 193 q 313 347 340 278 q 240 649 260 479 q 162 337 194 503 q 122 78 129 171 l 128 32 q 117 1 128 13 q 96 -11 106 -11 q 76 13 76 -11 l 76 19 q 222 763 135 451 q 226 775 222 767 q 217 823 217 783 q 235 885 217 863 q 271 908 254 908 q 292 907 288 908 q 325 913 311 913 q 339 901 339 913 q 320 855 339 890 q 300 815 301 819 l 283 774 q 339 435 292 585 q 403 308 363 356 q 494 260 443 260 q 669 372 564 260 q 869 707 774 483 l 874 749 l 874 756 z "},"N":{"ha":944,"x_min":119,"x_max":904,"o":"m 176 121 l 178 54 q 158 0 178 0 q 132 17 144 0 q 119 53 119 33 q 221 765 128 233 q 219 790 219 774 q 303 911 219 911 q 335 899 335 911 q 317 845 335 883 q 299 800 299 807 q 366 654 299 738 q 551 456 433 571 q 722 274 668 340 l 735 257 l 757 461 q 797 747 771 594 l 797 789 q 814 878 797 846 q 883 911 831 911 q 904 897 904 911 l 904 894 q 768 193 800 656 q 783 108 783 151 q 769 28 783 64 l 769 19 q 738 -12 763 -12 q 713 18 713 -12 l 722 132 q 673 232 704 189 q 513 408 642 275 q 346 583 385 540 q 271 760 274 665 q 203 426 231 625 q 176 121 176 228 z "},"O":{"ha":1106,"x_min":86,"x_max":1040,"o":"m 271 763 q 175 717 179 717 q 163 730 163 717 q 219 771 163 743 q 324 817 275 799 q 488 933 396 888 q 674 979 579 979 q 769 926 769 979 q 738 853 769 896 q 1040 515 1040 808 q 992 289 1040 393 q 864 117 943 185 q 686 13 785 50 q 483 -25 588 -25 q 188 79 289 -25 q 86 344 86 183 q 133 567 86 457 q 271 763 179 678 m 714 857 q 726 904 726 886 q 667 938 726 938 q 528 908 607 938 q 396 838 449 879 q 572 863 478 863 q 714 857 665 863 m 351 790 q 201 601 250 714 q 153 364 153 488 q 239 110 153 211 q 493 8 325 8 q 660 43 576 8 q 815 140 744 78 q 931 299 886 201 q 976 515 976 397 q 906 722 976 633 q 724 825 835 811 q 692 800 703 800 q 682 806 682 800 q 694 828 682 817 q 638 829 675 829 q 351 790 494 829 z "},"P":{"ha":726,"x_min":107,"x_max":692,"o":"m 206 875 l 151 872 q 121 883 121 874 q 222 907 121 907 q 251 946 226 931 q 303 961 275 961 q 332 944 332 961 q 321 924 328 935 q 310 901 314 914 q 692 685 692 867 q 620 519 692 597 q 469 414 549 442 q 295 386 389 386 q 188 393 201 386 q 168 163 168 283 q 176 24 168 43 q 172 15 176 18 q 168 11 168 13 q 135 -3 163 -3 q 107 19 107 -3 q 141 381 107 115 q 207 797 175 646 l 207 800 l 203 818 q 214 875 203 842 l 206 875 m 628 707 q 576 777 615 746 q 483 826 536 808 q 300 869 381 861 l 299 869 q 239 661 275 822 q 196 429 203 500 q 270 421 204 421 q 356 424 336 421 q 540 503 450 433 q 631 671 631 574 q 628 707 631 694 z "},"Q":{"ha":1106,"x_min":86,"x_max":1067,"o":"m 271 763 q 175 717 179 717 q 163 730 163 717 q 219 771 163 743 q 324 817 275 799 q 488 933 396 888 q 674 979 579 979 q 769 926 769 979 q 738 853 769 896 q 1040 515 1040 808 q 926 181 1040 318 q 639 -3 811 44 q 806 -228 749 -178 q 944 -297 882 -297 q 1011 -264 986 -297 q 1046 -197 1036 -231 q 1060 -162 1056 -162 q 1067 -185 1067 -162 q 1018 -298 1067 -260 q 922 -336 969 -336 q 841 -321 875 -336 q 782 -285 807 -306 q 727 -227 757 -265 q 681 -162 697 -189 q 634 -87 664 -136 q 589 -15 604 -37 q 483 -25 528 -25 q 188 79 289 -25 q 86 344 86 183 q 133 567 86 457 q 271 763 179 678 m 351 790 q 201 601 250 714 q 153 364 153 488 q 239 110 153 211 q 493 8 325 8 q 569 15 536 8 q 379 172 458 172 q 338 148 358 172 q 310 124 317 124 q 304 126 304 124 q 342 183 304 154 q 415 211 379 211 q 491 179 450 211 q 557 115 532 147 q 619 28 582 83 q 872 201 768 74 q 976 511 976 329 q 906 722 976 633 q 724 825 835 811 q 692 800 703 800 q 682 806 682 800 q 694 828 682 817 q 638 829 675 829 q 351 790 494 829 m 714 857 q 726 904 726 886 q 667 938 726 938 q 528 908 607 938 q 396 838 449 879 q 572 863 478 863 q 714 857 665 863 z "},"R":{"ha":811,"x_min":106,"x_max":783,"o":"m 747 153 l 743 215 q 756 238 743 238 q 783 149 783 238 q 742 12 783 60 q 659 -36 701 -36 q 565 -6 617 -36 q 447 86 513 25 q 219 311 342 182 l 181 346 q 168 140 168 236 q 176 24 168 43 q 172 15 176 18 q 168 11 168 13 q 135 -3 163 -3 q 107 19 107 -3 q 140 386 107 126 q 106 432 106 424 q 114 440 106 440 q 146 432 122 432 q 210 794 165 596 l 210 797 l 206 815 q 217 872 206 839 l 208 872 l 154 869 q 124 881 124 871 q 225 904 124 904 q 310 961 236 961 q 332 944 332 961 q 313 899 314 903 q 696 679 696 864 q 631 528 696 601 q 479 422 567 456 q 265 388 392 388 l 250 388 q 226 381 226 388 q 242 358 226 374 q 321 278 257 343 q 419 182 385 214 q 508 103 454 150 q 681 8 613 14 q 747 153 747 8 m 631 704 q 578 774 618 743 q 486 824 539 806 q 303 867 383 858 l 301 867 q 240 659 278 819 q 196 429 203 499 q 270 421 204 421 q 356 424 336 421 q 542 503 450 433 q 633 668 633 572 q 631 704 633 692 z "},"S":{"ha":731,"x_min":54,"x_max":679,"o":"m 182 657 q 240 535 190 581 q 355 465 290 489 q 483 417 419 440 q 591 360 547 394 q 635 276 635 326 q 504 71 635 165 q 214 -24 374 -24 q 54 75 54 -24 l 54 85 q 92 133 54 133 q 101 126 99 133 q 108 104 104 118 q 171 33 121 50 q 261 21 204 21 q 462 82 364 21 q 560 233 560 143 q 407 376 560 319 q 278 427 343 400 q 169 502 214 454 q 125 618 125 550 q 252 828 125 736 q 540 919 379 919 q 679 782 679 919 q 668 740 679 765 q 640 715 657 715 q 631 733 631 715 l 631 761 q 497 868 631 868 q 370 846 440 868 q 241 772 300 824 q 182 657 182 721 z "},"T":{"ha":853,"x_min":39,"x_max":829,"o":"m 364 65 l 374 29 q 360 0 374 11 q 331 -11 347 -11 q 297 19 297 -11 q 313 203 303 82 q 328 394 322 324 q 378 751 344 582 l 378 793 q 392 858 378 822 l 53 858 q 39 868 39 858 q 51 890 39 878 q 76 901 63 901 l 431 901 q 476 914 450 914 q 503 903 501 914 q 821 906 760 903 q 829 897 829 906 q 815 875 829 888 q 776 858 801 863 l 485 858 q 398 451 432 711 q 364 65 364 192 z "},"U":{"ha":897,"x_min":78,"x_max":840,"o":"m 165 760 q 157 780 157 761 q 181 845 157 799 q 218 904 204 892 q 268 925 244 925 q 313 901 313 925 q 307 889 313 894 q 215 699 257 843 q 160 433 174 554 q 146 250 146 313 q 243 54 146 54 q 525 297 344 54 q 663 540 610 413 q 715 760 715 668 l 715 790 q 741 877 715 842 q 819 913 767 913 q 840 899 840 913 l 840 896 q 738 492 778 751 q 699 100 699 233 q 710 60 710 85 q 664 -11 710 -11 q 631 19 631 -11 q 676 479 657 317 q 535 248 608 347 q 400 97 463 149 q 110 72 179 -87 q 78 268 78 146 q 165 760 78 510 z "},"V":{"ha":782,"x_min":94,"x_max":801,"o":"m 740 892 l 733 950 q 772 971 733 971 q 801 922 801 971 q 728 641 801 847 q 590 313 656 435 q 403 69 489 143 q 258 -4 318 -4 q 161 54 199 -4 q 94 374 94 161 q 133 753 94 588 q 124 774 124 754 q 160 888 124 846 q 230 929 196 929 q 264 907 264 929 q 260 894 264 900 q 194 674 222 849 q 165 368 165 500 q 192 145 165 236 q 285 54 218 54 q 557 338 396 54 q 684 637 628 465 q 740 892 740 808 z "},"W":{"ha":1274,"x_min":78,"x_max":1214,"o":"m 1147 851 l 1144 904 q 1172 929 1144 929 q 1214 844 1214 929 q 1160 599 1214 760 q 1049 322 1106 438 q 886 81 972 163 q 738 0 800 0 q 622 96 658 0 q 585 346 585 192 q 589 446 585 396 q 485 228 543 322 q 375 89 428 135 q 208 -1 274 -1 q 110 72 142 -1 q 78 268 78 146 q 165 760 78 510 q 157 780 157 761 q 181 845 157 799 q 218 904 204 892 q 268 925 244 925 q 313 901 313 925 q 307 889 313 894 q 215 699 257 843 q 160 433 174 554 q 146 250 146 313 q 243 54 146 54 q 396 168 296 54 q 502 331 446 225 q 603 568 558 436 q 642 758 618 682 q 629 778 629 763 q 660 847 629 821 q 714 872 692 872 q 748 865 736 872 q 760 849 760 857 q 754 836 760 842 q 681 653 711 793 q 651 371 651 513 q 680 142 651 229 q 767 54 708 54 q 1001 329 867 54 q 1106 608 1065 460 q 1147 851 1147 756 z "},"X":{"ha":929,"x_min":0,"x_max":897,"o":"m 278 908 q 317 900 294 908 q 339 885 339 892 q 318 873 339 878 q 297 833 297 868 q 417 472 297 735 q 512 556 458 506 q 613 649 565 606 q 684 721 660 693 q 739 783 708 749 q 794 892 794 849 l 794 908 q 803 922 794 922 q 828 874 828 922 q 775 761 828 826 q 665 639 721 692 q 581 561 608 586 l 504 492 q 436 432 456 449 q 583 156 508 272 q 711 39 658 39 q 778 79 744 39 q 831 167 811 119 q 867 254 851 214 q 888 294 883 294 q 897 279 897 294 q 896 260 897 264 q 793 53 861 117 q 663 -10 725 -10 q 401 356 568 -10 l 386 386 q 177 174 294 301 q 45 12 60 46 q 15 -22 31 -22 q 0 -4 0 -22 q 4 11 0 3 q 368 428 63 150 q 219 818 322 535 q 210 868 210 843 q 278 908 210 908 z "},"Y":{"ha":672,"x_min":42,"x_max":706,"o":"m 132 96 q 201 363 201 246 q 200 383 201 378 q 51 811 132 561 q 42 865 42 839 q 104 908 42 908 q 142 903 121 908 q 163 889 163 897 q 156 876 163 881 q 147 869 150 872 q 129 831 129 865 q 257 429 129 736 q 502 676 397 549 q 622 865 607 804 q 674 926 636 926 q 706 894 706 926 q 560 685 706 863 q 274 394 474 581 q 245 279 260 356 q 228 159 231 203 q 221 92 225 115 q 206 44 217 69 q 117 0 185 0 q 93 13 93 0 q 132 96 93 25 z "},"Z":{"ha":772,"x_min":33,"x_max":785,"o":"m 675 -54 q 668 -44 668 -54 l 668 -40 q 693 13 693 -11 q 592 61 693 61 q 417 51 494 61 q 265 29 340 40 q 161 15 189 18 q 108 6 133 11 q 51 -7 54 -7 q 44 -3 47 -7 q 33 36 33 10 q 38 83 33 63 q 215 310 49 136 q 542 647 382 483 q 701 840 701 810 q 632 857 701 851 q 491 863 563 863 q 331 853 419 863 q 221 824 243 843 q 233 801 233 815 q 223 786 232 786 q 190 810 214 786 q 167 850 167 833 q 314 900 167 892 q 553 906 417 906 q 747 900 690 906 q 774 878 764 896 q 785 844 785 861 q 778 815 785 826 q 403 419 718 725 q 188 196 288 307 q 74 40 88 85 q 140 54 75 40 q 269 81 206 68 q 552 114 451 114 q 697 103 653 114 q 740 58 740 92 q 715 -15 740 24 q 675 -54 690 -54 z "},"[":{"ha":813,"x_min":28,"x_max":771,"o":"m 232 15 l 360 19 q 367 11 367 19 q 358 -8 367 3 q 339 -18 349 -18 l 138 -18 q 28 25 28 -18 q 206 458 28 133 q 490 904 385 782 q 581 950 531 950 l 757 950 q 771 941 771 950 q 766 923 771 932 q 755 913 761 914 q 722 911 749 911 l 608 911 q 506 831 565 911 q 326 544 446 751 q 104 58 104 160 q 232 15 104 15 z "},"\\":{"ha":839,"x_min":63,"x_max":836,"o":"m 814 -129 q 800 -118 797 -129 q 503 375 810 -36 q 72 917 260 701 q 63 942 63 926 q 93 969 63 969 q 278 763 114 969 q 616 308 443 557 q 822 -36 789 60 q 836 -102 836 -75 q 814 -129 836 -129 z "},"]":{"ha":772,"x_min":32,"x_max":775,"o":"m 571 911 l 443 907 q 436 915 436 907 q 445 933 436 922 q 464 944 454 944 l 665 944 q 775 901 775 944 q 597 469 775 793 q 313 22 418 144 q 222 -24 272 -24 l 46 -24 q 32 -15 32 -24 q 37 3 32 -6 q 48 14 42 13 q 81 15 54 15 l 194 15 q 297 95 238 15 q 476 382 357 175 q 699 868 699 767 q 571 911 699 911 z "},"^":{"ha":464,"x_min":69,"x_max":390,"o":"m 379 632 q 225 732 293 679 q 140 672 204 715 q 73 629 76 629 q 69 633 69 629 q 76 646 69 636 q 150 715 82 656 q 232 776 218 774 q 303 720 242 774 q 378 654 365 667 q 390 636 390 642 q 385 631 390 631 q 379 632 381 631 z "},"_":{"ha":456,"x_min":-3,"x_max":474,"o":"m 474 -21 l 471 -24 l 1 -24 l -3 -21 l -3 1 l 1 6 l 471 6 l 474 1 l 474 -21 z "},"`":{"ha":493,"x_min":151,"x_max":397,"o":"m 397 743 q 393 739 397 739 q 283 792 389 739 q 164 851 176 844 q 151 873 151 858 q 160 899 151 888 q 177 911 168 911 q 194 907 186 911 q 334 806 271 856 q 397 743 397 756 z "},"a":{"ha":457,"x_min":8,"x_max":475,"o":"m 461 111 q 434 86 444 94 q 410 66 424 78 q 388 47 397 54 q 364 31 378 40 q 339 17 350 21 q 297 3 311 3 q 263 38 268 3 q 308 253 263 96 q 42 -4 122 -4 q 8 53 8 -4 q 47 219 8 110 q 140 416 85 328 q 238 504 196 504 l 242 504 l 257 515 q 293 529 269 529 q 354 518 317 529 q 397 507 392 507 q 410 518 401 507 q 432 529 419 529 q 467 499 467 529 q 453 447 467 478 q 438 412 439 415 q 424 403 436 408 q 411 393 413 397 q 357 209 381 307 q 333 83 333 111 q 353 54 333 54 q 401 78 372 54 q 450 125 429 101 q 473 149 471 149 q 475 135 475 149 q 461 111 475 122 m 369 481 l 307 486 q 265 481 288 486 q 151 316 231 471 q 72 85 72 161 q 86 61 72 61 q 190 146 115 61 q 293 276 264 231 q 351 387 322 322 q 381 466 381 451 q 374 481 381 481 l 369 481 z "},"b":{"ha":406,"x_min":-3,"x_max":450,"o":"m 431 474 q 404 349 429 446 q 442 364 435 364 q 450 361 450 364 q 433 340 450 354 q 397 319 415 326 q 292 83 343 140 q 213 26 272 63 q 139 -11 153 -11 q 54 15 82 -11 l 49 3 q 38 -1 47 -1 q 13 15 28 -1 q -3 53 -3 32 q 31 160 -3 75 q 44 176 35 171 q 54 186 53 182 q 292 876 204 576 q 351 910 333 910 q 365 889 365 910 q 268 610 350 832 q 133 260 186 388 q 273 437 186 339 q 403 535 360 535 q 431 483 431 535 l 431 474 m 328 286 q 117 149 164 200 q 97 106 108 132 q 81 71 85 79 q 149 33 114 33 q 255 118 206 33 q 328 286 304 203 m 339 317 q 364 438 361 375 q 350 467 364 467 q 126 183 304 467 q 339 317 210 251 z "},"c":{"ha":321,"x_min":6,"x_max":367,"o":"m 308 406 l 319 468 q 296 490 319 490 q 244 467 279 490 q 186 422 208 444 q 114 274 164 399 q 64 82 64 150 q 104 31 64 31 q 207 70 156 31 q 290 151 258 110 q 324 192 322 192 q 331 175 331 189 q 297 116 331 161 q 205 30 264 71 q 90 -11 146 -11 q 6 86 6 -11 q 68 318 6 183 q 176 474 131 453 q 222 494 197 482 q 301 521 272 521 q 367 456 367 521 q 351 399 367 417 q 325 381 336 381 q 308 406 308 381 z "},"d":{"ha":471,"x_min":7,"x_max":596,"o":"m 592 900 q 596 881 596 897 q 574 805 596 865 q 515 648 553 744 q 456 490 476 551 q 460 492 457 492 q 470 482 464 492 q 476 464 476 472 q 460 456 476 456 q 443 460 444 456 q 373 257 415 397 q 331 85 331 117 q 349 53 331 53 q 447 126 383 53 q 472 151 468 151 q 476 146 476 151 q 475 133 476 140 q 467 117 469 117 q 378 44 435 85 q 289 3 321 3 q 263 32 263 3 q 315 261 263 107 q 170 83 256 176 q 36 -10 85 -10 q 7 32 7 -10 q 49 205 7 92 q 148 410 90 318 q 244 503 206 503 l 250 503 q 273 513 260 503 q 304 524 286 524 q 360 513 322 524 q 401 501 399 501 q 453 637 403 501 q 506 781 503 772 q 490 797 490 781 q 532 899 490 836 q 555 910 538 910 q 592 900 572 910 m 393 471 q 311 486 393 486 q 276 483 288 486 q 159 315 246 475 q 72 82 72 156 q 86 60 72 60 q 126 82 100 60 q 175 129 153 104 q 251 217 250 213 q 372 419 318 292 q 393 471 392 468 z "},"e":{"ha":351,"x_min":28,"x_max":374,"o":"m 189 264 l 139 265 q 93 88 93 149 q 135 26 93 26 q 271 136 183 26 q 306 174 300 174 q 315 163 315 174 q 239 55 315 124 q 124 -14 163 -14 q 56 8 85 -14 q 28 79 28 29 q 51 197 28 125 q 75 279 74 268 q 54 301 54 285 q 78 317 54 317 l 88 317 q 151 443 143 426 q 300 517 190 517 q 365 432 347 517 q 374 360 374 389 q 353 310 374 332 q 299 281 332 289 q 189 264 240 264 m 151 304 l 207 301 q 289 314 264 301 q 315 363 314 326 q 308 425 315 400 q 274 469 296 469 q 208 410 246 469 q 151 304 169 350 z "},"f":{"ha":292,"x_min":-250,"x_max":558,"o":"m 536 921 q 558 893 558 917 q 549 851 558 869 q 531 832 540 832 q 522 847 529 832 q 499 875 515 861 q 460 889 483 889 q 363 811 393 889 q 268 521 301 654 l 404 521 q 443 513 443 521 q 379 491 443 499 q 257 483 315 483 q 222 372 251 469 q 106 -22 129 54 q -8 -227 60 -167 q -143 -287 -75 -287 q -250 -176 -250 -287 q -238 -104 -250 -137 q -217 -71 -226 -71 q -210 -79 -211 -71 q -212 -118 -212 -107 q -187 -221 -212 -182 q -128 -260 -162 -260 q -58 -224 -93 -260 q 10 -104 -24 -189 q 110 194 44 -19 q 194 478 176 408 q 115 472 161 472 q 69 483 69 472 q 88 508 69 494 q 117 521 106 521 l 206 521 q 288 787 269 747 q 320 847 306 826 q 352 881 335 868 q 385 901 369 893 q 422 912 400 908 q 458 917 443 915 q 497 919 472 918 q 536 921 522 919 z "},"g":{"ha":407,"x_min":-101,"x_max":431,"o":"m 332 -297 q 209 -427 319 -368 q -1 -486 99 -486 q -101 -412 -101 -486 q -33 -206 -101 -339 q 81 -22 35 -74 q 108 -8 85 -17 q 75 11 85 6 q 53 34 53 21 q 66 60 53 47 q 93 74 79 74 l 99 74 q 258 -67 183 42 q 333 -269 333 -175 q 332 -297 333 -289 m 431 408 q 410 396 431 396 l 397 396 q 375 286 382 303 q 278 144 340 197 q 150 90 217 90 q 94 113 111 90 q 76 183 76 135 q 151 414 76 303 q 307 525 225 525 q 328 522 314 525 q 364 572 328 572 q 404 508 404 572 l 401 440 q 417 431 407 440 q 431 408 431 417 m 267 -315 l 267 -297 q 227 -150 267 -224 q 132 -28 188 -76 q 98 -76 129 -32 q 45 -154 67 -121 q -4 -236 24 -187 q -62 -394 -62 -336 q 6 -451 -62 -451 q 169 -404 74 -451 q 267 -315 264 -357 m 346 401 q 328 445 331 404 q 308 486 325 486 q 228 431 265 486 q 163 301 190 375 q 135 178 135 226 q 169 131 135 131 q 283 213 221 131 q 346 401 346 296 z "},"h":{"ha":431,"x_min":11,"x_max":474,"o":"m 233 696 l 231 714 q 249 770 231 719 q 289 849 267 821 q 357 878 311 878 q 378 865 375 878 q 132 215 226 560 q 444 539 339 539 q 474 519 474 539 q 464 492 474 507 q 324 223 389 371 q 260 -7 260 75 q 271 -26 260 -26 l 319 -1 q 326 -14 326 -1 q 300 -45 326 -26 q 249 -64 274 -64 q 214 -8 214 -64 q 253 156 214 47 q 331 355 292 265 q 369 451 369 444 q 368 458 369 458 q 343 438 363 458 q 196 245 256 339 q 116 101 136 151 q 74 22 96 51 q 24 -8 53 -8 q 11 5 11 -8 q 33 74 11 18 q 90 235 56 131 q 165 467 125 339 q 219 640 204 596 q 233 696 233 683 z "},"i":{"ha":233,"x_min":25,"x_max":354,"o":"m 354 764 q 328 718 354 746 q 294 675 301 690 q 256 624 276 629 q 228 669 228 624 q 271 733 228 699 q 346 768 314 768 q 354 764 353 768 m 131 357 l 126 375 q 144 431 126 381 q 185 510 161 481 q 254 539 208 539 q 275 526 272 539 q 216 411 253 492 q 164 292 179 331 q 103 90 128 201 q 101 79 101 86 q 115 63 101 63 q 160 83 124 63 q 208 104 197 104 q 219 99 218 104 q 149 37 219 82 q 51 -8 78 -8 q 25 17 25 -8 q 35 59 25 29 q 62 135 46 89 q 86 206 78 181 q 103 257 94 231 q 117 297 113 283 q 125 322 121 310 q 131 357 131 347 z "},"j":{"ha":279,"x_min":-226,"x_max":376,"o":"m 172 356 l 168 376 q 171 393 168 386 q 215 509 193 479 q 282 539 238 539 q 304 526 300 539 q 117 -103 206 290 q 22 -308 83 -247 q -108 -368 -40 -368 q -226 -240 -226 -368 q -217 -179 -226 -207 q -200 -151 -208 -151 q -193 -160 -194 -151 l -193 -174 q -165 -296 -193 -249 q -101 -343 -137 -343 q 18 -203 -26 -343 q 169 332 100 60 q 172 356 172 343 m 353 775 q 365 775 353 775 q 376 763 376 775 q 356 738 376 750 q 322 708 335 726 q 304 672 310 689 q 267 628 290 628 q 249 649 257 628 q 239 685 240 671 q 285 744 239 714 q 353 775 331 775 z "},"k":{"ha":374,"x_min":-1,"x_max":490,"o":"m 233 696 l 229 714 q 247 770 229 719 q 288 849 265 821 q 356 878 310 878 q 376 865 375 878 q 241 564 293 697 q 149 269 189 431 l 213 326 q 425 513 329 431 q 476 540 463 540 q 490 535 490 540 q 453 490 490 519 q 290 356 367 440 q 213 246 213 272 q 256 121 213 196 q 328 21 299 46 q 358 -18 358 -4 q 346 -26 358 -26 q 282 11 318 -26 q 167 181 228 69 l 138 232 q 75 24 78 67 q 49 -8 75 14 q 8 -29 24 -29 q -1 -17 -1 -29 q 6 10 -1 -11 q 135 381 65 158 q 219 646 206 604 q 233 696 233 688 z "},"l":{"ha":249,"x_min":24,"x_max":374,"o":"m 232 696 l 228 715 q 232 732 228 719 q 283 849 260 819 q 353 878 307 878 q 374 865 372 878 q 218 483 297 707 q 101 90 139 258 q 100 79 100 86 q 114 63 100 63 q 159 83 122 63 q 205 104 196 104 q 218 99 214 104 q 149 37 218 82 q 51 -8 79 -8 q 24 17 24 -8 q 44 88 24 31 q 97 242 65 144 q 168 473 128 339 q 220 645 208 607 q 232 696 232 683 z "},"m":{"ha":678,"x_min":-3,"x_max":758,"o":"m 124 357 l 119 375 q 137 431 119 381 q 178 510 154 481 q 246 539 201 539 q 267 526 264 539 q 131 193 153 293 q 482 563 363 563 q 510 544 510 563 q 500 517 510 532 q 347 157 379 313 q 477 366 415 292 q 661 529 539 440 q 723 550 688 550 q 758 531 758 550 q 750 504 758 521 q 547 25 582 207 q 543 -6 543 11 q 556 -22 543 -22 q 584 -9 561 -22 q 613 4 607 4 q 618 -9 618 4 q 588 -42 618 -22 q 526 -61 557 -61 q 486 -6 486 -61 q 528 158 486 57 q 567 250 542 193 q 640 440 640 414 q 635 450 640 450 q 618 443 629 450 q 465 286 546 394 q 346 33 385 178 q 317 8 343 22 q 273 -7 290 -7 q 256 6 256 -7 l 257 11 q 388 438 296 194 q 394 463 394 456 q 390 469 394 469 q 369 454 383 469 q 213 250 281 351 q 117 96 144 149 q 64 10 90 43 q 8 -24 38 -24 q -3 -13 -3 -24 q 3 13 -3 -3 q 17 43 10 28 l 26 61 q 86 232 49 115 q 124 357 124 349 z "},"n":{"ha":453,"x_min":-4,"x_max":510,"o":"m 124 357 l 119 375 q 138 431 119 381 q 178 510 156 482 q 246 539 200 539 q 267 526 264 539 q 131 193 153 293 q 482 563 360 563 q 510 544 510 563 q 500 517 510 532 q 368 246 429 399 q 307 17 307 93 q 318 -8 307 -8 l 372 19 q 381 7 381 19 q 350 -26 381 -6 q 289 -47 319 -47 q 249 10 249 -47 q 271 139 249 67 q 340 324 293 211 q 391 446 388 436 q 394 464 394 456 q 390 472 394 472 q 221 265 364 472 q 75 21 78 58 q 49 -6 74 11 q 10 -24 24 -24 q -4 -14 -3 -24 q 47 125 -1 -18 q 124 357 124 344 z "},"o":{"ha":363,"x_min":29,"x_max":421,"o":"m 394 414 q 421 398 421 410 q 400 376 421 386 q 363 367 379 367 q 278 89 363 204 q 110 -26 193 -26 q 29 90 29 -26 q 107 371 29 193 q 178 484 136 438 q 264 531 221 531 l 274 531 q 285 564 274 550 q 315 578 296 578 q 350 497 335 576 q 394 414 365 417 m 324 378 q 293 427 311 385 q 268 469 275 469 q 168 342 225 469 q 101 163 111 215 q 92 83 92 110 q 131 15 92 15 q 255 128 186 15 q 324 378 324 242 z "},"p":{"ha":414,"x_min":-94,"x_max":472,"o":"m 75 24 q -24 -265 -24 -261 q -19 -276 -24 -268 q -14 -297 -14 -285 q -35 -347 -14 -310 q -78 -383 -56 -383 q -94 -351 -94 -383 q -72 -247 -94 -319 q -5 -59 -49 -175 q 40 63 39 57 q 36 86 36 72 q 67 138 36 118 q 175 481 160 425 q 160 484 175 482 q 144 493 144 486 q 167 514 144 504 l 188 522 q 182 533 182 528 q 208 576 182 553 q 249 599 235 599 q 264 585 264 599 q 257 558 264 572 l 242 525 q 372 299 340 456 q 406 310 379 300 q 443 322 433 319 q 463 324 453 324 q 472 319 472 324 q 430 290 472 303 q 378 274 388 278 q 385 194 385 238 q 330 37 385 86 q 197 -12 275 -12 q 75 24 119 -12 m 318 254 q 222 210 294 254 q 122 142 150 167 l 92 54 q 186 22 140 22 q 291 69 257 22 q 325 182 325 115 q 318 254 325 213 m 311 276 q 253 435 292 376 q 229 457 239 457 q 186 342 222 457 q 138 190 150 228 q 311 276 204 236 z "},"q":{"ha":432,"x_min":14,"x_max":517,"o":"m 490 411 q 477 403 489 408 q 464 393 465 397 q 381 194 407 258 q 257 -190 299 -6 q 251 -233 251 -212 q 267 -254 251 -254 q 345 -205 293 -254 q 403 -156 397 -156 q 408 -165 408 -156 q 403 -183 408 -174 q 396 -194 399 -193 q 207 -311 260 -311 q 175 -276 179 -311 q 339 246 175 -186 q 253 143 297 193 q 145 41 208 93 q 46 -11 82 -11 q 14 32 14 -11 q 62 206 14 93 q 175 412 110 319 q 283 504 240 504 l 288 504 l 303 515 q 340 529 315 529 q 400 518 364 529 q 441 507 436 507 q 456 518 446 507 q 479 529 467 529 q 517 494 517 529 q 490 411 517 468 m 414 481 l 351 488 q 310 481 331 488 q 239 400 292 476 q 138 226 186 324 q 90 81 90 129 q 103 61 90 61 q 206 140 132 61 q 318 267 281 218 q 391 391 358 328 q 424 467 424 454 q 418 481 424 481 l 414 481 z "},"r":{"ha":375,"x_min":8,"x_max":442,"o":"m 100 356 l 94 379 q 97 394 94 388 q 142 514 119 482 q 210 546 165 546 q 229 535 226 546 q 209 486 228 531 q 175 403 190 442 q 108 194 132 299 q 250 412 154 285 q 408 539 346 539 q 442 497 442 539 q 410 410 442 454 q 380 380 399 394 q 352 365 361 365 q 343 372 343 365 q 356 413 343 379 q 369 457 369 446 q 363 468 369 468 q 219 318 314 468 q 78 25 124 168 q 51 3 69 14 q 23 -8 33 -8 q 8 -1 13 -8 q 17 67 8 36 q 40 103 26 97 q 83 275 71 218 l 97 333 q 100 356 100 343 z "},"s":{"ha":353,"x_min":19,"x_max":399,"o":"m 399 476 q 363 397 396 449 q 311 346 329 346 q 306 356 306 346 q 321 405 306 367 q 336 454 336 443 q 311 475 336 475 q 265 468 307 475 q 174 424 231 460 q 118 344 118 388 q 125 317 118 329 q 188 256 143 281 q 266 208 233 231 q 299 150 299 186 q 205 33 299 89 q 44 -24 111 -24 q 26 -15 33 -24 q 19 4 19 -6 q 35 21 19 21 q 163 49 81 21 q 246 111 246 78 q 147 206 246 146 q 78 259 110 228 q 47 317 47 290 q 62 361 47 343 q 90 394 76 379 q 117 419 104 408 q 145 442 129 431 q 174 461 161 453 q 203 478 186 469 l 229 492 q 271 510 258 506 q 297 519 283 514 q 349 532 329 532 q 399 476 399 532 z "},"t":{"ha":321,"x_min":74,"x_max":447,"o":"m 219 564 l 214 583 q 218 600 214 588 q 269 718 246 689 q 336 747 292 747 q 358 735 356 747 q 274 521 328 669 l 408 521 q 447 513 447 521 q 383 491 447 499 q 261 483 319 483 q 149 108 192 288 q 142 63 142 81 q 157 44 142 44 q 238 94 185 44 q 297 143 292 143 q 303 127 303 143 q 288 104 303 111 q 108 -11 160 -11 q 76 29 76 -11 q 95 113 76 51 q 199 478 114 174 q 119 472 165 472 q 74 483 74 472 q 92 508 74 494 q 121 521 110 521 l 210 521 l 215 540 q 219 564 219 557 z "},"u":{"ha":463,"x_min":10,"x_max":499,"o":"m 132 351 l 126 375 q 140 428 126 376 q 174 508 153 479 q 243 536 194 536 q 267 524 263 536 q 100 94 100 114 q 105 89 100 89 q 138 111 110 89 q 382 411 276 218 q 408 500 383 454 q 482 546 433 546 q 499 533 497 546 q 468 450 494 521 q 421 319 442 379 q 372 158 400 260 q 343 44 343 57 q 346 31 343 31 q 402 65 357 31 q 461 100 447 100 q 475 93 475 100 q 372 14 475 76 q 325 -15 332 -10 q 300 -42 318 -21 q 237 -87 256 -87 q 218 -72 218 -87 q 240 -42 218 -62 q 269 -7 263 -22 q 364 325 293 50 q 191 108 299 228 q 29 -12 83 -12 q 10 10 10 -12 q 17 53 10 33 q 58 147 25 74 q 132 351 132 310 z "},"v":{"ha":485,"x_min":71,"x_max":486,"o":"m 404 426 l 393 472 q 422 524 393 489 q 471 560 451 560 q 486 536 486 560 q 422 333 486 443 q 294 151 358 222 q 170 33 231 81 q 79 -15 110 -15 q 71 -7 71 -15 q 74 5 71 1 q 80 11 76 8 q 89 19 83 14 q 99 42 94 25 q 108 89 104 60 q 124 300 121 158 q 115 338 124 325 q 107 402 107 350 q 120 481 107 454 q 175 507 133 507 q 201 494 194 507 q 149 57 153 107 q 176 81 150 58 q 228 129 203 103 q 289 196 254 156 q 401 410 363 283 q 404 426 404 421 z "},"w":{"ha":685,"x_min":24,"x_max":742,"o":"m 678 485 l 667 536 q 681 568 667 553 l 682 568 q 706 581 697 581 q 733 553 724 581 q 742 510 742 526 q 717 438 742 493 q 560 143 649 288 q 525 82 531 96 q 499 -6 518 64 q 481 -15 493 -15 q 455 2 469 -15 q 440 35 440 19 l 442 71 q 365 446 442 261 q 223 234 315 417 q 131 -11 131 51 q 114 -26 126 -26 q 85 -7 101 -26 q 68 22 68 13 q 69 33 68 32 q 128 297 128 176 q 96 447 128 411 q 75 461 83 461 q 50 450 67 461 q 28 439 33 439 q 24 443 24 439 q 60 494 24 463 q 115 526 96 526 q 172 331 172 526 q 168 218 172 289 q 284 408 211 297 q 386 519 357 519 q 414 535 397 535 q 440 504 440 535 q 438 482 440 504 q 449 437 438 471 q 478 331 461 403 q 521 153 519 153 q 607 283 540 153 q 678 485 674 414 z "},"x":{"ha":392,"x_min":-104,"x_max":465,"o":"m 117 438 l 81 435 q 61 451 63 435 q 79 467 60 456 q 112 480 99 479 q 145 503 125 481 q 169 525 165 525 l 171 525 q 222 450 194 525 q 258 332 250 375 q 354 449 276 365 q 450 533 432 533 q 465 506 465 533 q 447 465 465 478 q 433 461 435 461 l 429 463 q 385 422 425 463 q 267 297 267 301 l 303 169 q 339 17 339 40 q 321 -34 339 -7 q 285 -61 303 -61 q 269 -6 279 -61 q 218 246 233 206 q 125 131 186 204 q -62 -126 -10 -32 q -91 -154 -78 -154 q -104 -126 -104 -154 q -42 -16 -104 -97 q 103 158 21 65 q 206 282 185 250 q 200 309 203 297 q 193 336 197 321 q 184 365 189 351 q 172 392 179 378 q 156 415 164 406 q 117 438 139 438 z "},"y":{"ha":440,"x_min":-121,"x_max":510,"o":"m 422 476 l 401 471 q 390 478 394 471 q 431 518 390 496 q 487 540 471 540 q 506 539 503 540 q 510 524 510 532 q 388 300 510 468 q 193 46 267 132 q 190 44 193 53 q 164 -50 169 -39 q 153 -62 158 -61 l 128 -56 q -60 -378 -60 -307 q -54 -403 -60 -390 q -49 -426 -49 -417 q -65 -447 -49 -436 q -99 -458 -82 -458 q -121 -432 -121 -458 q -61 -280 -121 -382 q 62 -90 -1 -178 q 126 3 125 -3 q 142 145 142 49 q 120 328 142 242 q 61 414 99 414 q 47 413 57 414 q 36 419 36 413 q 67 453 36 431 q 90 483 71 456 q 119 511 110 511 q 172 422 149 511 q 194 222 194 332 q 193 156 194 222 q 204 133 193 133 q 333 281 236 133 q 429 468 429 428 q 422 476 429 476 z "},"z":{"ha":421,"x_min":-15,"x_max":464,"o":"m 347 519 q 464 493 464 519 q 448 446 464 463 q 422 426 432 429 q 411 422 411 424 q 227 249 342 365 q 68 67 113 133 q 65 58 65 64 q 181 36 65 36 q 375 56 297 36 q 401 60 389 60 q 413 46 413 60 q 396 9 413 32 q 360 -14 379 -14 q 342 0 342 -14 q 207 7 258 7 q 92 2 156 7 q 19 -3 29 -3 q -15 32 -15 -3 q 11 90 -15 67 q 375 471 253 324 l 300 471 q 174 451 192 471 q 161 436 172 450 q 126 399 131 399 q 114 408 114 399 q 145 492 114 467 q 256 518 176 518 l 347 519 z "},"{":{"ha":449,"x_min":50,"x_max":596,"o":"m 160 368 q 242 251 242 338 q 206 93 242 197 q 171 -57 171 -11 q 192 -122 171 -103 q 240 -142 214 -142 q 310 -151 310 -144 q 300 -164 310 -158 q 278 -169 290 -169 q 160 -149 204 -169 q 117 -67 117 -128 q 153 99 117 -7 q 190 254 190 206 q 168 326 190 303 q 120 354 146 350 q 72 362 94 358 q 50 371 50 365 q 75 389 50 382 q 215 428 172 399 q 283 546 257 457 q 300 613 290 569 q 317 683 310 656 q 337 746 324 710 q 369 804 350 782 q 417 847 389 826 q 588 889 472 889 l 589 889 q 596 875 596 889 q 582 860 596 861 q 437 813 478 860 q 369 658 396 765 q 160 368 306 400 z "},"|":{"ha":304,"x_min":139,"x_max":219,"o":"m 171 -104 q 150 -122 161 -122 q 139 -101 139 -122 q 145 -72 139 -97 q 151 154 151 -47 l 151 617 q 146 800 151 751 q 140 856 140 849 q 164 869 140 869 q 219 750 219 869 q 205 275 219 599 q 171 -104 190 -49 z "},"}":{"ha":590,"x_min":38,"x_max":583,"o":"m 474 353 q 392 469 392 383 q 427 628 392 524 q 463 778 463 732 q 440 842 463 824 q 392 863 418 861 q 344 865 367 864 q 322 873 322 867 q 332 885 322 879 q 356 890 342 890 q 472 869 429 890 q 515 788 515 849 q 478 621 515 728 q 442 466 442 514 q 464 394 442 418 q 513 367 486 371 q 561 359 539 363 q 583 350 583 356 q 558 332 583 339 q 417 293 460 322 q 350 175 375 264 q 333 108 343 151 q 317 38 324 65 q 297 -25 310 11 q 264 -83 283 -61 q 217 -128 244 -106 q 46 -168 161 -168 l 44 -168 q 38 -156 38 -168 q 51 -139 38 -143 q 197 -92 156 -139 q 264 63 238 -44 q 474 353 328 321 z "},"~":{"ha":422,"x_min":40,"x_max":349,"o":"m 349 676 q 310 628 349 650 q 251 607 271 607 q 186 626 231 607 q 118 644 142 644 q 72 626 94 644 q 44 608 49 608 q 40 615 40 608 q 63 641 40 621 q 104 672 86 661 q 148 682 122 682 q 217 667 174 682 q 288 653 260 653 q 340 682 315 653 q 349 676 349 682 z "},"":{"ha":281,"x_min":-199,"x_max":242,"o":"m 242 550 q 208 503 242 526 q 165 479 175 479 q 154 482 154 479 q 182 588 171 572 q 219 604 193 604 q 242 551 242 604 l 242 550 m 72 300 q 90 322 72 311 q 116 332 108 332 q 129 331 124 332 q 136 298 136 325 q 104 185 136 271 q 17 -26 72 99 q -42 -159 -39 -151 q -64 -204 -44 -167 q -114 -311 -114 -300 q -103 -318 -114 -315 q -89 -328 -92 -321 q -110 -342 -89 -336 q -165 -347 -132 -347 q -199 -332 -199 -347 q -196 -324 -199 -329 q -41 -34 -164 -283 q 82 275 82 215 q 77 290 82 283 q 72 300 72 297 z "},"":{"ha":321,"x_min":86,"x_max":443,"o":"m 432 876 l 438 875 q 443 865 443 872 q 431 833 443 858 q 357 664 418 807 q 415 615 415 661 q 403 576 415 592 q 376 561 390 561 q 363 579 363 561 l 372 624 q 347 642 372 642 q 213 304 275 474 q 290 344 251 315 q 352 399 329 374 q 378 424 375 424 q 382 417 382 424 q 326 344 382 393 q 203 276 271 296 q 142 56 142 107 q 161 22 142 29 q 142 0 161 6 q 133 -3 138 -1 q 111 55 111 -3 q 168 269 111 113 l 160 269 q 86 339 86 269 q 143 510 86 411 q 243 629 200 610 q 285 647 260 635 q 322 661 311 658 q 397 836 376 796 q 432 876 418 876 m 256 594 q 185 481 231 574 q 139 344 139 388 q 165 299 139 300 l 178 299 q 310 628 269 532 q 256 594 285 615 z "},"":{"ha":1135,"x_min":56,"x_max":1074,"o":"m 368 458 l 481 457 q 506 529 489 476 q 538 631 522 582 q 584 740 554 681 q 648 842 614 799 q 736 914 682 885 q 852 943 790 943 q 955 905 914 943 q 996 814 996 867 q 975 735 996 761 q 932 708 954 708 q 910 717 910 708 q 922 731 910 718 q 961 812 961 764 q 928 888 961 860 q 844 917 894 917 q 756 892 793 917 q 692 831 718 867 q 640 740 667 796 q 599 642 614 685 q 565 541 585 600 q 536 457 546 482 q 754 432 754 457 q 706 417 754 417 l 528 419 q 506 365 526 418 q 477 294 485 313 q 448 228 469 276 q 411 154 426 181 q 339 43 371 79 q 585 -33 435 -3 q 851 -64 736 -64 q 981 -24 922 -64 q 1039 83 1039 15 q 1026 148 1039 121 q 999 187 1013 175 q 986 200 986 199 q 1007 213 986 213 q 1051 178 1028 213 q 1074 93 1074 144 q 1006 -61 1074 -7 q 839 -115 939 -115 q 702 -103 758 -115 q 622 -87 646 -92 q 544 -65 597 -82 q 480 -44 492 -49 q 406 -19 468 -40 q 342 3 344 1 q 167 44 219 44 q 100 -18 100 44 q 88 -25 100 -25 q 66 -14 76 -25 q 56 21 56 -3 q 147 93 56 93 q 304 58 199 93 q 386 208 331 92 q 472 417 442 324 l 386 415 q 321 422 326 415 q 315 433 315 428 q 368 458 315 458 z "},"":{"ha":665,"x_min":68,"x_max":607,"o":"m 575 622 l 607 610 q 585 590 604 607 q 492 507 535 547 q 532 423 532 478 q 501 326 532 368 q 421 260 471 283 q 508 126 488 150 l 463 126 q 396 249 457 144 q 307 235 356 235 q 226 250 258 235 l 113 125 l 68 125 l 210 258 q 161 349 161 289 q 254 500 161 444 l 181 613 l 221 625 q 275 511 226 600 q 384 535 329 535 q 475 518 439 535 q 575 622 535 576 m 333 275 q 363 275 333 275 q 436 315 393 275 q 479 403 479 354 q 379 500 479 500 q 261 463 307 500 q 215 378 215 426 q 244 302 215 329 q 333 275 272 275 z "},"":{"ha":722,"x_min":-11,"x_max":706,"o":"m 57 379 l 117 369 q 201 367 143 369 q 200 383 201 379 q 51 811 132 561 q 42 865 42 839 q 104 908 42 908 q 142 903 121 908 q 163 889 163 897 q 156 876 163 881 q 147 869 150 872 q 129 831 129 865 q 257 429 129 736 q 502 676 397 549 q 622 865 607 804 q 674 926 636 926 q 706 894 706 926 q 560 685 706 863 q 274 394 474 581 q 264 364 265 369 q 436 368 353 364 q 471 360 471 368 q 254 322 471 336 q 239 242 244 274 q 315 243 288 242 l 333 244 q 416 246 385 246 q 447 238 447 246 q 232 200 447 214 q 224 138 228 178 q 216 79 219 97 q 203 39 213 61 q 117 0 183 0 q 93 14 93 0 l 93 17 q 169 196 143 107 q 83 193 111 193 q 40 194 54 193 l 26 193 q -1 203 8 193 q -11 224 -11 213 q 4 247 -11 236 q 33 257 19 257 l 93 247 q 183 244 119 247 q 197 318 194 290 q 108 315 139 315 q 64 317 78 315 l 50 315 q 22 325 32 315 q 13 347 13 335 q 28 369 13 358 q 57 379 43 379 z "},"":{"ha":304,"x_min":139,"x_max":219,"o":"m 213 447 l 151 450 l 151 617 q 146 800 151 751 q 140 856 140 849 q 164 869 140 869 q 219 742 219 869 q 213 447 219 615 m 153 86 l 151 385 l 210 386 q 174 -89 192 -18 q 151 -126 164 -126 q 139 -110 139 -126 q 146 -36 139 -93 q 153 86 153 21 z "},"":{"ha":869,"x_min":-19,"x_max":818,"o":"m 317 669 q 376 547 325 593 q 492 476 426 500 q 622 428 557 451 q 774 286 774 375 q 706 136 774 211 q 539 21 639 61 q 567 -46 567 -10 q 434 -253 567 -158 q 141 -347 301 -347 q -19 -249 -19 -347 l -19 -239 q 18 -189 -19 -189 q 27 -197 25 -189 q 33 -219 29 -204 q 43 -244 36 -233 q 97 -291 63 -279 q 189 -303 131 -303 q 393 -240 294 -303 q 492 -87 492 -178 q 336 56 492 -1 q 207 108 272 81 q 97 183 142 135 q 51 306 51 232 q 113 450 51 379 q 272 563 174 521 q 258 631 258 592 q 387 842 258 750 q 678 935 515 935 q 818 796 818 935 q 807 754 818 779 q 779 729 796 729 q 769 747 769 729 l 769 776 q 635 883 769 883 q 507 860 578 883 q 376 785 436 838 q 317 669 317 733 m 110 339 q 164 221 118 268 q 331 131 203 179 q 424 94 378 113 q 513 46 469 76 q 644 126 589 72 q 699 238 699 181 q 650 331 699 294 q 539 388 601 368 q 403 444 476 407 q 293 528 331 481 q 163 449 215 499 q 110 339 110 400 z "},"":{"ha":549,"x_min":146,"x_max":401,"o":"m 401 803 q 393 758 401 789 q 385 726 385 728 q 347 697 385 707 q 322 728 322 697 q 346 783 322 760 q 393 807 369 807 q 401 803 400 807 m 224 803 q 215 758 224 789 q 207 726 207 728 q 169 697 207 707 q 146 728 146 697 q 169 783 146 760 q 217 807 193 807 q 224 803 222 807 z "},"":{"ha":1110,"x_min":68,"x_max":1057,"o":"m 450 -11 q 165 89 263 -11 q 68 342 68 189 q 108 536 68 439 q 220 714 149 633 q 404 845 292 794 q 649 896 517 896 q 954 798 851 896 q 1057 550 1057 700 q 1013 354 1057 453 q 893 174 969 256 q 700 40 817 92 q 450 -11 583 -11 m 988 565 q 906 786 988 700 q 666 872 824 872 q 382 784 508 872 q 188 569 256 696 q 121 315 121 443 q 206 101 121 186 q 461 17 290 17 q 676 68 575 17 q 843 199 776 119 q 949 376 910 279 q 988 565 988 472 m 776 264 q 815 300 801 285 q 833 315 828 315 q 838 307 838 315 q 776 217 838 258 q 635 153 714 175 q 489 132 556 132 q 305 197 367 132 q 243 363 243 263 q 358 635 243 510 q 651 761 474 761 q 775 719 744 761 q 781 742 779 728 q 796 768 786 768 q 807 758 807 768 q 804 738 807 749 q 797 713 801 726 q 790 693 792 700 q 799 639 799 674 q 774 592 794 592 q 747 614 747 592 q 764 685 747 632 q 638 732 735 732 q 462 676 542 732 q 342 539 382 619 q 301 372 301 458 q 354 227 301 286 q 510 168 407 168 q 776 264 665 168 z "},"":{"ha":457,"x_min":8,"x_max":475,"o":"m 461 514 q 434 489 444 497 q 410 469 424 481 q 388 450 397 457 q 364 433 378 443 q 339 419 350 424 q 297 406 311 406 q 263 440 268 406 q 308 656 263 499 q 42 399 122 399 q 8 456 8 399 q 47 622 8 513 q 140 819 85 731 q 238 907 196 907 l 242 907 l 257 918 q 293 932 269 932 q 354 921 317 932 q 397 910 392 910 q 410 921 401 910 q 432 932 419 932 q 467 901 467 932 q 453 849 467 881 q 438 815 439 818 q 424 806 436 811 q 411 796 413 800 q 357 612 381 710 q 333 485 333 514 q 353 457 333 457 q 401 481 372 457 q 450 528 429 504 q 473 551 471 551 q 475 538 475 551 q 461 514 475 525 m 369 883 l 307 889 q 265 883 288 889 q 151 719 231 874 q 72 488 72 564 q 86 464 72 464 q 190 549 115 464 q 293 679 264 633 q 351 790 322 725 q 381 869 381 854 q 374 883 381 883 l 369 883 z "},"":{"ha":583,"x_min":118,"x_max":513,"o":"m 478 599 q 501 614 489 614 q 513 605 513 614 q 456 510 513 596 q 375 393 399 425 q 511 207 511 233 q 496 189 511 189 l 485 194 q 423 265 453 240 q 361 313 393 289 q 321 344 329 338 q 313 356 313 351 q 381 469 313 371 q 478 599 450 567 m 118 356 q 185 466 118 371 q 272 588 251 561 q 306 614 293 614 q 318 605 318 614 q 261 510 318 596 q 181 393 204 425 q 315 207 315 225 q 301 189 315 189 l 290 194 q 229 263 260 239 q 167 313 199 288 q 118 356 118 349 z "},"":{"ha":828,"x_min":42,"x_max":794,"o":"m 794 301 l 778 228 q 774 212 776 225 q 769 183 772 199 q 763 147 767 167 q 754 110 758 128 q 746 76 750 92 q 731 43 736 43 q 717 57 718 43 q 733 274 721 124 l 64 244 q 42 256 43 244 q 51 275 40 268 l 715 314 q 729 314 721 314 q 794 303 794 314 l 794 301 z "},"":{"ha":401,"x_min":32,"x_max":360,"o":"m 103 218 q 224 213 175 213 q 335 217 272 213 q 360 208 360 217 q 265 181 360 194 q 93 168 171 168 l 65 169 l 53 168 q 32 186 32 168 q 100 240 32 225 q 110 233 110 240 q 103 218 110 225 z "},"":{"ha":886,"x_min":175,"x_max":654,"o":"m 361 440 q 222 489 269 440 q 175 611 175 538 q 253 797 175 713 q 457 881 332 881 q 604 833 554 881 q 654 713 654 785 q 571 526 654 613 q 361 440 488 440 m 494 510 l 507 511 q 514 510 513 511 q 590 606 563 549 q 618 724 618 664 q 578 826 618 785 q 461 867 539 867 q 278 781 354 867 q 203 600 203 694 q 244 496 203 536 q 363 456 285 456 q 503 500 440 456 q 476 499 497 499 q 414 535 454 500 q 347 613 374 571 l 336 631 q 328 586 333 621 q 300 510 314 510 q 286 515 286 510 q 301 583 286 540 q 321 644 315 626 q 311 660 311 657 q 325 667 311 663 q 369 790 339 714 q 413 844 376 844 q 422 842 422 844 q 410 815 422 840 q 529 786 507 815 q 538 760 538 776 q 485 673 538 700 q 369 646 433 646 q 356 642 356 646 q 360 634 356 639 q 383 607 365 629 q 412 572 401 585 q 439 543 422 560 q 494 510 472 510 m 511 758 q 494 786 511 775 q 457 800 476 797 q 404 804 438 803 l 403 804 q 346 661 376 764 q 386 658 354 658 q 456 678 418 658 q 511 758 511 706 z "},"":{"ha":317,"x_min":31,"x_max":303,"o":"m 303 597 q 289 587 303 590 q 267 583 275 583 l 65 583 q 31 592 31 583 q 66 613 31 604 q 143 622 101 622 q 244 615 185 622 q 303 597 303 607 z "},"":{"ha":393,"x_min":90,"x_max":329,"o":"m 294 648 q 311 630 294 648 q 329 564 329 613 q 294 480 329 515 q 210 444 258 444 q 126 480 161 444 q 90 564 90 515 q 126 648 90 613 q 210 683 161 683 q 294 648 258 683 m 272 501 q 285 515 272 501 q 299 564 299 528 q 272 626 299 600 q 210 653 246 653 q 147 626 174 653 q 121 564 121 600 q 147 501 121 528 q 210 475 174 475 q 272 501 246 475 z "},"":{"ha":526,"x_min":101,"x_max":554,"o":"m 360 393 l 482 396 q 543 392 531 396 q 554 381 554 385 q 520 367 554 371 q 431 361 486 364 q 347 354 375 358 q 291 199 326 274 q 249 125 256 125 q 242 150 242 125 q 247 183 242 175 q 296 357 300 346 q 167 354 296 354 l 136 356 q 130 358 132 356 q 128 362 128 360 q 129 370 129 364 q 141 386 129 376 q 169 397 153 396 l 307 394 q 344 510 324 460 q 377 572 365 560 q 400 585 389 585 q 413 576 411 585 q 360 393 413 529 m 149 69 l 307 67 q 378 69 361 67 l 378 71 l 389 71 q 412 69 393 71 q 431 64 431 67 q 326 40 431 54 q 178 25 222 25 q 125 26 133 25 l 115 25 q 101 44 101 25 q 117 76 101 64 q 142 88 132 88 q 151 81 151 88 q 149 69 151 75 z "},"":{"ha":760,"x_min":40,"x_max":676,"o":"m 594 935 q 635 935 594 935 q 676 869 676 935 q 601 726 676 804 q 443 592 526 647 q 222 468 360 536 q 352 436 263 464 q 492 408 442 408 q 569 424 543 408 q 596 461 596 439 q 544 508 596 492 q 539 515 539 510 q 549 521 539 521 q 603 498 583 521 q 624 457 624 475 q 585 399 624 421 q 491 376 546 376 q 339 415 436 376 q 190 454 242 453 q 132 419 178 450 q 63 389 86 389 q 40 403 40 389 q 88 455 40 432 q 193 478 136 478 l 200 478 q 444 627 385 581 q 529 698 504 674 q 578 763 554 722 q 603 844 603 804 q 545 892 603 892 q 404 858 488 892 q 269 775 321 824 q 260 771 267 771 q 253 779 253 771 q 258 792 253 788 q 421 894 329 853 q 594 935 513 935 z "},"":{"ha":844,"x_min":3,"x_max":603,"o":"m 444 738 q 578 632 578 725 q 453 455 578 525 q 197 385 329 385 q 56 413 110 385 q 3 503 3 442 q 64 603 3 564 q 197 642 125 642 q 207 633 207 642 q 194 625 207 625 q 101 590 146 625 q 56 505 56 554 q 95 431 56 456 q 200 407 135 407 q 426 467 324 407 q 528 629 528 528 q 492 692 528 672 q 419 713 457 713 q 344 704 382 713 q 299 696 307 696 q 282 713 282 696 q 289 730 282 722 q 307 738 296 738 q 503 792 428 738 q 546 867 546 822 q 489 907 546 907 q 389 884 449 907 q 308 847 329 861 q 283 833 288 833 q 278 851 278 833 q 294 875 278 869 q 317 892 300 878 q 367 928 363 928 q 372 923 372 928 q 361 903 372 918 q 528 942 454 942 q 603 879 603 942 q 549 791 603 835 q 444 738 496 747 z "},"":{"ha":493,"x_min":144,"x_max":392,"o":"m 383 899 q 388 893 383 899 q 392 874 392 888 q 379 852 392 860 q 260 792 367 844 q 149 739 154 739 q 144 743 144 739 q 208 806 144 756 q 363 911 342 911 q 383 899 375 911 z "},"":{"ha":463,"x_min":-35,"x_max":499,"o":"m 132 351 l 126 375 q 140 428 126 376 q 174 508 153 479 q 243 536 194 536 q 267 524 263 536 q 100 94 100 114 q 105 89 100 89 q 138 111 110 89 q 382 411 276 218 q 408 500 383 454 q 482 546 433 546 q 499 533 497 546 q 468 450 494 521 q 408 285 442 379 q 350 43 374 183 q 283 -33 338 -33 q 265 -18 265 -33 q 269 -7 265 -14 q 364 325 288 26 q 204 124 300 233 q 44 -10 108 14 q 14 -196 14 -96 q 88 -318 14 -317 q 113 -331 113 -319 q 76 -347 113 -347 q -35 -192 -35 -347 q -8 -26 -35 -112 q 49 129 18 60 q 97 244 79 199 q 132 351 132 325 z "},"":{"ha":575,"x_min":104,"x_max":447,"o":"m 365 832 l 346 835 q 340 703 340 835 q 328 -28 328 282 l 328 -65 q 313 -81 328 -69 q 287 -92 297 -92 q 276 -78 276 -92 q 290 193 276 -19 q 303 543 303 406 q 238 529 269 529 q 140 581 175 529 q 104 707 104 632 q 147 840 104 782 q 268 899 190 899 q 340 879 304 899 q 376 842 376 860 q 365 832 376 832 m 396 701 l 393 922 q 406 960 393 960 q 431 939 414 960 q 447 899 447 918 l 442 878 q 424 -28 424 486 l 424 -65 q 408 -81 424 -69 q 383 -92 393 -92 q 372 -74 372 -92 q 378 42 372 -57 q 390 363 385 140 q 396 701 396 586 z "},"":{"ha":379,"x_min":149,"x_max":242,"o":"m 242 492 q 232 440 242 475 q 222 401 222 404 q 178 367 222 376 q 149 403 149 367 q 177 468 149 440 q 233 496 206 496 q 242 492 239 496 z "},"":{"ha":311,"x_min":21,"x_max":240,"o":"m 160 -94 q 200 -162 160 -111 q 240 -255 240 -212 q 204 -331 240 -297 q 33 -389 139 -389 q 21 -374 21 -389 q 101 -353 21 -354 q 157 -331 132 -351 q 182 -267 182 -310 q 146 -197 182 -247 q 110 -108 110 -146 q 136 -34 110 -71 q 207 3 163 3 q 224 -7 222 3 q 177 -38 194 -12 q 160 -94 160 -64 z "},"":{"ha":615,"x_min":38,"x_max":464,"o":"m 176 454 q 304 464 235 464 q 313 453 313 464 q 297 442 313 442 q 264 440 282 442 q 226 434 246 439 q 192 426 206 429 q 156 414 179 422 q 122 403 132 406 l 86 389 q 50 374 54 375 q 38 398 38 374 q 135 446 38 422 q 244 645 161 490 q 356 851 328 800 q 232 793 297 817 q 226 792 231 792 q 218 801 218 792 q 226 813 218 811 q 394 919 290 839 l 400 929 q 436 944 408 944 q 464 932 464 944 q 463 925 464 926 l 176 454 z "},"":{"ha":363,"x_min":29,"x_max":421,"o":"m 394 788 q 421 772 421 783 q 400 751 421 761 q 363 740 379 740 q 278 463 363 578 q 110 347 193 347 q 29 464 29 347 q 107 744 29 567 q 178 858 136 811 q 264 904 221 904 l 274 904 q 285 938 274 924 q 315 951 296 951 q 350 870 335 950 q 394 788 365 790 m 324 751 q 293 801 311 758 q 268 843 275 843 q 168 716 225 843 q 101 536 111 589 q 92 457 92 483 q 131 389 92 389 q 255 502 186 389 q 324 751 324 615 z "},"":{"ha":583,"x_min":118,"x_max":535,"o":"m 535 438 q 466 324 535 422 q 377 203 397 226 q 346 179 357 179 q 335 188 335 179 q 391 281 335 197 q 472 400 447 365 q 336 586 336 560 q 351 604 336 604 l 363 599 q 531 446 403 542 q 535 438 535 442 m 318 438 q 249 324 318 422 q 160 203 181 226 q 129 179 140 179 q 118 188 118 179 q 174 281 118 197 q 256 400 231 365 q 119 586 119 560 q 135 604 119 604 l 146 599 q 314 446 186 542 q 318 438 318 442 z "},"":{"ha":1296,"x_min":38,"x_max":1217,"o":"m 1168 290 l 1165 311 q 1174 318 1165 318 q 1194 297 1186 318 q 1203 264 1203 275 q 1094 210 1203 210 q 979 226 1051 210 q 958 192 975 219 q 928 144 940 164 q 894 58 894 86 l 894 56 q 1001 63 953 63 q 1010 51 1010 63 q 995 40 1010 40 q 963 38 981 40 q 933 35 946 36 q 900 27 921 33 q 872 19 879 21 q 839 8 864 17 q 779 -17 814 -1 l 750 -28 l 747 -28 q 735 -4 735 -28 q 777 26 735 10 q 853 49 819 43 l 871 51 l 871 61 q 947 235 871 111 q 829 253 883 253 q 671 214 775 253 l 664 214 q 646 238 646 214 q 688 271 646 263 q 714 276 694 272 q 1171 558 1104 469 q 1186 564 1179 564 q 1217 549 1217 564 q 1157 469 1217 546 q 993 251 1042 324 q 1088 231 1051 231 q 1146 246 1124 231 q 1168 290 1168 261 m 176 454 q 304 464 235 464 q 313 453 313 464 q 297 442 313 442 q 264 440 282 442 q 226 434 246 439 q 192 426 206 429 q 156 414 179 422 q 122 403 132 406 l 86 389 q 50 374 54 375 q 38 398 38 374 q 135 446 38 422 q 244 645 161 490 q 356 851 328 800 q 232 793 297 817 q 226 792 231 792 q 218 801 218 792 q 226 813 218 811 q 394 919 290 839 l 400 929 q 436 944 408 944 q 464 932 464 944 q 463 925 464 926 l 176 454 m 338 206 q 350 188 338 199 q 327 178 350 178 q 304 199 304 178 q 433 374 304 247 q 693 603 563 500 q 835 707 824 707 q 856 703 847 707 l 860 694 q 851 683 860 689 q 519 406 700 569 q 338 206 338 243 m 778 285 q 852 288 822 288 q 960 263 882 288 q 1009 338 965 271 q 1083 443 1053 406 l 1104 469 q 778 285 988 392 z "},"":{"ha":1410,"x_min":38,"x_max":1314,"o":"m 1232 540 q 1273 540 1232 540 q 1314 475 1314 540 q 1239 331 1314 410 q 1081 197 1164 253 q 860 74 997 142 q 990 42 900 69 q 1130 14 1079 14 q 1207 29 1181 14 q 1233 67 1233 44 q 1182 114 1233 97 q 1176 121 1176 115 q 1186 126 1176 126 q 1241 103 1221 126 q 1261 63 1261 81 q 1222 4 1261 26 q 1128 -18 1183 -18 q 976 20 1074 -18 q 828 60 879 58 q 769 25 815 56 q 701 -6 724 -6 q 678 8 678 -6 q 726 60 678 38 q 831 83 774 83 l 838 83 q 1082 233 1022 186 q 1167 303 1142 279 q 1216 369 1192 328 q 1240 450 1240 410 q 1183 497 1240 497 q 1042 463 1125 497 q 907 381 958 429 q 897 376 904 376 q 890 385 890 376 q 896 397 890 393 q 1058 499 967 458 q 1232 540 1150 540 m 176 454 q 304 464 235 464 q 313 453 313 464 q 297 442 313 442 q 264 440 282 442 q 226 434 246 439 q 192 426 206 429 q 156 414 179 422 q 122 403 132 406 l 86 389 q 50 374 54 375 q 38 398 38 374 q 135 446 38 422 q 244 645 161 490 q 356 851 328 800 q 232 793 297 817 q 226 792 231 792 q 218 801 218 792 q 226 813 218 811 q 394 919 290 839 l 400 929 q 436 944 408 944 q 464 932 464 944 q 463 925 464 926 l 176 454 m 479 206 q 492 188 479 199 q 469 178 492 178 q 446 199 446 178 q 575 374 446 247 q 835 603 704 500 q 977 707 965 707 q 997 703 989 707 l 1001 694 q 993 683 1001 689 q 660 406 842 569 q 479 206 479 243 z "},"":{"ha":1429,"x_min":3,"x_max":1356,"o":"m 1307 290 l 1304 311 q 1313 318 1304 318 q 1333 297 1325 318 q 1342 264 1342 275 q 1233 210 1342 210 q 1118 226 1190 210 q 1097 192 1114 219 q 1067 144 1079 164 q 1033 58 1033 86 l 1033 56 q 1140 63 1092 63 q 1149 51 1149 63 q 1134 40 1149 40 q 1102 38 1119 40 q 1072 35 1085 36 q 1039 27 1060 33 q 1010 19 1018 21 q 978 8 1003 17 q 918 -17 953 -1 l 889 -28 l 886 -28 q 874 -4 874 -28 q 916 26 874 10 q 992 49 958 43 l 1010 51 l 1010 61 q 1086 235 1010 111 q 968 253 1022 253 q 810 214 914 253 l 803 214 q 785 238 785 214 q 826 271 785 263 q 853 276 833 272 q 1310 558 1243 469 q 1325 564 1318 564 q 1356 549 1356 564 q 1296 469 1356 546 q 1132 251 1181 324 q 1226 231 1190 231 q 1285 246 1263 231 q 1307 290 1307 261 m 444 738 q 578 632 578 725 q 453 455 578 525 q 197 385 329 385 q 56 413 110 385 q 3 503 3 442 q 64 603 3 564 q 197 642 125 642 q 207 633 207 642 q 194 625 207 625 q 101 590 146 625 q 56 505 56 554 q 95 431 56 456 q 200 407 135 407 q 426 467 324 407 q 528 629 528 528 q 492 692 528 672 q 419 713 457 713 q 344 704 382 713 q 299 696 307 696 q 282 713 282 696 q 289 730 282 722 q 307 738 296 738 q 503 792 428 738 q 546 867 546 822 q 489 907 546 907 q 389 884 449 907 q 308 847 329 861 q 283 833 288 833 q 278 851 278 833 q 294 875 278 869 q 317 892 300 878 q 367 928 363 928 q 372 923 372 928 q 361 903 372 918 q 528 942 454 942 q 603 879 603 942 q 549 791 603 835 q 444 738 496 747 m 515 206 q 528 188 515 199 q 505 178 528 178 q 482 199 482 178 q 611 374 482 247 q 871 603 740 500 q 1013 707 1001 707 q 1033 703 1025 707 l 1038 694 q 1029 683 1038 689 q 697 406 878 569 q 515 206 515 243 m 917 285 q 991 288 961 288 q 1099 263 1021 288 q 1148 338 1104 271 q 1222 443 1192 406 l 1243 469 q 917 285 1126 392 z "},"":{"ha":644,"x_min":-96,"x_max":539,"o":"m 478 -174 q 311 -297 424 -247 q 104 -347 199 -347 q -96 -200 -96 -347 q -33 -66 -96 -137 q 93 49 31 6 q 234 143 156 93 q 318 197 313 193 q 367 241 350 217 q 400 305 385 265 q 418 349 415 344 l 419 349 q 435 358 426 358 q 452 346 444 358 q 460 314 460 333 q 433 239 460 271 q 332 159 407 207 q 185 65 257 111 q 53 -50 113 19 q -6 -189 -6 -119 q 31 -265 -6 -236 q 144 -293 68 -293 q 345 -240 257 -293 q 433 -106 433 -187 q 422 -51 433 -67 q 400 -33 411 -35 q 389 -26 389 -31 q 420 -4 389 -4 q 478 -33 451 -4 q 504 -99 504 -61 q 478 -174 504 -137 m 539 550 q 506 503 539 526 q 462 479 472 479 q 451 482 451 479 q 479 588 468 572 q 517 604 490 604 q 539 551 539 604 l 539 550 z "},"":{"ha":860,"x_min":56,"x_max":801,"o":"m 199 375 l 129 374 q 115 383 115 374 q 127 405 115 393 q 153 417 139 417 l 222 417 q 564 854 353 628 q 556 878 556 865 q 571 905 556 892 q 617 918 586 918 q 647 890 647 918 q 643 871 647 881 q 704 667 668 807 q 754 418 740 528 q 800 403 800 417 l 758 381 q 768 306 758 374 q 801 32 801 93 q 781 6 801 18 q 744 -6 761 -6 q 726 6 726 -6 l 726 22 q 715 206 726 75 q 699 379 704 338 q 254 375 274 375 q 110 6 131 149 q 83 -10 108 -10 q 57 -6 58 -10 q 56 0 56 -3 l 58 22 q 199 375 86 178 m 694 417 q 596 829 668 619 q 417 624 508 739 q 274 414 325 508 l 694 417 m 713 993 q 708 989 713 989 q 598 1042 704 989 q 479 1101 492 1094 q 467 1123 467 1108 q 475 1149 467 1138 q 492 1161 483 1161 q 510 1157 501 1161 q 649 1056 586 1106 q 713 993 713 1006 z "},"":{"ha":860,"x_min":56,"x_max":801,"o":"m 199 375 l 129 374 q 115 383 115 374 q 127 405 115 393 q 153 417 139 417 l 222 417 q 564 854 353 628 q 556 878 556 865 q 571 905 556 892 q 617 918 586 918 q 647 890 647 918 q 643 871 647 881 q 704 667 668 807 q 754 418 740 528 q 800 403 800 417 l 758 381 q 768 306 758 374 q 801 32 801 93 q 781 6 801 18 q 744 -6 761 -6 q 726 6 726 -6 l 726 22 q 715 206 726 75 q 699 379 704 338 q 254 375 274 375 q 110 6 131 149 q 83 -10 108 -10 q 57 -6 58 -10 q 56 0 56 -3 l 58 22 q 199 375 86 178 m 694 417 q 596 829 668 619 q 417 624 508 739 q 274 414 325 508 l 694 417 m 764 1148 q 768 1142 764 1148 q 772 1122 772 1136 q 760 1101 772 1108 q 641 1040 747 1093 q 530 988 535 988 q 525 992 525 988 q 588 1054 525 1004 q 729 1156 651 1104 q 746 1160 736 1160 q 764 1148 756 1160 z "},"":{"ha":860,"x_min":56,"x_max":801,"o":"m 199 375 l 129 374 q 115 383 115 374 q 127 405 115 393 q 153 417 139 417 l 222 417 q 564 854 353 628 q 556 878 556 865 q 571 905 556 892 q 617 918 586 918 q 647 890 647 918 q 643 871 647 881 q 704 667 668 807 q 754 418 740 528 q 800 403 800 417 l 758 381 q 768 306 758 374 q 801 32 801 93 q 781 6 801 18 q 744 -6 761 -6 q 726 6 726 -6 l 726 22 q 715 206 726 75 q 699 379 704 338 q 254 375 274 375 q 110 6 131 149 q 83 -10 108 -10 q 57 -6 58 -10 q 56 0 56 -3 l 58 22 q 199 375 86 178 m 694 417 q 596 829 668 619 q 417 624 508 739 q 274 414 325 508 l 694 417 m 654 1143 q 701 1077 661 1140 q 749 1001 742 1014 q 756 978 756 988 q 749 969 756 969 q 697 1020 743 969 q 636 1092 650 1071 q 547 1020 613 1071 q 478 969 482 969 q 475 974 475 969 q 485 991 475 979 q 568 1072 494 1003 q 654 1143 642 1140 z "},"":{"ha":860,"x_min":56,"x_max":801,"o":"m 199 375 l 129 374 q 115 383 115 374 q 127 405 115 393 q 153 417 139 417 l 222 417 q 564 854 353 628 q 556 878 556 865 q 571 905 556 892 q 617 918 586 918 q 647 890 647 918 q 643 871 647 881 q 704 667 668 807 q 754 418 740 528 q 800 403 800 417 l 758 381 q 768 306 758 374 q 801 32 801 93 q 781 6 801 18 q 744 -6 761 -6 q 726 6 726 -6 l 726 22 q 715 206 726 75 q 699 379 704 338 q 254 375 274 375 q 110 6 131 149 q 83 -10 108 -10 q 57 -6 58 -10 q 56 0 56 -3 l 58 22 q 199 375 86 178 m 694 417 q 596 829 668 619 q 417 624 508 739 q 274 414 325 508 l 694 417 m 778 1097 q 739 1049 778 1071 q 680 1028 700 1028 q 615 1047 660 1028 q 547 1065 571 1065 q 501 1047 524 1065 q 474 1029 478 1029 q 469 1035 469 1029 q 492 1062 469 1042 q 533 1092 515 1082 q 577 1103 551 1103 q 646 1088 603 1103 q 717 1074 689 1074 q 769 1103 744 1074 q 778 1097 778 1103 z "},"":{"ha":860,"x_min":56,"x_max":801,"o":"m 199 375 l 129 374 q 115 383 115 374 q 127 405 115 393 q 153 417 139 417 l 222 417 q 564 854 353 628 q 556 878 556 865 q 571 905 556 892 q 617 918 586 918 q 647 890 647 918 q 643 871 647 881 q 704 667 668 807 q 754 418 740 528 q 800 403 800 417 l 758 381 q 768 306 758 374 q 801 32 801 93 q 781 6 801 18 q 744 -6 761 -6 q 726 6 726 -6 l 726 22 q 715 206 726 75 q 699 379 704 338 q 254 375 274 375 q 110 6 131 149 q 83 -10 108 -10 q 57 -6 58 -10 q 56 0 56 -3 l 58 22 q 199 375 86 178 m 694 417 q 596 829 668 619 q 417 624 508 739 q 274 414 325 508 l 694 417 m 757 1153 q 749 1108 757 1139 q 740 1076 740 1078 q 703 1047 740 1057 q 678 1078 678 1047 q 701 1133 678 1110 q 749 1157 725 1157 q 757 1153 756 1157 m 579 1153 q 571 1108 579 1139 q 563 1076 563 1078 q 525 1047 563 1057 q 501 1078 501 1047 q 525 1133 501 1110 q 572 1157 549 1157 q 579 1153 578 1157 z "},"":{"ha":860,"x_min":56,"x_max":801,"o":"m 199 375 l 129 374 q 115 383 115 374 q 127 405 115 393 q 153 417 139 417 l 222 417 q 564 854 353 628 q 556 878 556 863 q 572 906 556 894 q 540 962 540 917 q 581 1053 540 1007 q 665 1100 622 1100 q 708 1080 692 1100 q 725 1026 725 1060 q 700 959 725 993 q 639 910 675 925 q 646 891 646 900 q 643 871 646 882 q 704 667 668 807 q 754 418 740 528 q 800 403 800 417 l 758 381 q 768 306 758 374 q 801 32 801 93 q 781 6 801 18 q 744 -6 761 -6 q 726 6 726 -6 l 726 22 q 715 206 726 75 q 699 379 704 338 q 254 375 274 375 q 110 6 131 149 q 83 -10 108 -10 q 57 -6 58 -10 q 56 0 56 -3 l 58 22 q 199 375 86 178 m 694 417 q 596 829 668 619 q 417 624 508 739 q 274 414 325 508 l 694 417 m 613 928 q 672 960 647 928 q 697 1035 697 992 q 661 1079 697 1079 q 603 1044 635 1079 q 572 969 572 1010 q 613 928 572 928 z "},"":{"ha":1333,"x_min":25,"x_max":1329,"o":"m 774 43 l 1157 42 q 1317 64 1246 42 l 1318 64 q 1324 49 1324 64 q 1313 17 1324 33 q 1282 0 1301 0 l 719 -1 q 696 15 696 -1 l 700 51 q 738 379 724 288 q 325 375 738 379 q 79 6 139 149 q 50 -10 75 -10 q 25 -6 25 -10 q 35 22 25 1 q 269 375 103 176 l 200 374 q 189 381 189 374 q 204 403 189 390 q 235 417 219 417 l 304 417 q 756 868 574 717 l 738 868 q 707 879 707 868 q 746 897 707 894 q 773 900 754 899 q 803 903 792 901 q 835 926 815 904 q 883 949 856 949 q 911 928 911 949 l 899 903 l 922 903 l 1071 901 l 1308 903 q 1329 882 1329 903 q 1315 844 1329 867 q 1290 821 1300 821 q 1267 838 1281 821 q 1235 858 1254 856 q 1121 860 1215 860 l 1056 858 q 885 861 1049 858 q 844 657 875 833 q 808 419 814 481 q 1182 424 1086 419 q 1190 415 1190 424 q 1176 393 1190 406 q 1138 376 1163 381 l 801 376 q 783 233 794 350 q 772 82 772 117 q 774 43 772 47 m 824 869 q 602 679 757 832 q 358 417 447 526 l 742 417 q 824 869 779 696 z "},"":{"ha":950,"x_min":82,"x_max":904,"o":"m 514 -225 q 448 -315 514 -283 q 311 -347 382 -347 q 299 -333 299 -347 q 378 -314 299 -315 q 432 -294 407 -312 q 457 -237 457 -276 q 422 -176 457 -221 q 386 -106 386 -131 q 421 -18 386 -49 q 169 104 256 -1 q 82 381 82 210 q 224 759 82 604 q 610 914 365 914 q 854 744 854 914 q 838 681 854 703 q 799 658 822 658 q 769 685 769 658 q 783 729 769 701 q 797 768 797 757 q 740 848 797 817 q 614 879 682 879 q 278 728 407 879 q 150 376 150 578 q 233 116 150 222 q 471 10 315 10 q 623 33 551 10 q 741 88 694 56 q 822 153 788 121 q 874 209 856 186 q 899 232 893 232 q 904 211 904 232 q 829 84 904 140 q 660 3 754 28 q 483 -22 565 -22 l 463 -22 q 435 -85 435 -46 q 474 -145 435 -100 q 514 -225 514 -190 z "},"":{"ha":801,"x_min":76,"x_max":736,"o":"m 478 881 l 715 882 q 736 861 736 882 q 722 823 736 846 q 697 800 707 800 q 674 817 688 800 q 642 837 661 835 q 528 839 622 839 l 463 838 q 292 840 456 838 q 217 460 244 679 q 614 464 531 460 q 622 455 622 464 q 608 433 622 446 q 569 417 594 421 l 211 417 q 194 172 194 257 q 201 43 194 88 l 563 42 q 722 64 651 42 l 724 64 q 729 49 729 64 q 718 17 729 33 q 688 0 707 0 l 494 -1 q 76 7 76 -1 q 93 35 76 18 q 125 54 110 51 q 124 133 124 64 q 149 417 124 201 l 131 417 q 117 426 117 417 q 128 447 117 436 q 153 460 139 458 q 218 847 185 724 l 144 847 q 114 858 114 849 q 132 873 114 865 q 172 881 150 881 l 226 881 q 254 944 235 926 q 303 961 274 961 q 332 948 332 961 q 306 882 332 935 l 388 881 l 478 881 m 594 1013 q 590 1008 594 1008 q 480 1061 586 1008 q 361 1121 374 1114 q 349 1142 349 1128 q 357 1169 349 1157 q 374 1181 365 1181 q 392 1176 383 1181 q 531 1075 468 1125 q 594 1013 594 1025 z "},"":{"ha":801,"x_min":76,"x_max":736,"o":"m 478 881 l 715 882 q 736 861 736 882 q 722 823 736 846 q 697 800 707 800 q 674 817 688 800 q 642 837 661 835 q 528 839 622 839 l 463 838 q 292 840 456 838 q 217 460 244 679 q 614 464 531 460 q 622 455 622 464 q 608 433 622 446 q 569 417 594 421 l 211 417 q 194 172 194 257 q 201 43 194 88 l 563 42 q 722 64 651 42 l 724 64 q 729 49 729 64 q 718 17 729 33 q 688 0 707 0 l 494 -1 q 76 7 76 -1 q 93 35 76 18 q 125 54 110 51 q 124 133 124 64 q 149 417 124 201 l 131 417 q 117 426 117 417 q 128 447 117 436 q 153 460 139 458 q 218 847 185 724 l 144 847 q 114 858 114 849 q 132 873 114 865 q 172 881 150 881 l 226 881 q 254 944 235 926 q 303 961 274 961 q 332 948 332 961 q 306 882 332 935 l 388 881 l 478 881 m 622 1159 q 626 1153 622 1159 q 631 1133 631 1147 q 618 1112 631 1119 q 499 1051 606 1104 q 388 999 393 999 q 383 1003 383 999 q 447 1065 383 1015 q 588 1167 510 1115 q 604 1171 594 1171 q 622 1159 614 1171 z "},"":{"ha":801,"x_min":76,"x_max":736,"o":"m 478 881 l 715 882 q 736 861 736 882 q 722 823 736 846 q 697 800 707 800 q 674 817 688 800 q 642 837 661 835 q 528 839 622 839 l 463 838 q 292 840 456 838 q 217 460 244 679 q 614 464 531 460 q 622 455 622 464 q 608 433 622 446 q 569 417 594 421 l 211 417 q 194 172 194 257 q 201 43 194 88 l 563 42 q 722 64 651 42 l 724 64 q 729 49 729 64 q 718 17 729 33 q 688 0 707 0 l 494 -1 q 76 7 76 -1 q 93 35 76 18 q 125 54 110 51 q 124 133 124 64 q 149 417 124 201 l 131 417 q 117 426 117 417 q 128 447 117 436 q 153 460 139 458 q 218 847 185 724 l 144 847 q 114 858 114 849 q 132 873 114 865 q 172 881 150 881 l 226 881 q 254 944 235 926 q 303 961 274 961 q 332 948 332 961 q 306 882 332 935 l 388 881 l 478 881 m 513 1143 q 560 1077 519 1140 q 607 1001 600 1014 q 614 978 614 988 q 608 969 614 969 q 555 1020 601 969 q 494 1092 508 1071 q 406 1020 471 1071 q 337 969 340 969 q 333 974 333 969 q 343 991 333 979 q 426 1072 353 1003 q 513 1143 500 1140 z "},"":{"ha":801,"x_min":76,"x_max":736,"o":"m 478 881 l 715 882 q 736 861 736 882 q 722 823 736 846 q 697 800 707 800 q 674 817 688 800 q 642 837 661 835 q 528 839 622 839 l 463 838 q 292 840 456 838 q 217 460 244 679 q 614 464 531 460 q 622 455 622 464 q 608 433 622 446 q 569 417 594 421 l 211 417 q 194 172 194 257 q 201 43 194 88 l 563 42 q 722 64 651 42 l 724 64 q 729 49 729 64 q 718 17 729 33 q 688 0 707 0 l 494 -1 q 76 7 76 -1 q 93 35 76 18 q 125 54 110 51 q 124 133 124 64 q 149 417 124 201 l 131 417 q 117 426 117 417 q 128 447 117 436 q 153 460 139 458 q 218 847 185 724 l 144 847 q 114 858 114 849 q 132 873 114 865 q 172 881 150 881 l 226 881 q 254 944 235 926 q 303 961 274 961 q 332 948 332 961 q 306 882 332 935 l 388 881 l 478 881 m 642 1153 q 633 1108 642 1139 q 625 1076 625 1078 q 588 1047 625 1057 q 563 1078 563 1047 q 586 1133 563 1110 q 633 1157 610 1157 q 642 1153 639 1157 m 464 1153 q 456 1108 464 1139 q 447 1076 447 1078 q 410 1047 447 1057 q 386 1078 386 1047 q 410 1133 386 1110 q 457 1157 433 1157 q 464 1153 461 1157 z "},"":{"ha":636,"x_min":64,"x_max":647,"o":"m 350 839 l 353 867 l 192 867 q 178 876 178 867 q 190 898 178 886 q 215 910 201 910 l 367 910 q 454 961 390 961 q 475 947 475 961 l 475 944 l 460 911 q 639 914 581 911 q 647 905 647 914 q 633 883 647 896 q 594 867 619 871 l 443 867 l 443 864 q 356 449 390 717 q 321 65 321 181 q 325 43 321 50 q 525 47 492 46 q 533 38 533 47 q 519 17 533 29 q 481 0 506 4 l 317 0 q 285 -11 303 -11 q 260 0 268 -11 l 78 0 q 64 10 64 0 q 76 31 64 19 q 101 43 88 43 l 256 43 q 350 797 304 561 l 350 839 m 543 1013 q 539 1008 543 1008 q 428 1061 535 1008 q 310 1121 322 1114 q 297 1142 297 1128 q 306 1169 297 1157 q 323 1181 314 1181 q 340 1176 332 1181 q 480 1075 417 1125 q 543 1013 543 1025 z "},"":{"ha":636,"x_min":64,"x_max":647,"o":"m 350 839 l 353 867 l 192 867 q 178 876 178 867 q 190 898 178 886 q 215 910 201 910 l 367 910 q 454 961 390 961 q 475 947 475 961 l 475 944 l 460 911 q 639 914 581 911 q 647 905 647 914 q 633 883 647 896 q 594 867 619 871 l 443 867 l 443 864 q 356 449 390 717 q 321 65 321 181 q 325 43 321 50 q 525 47 492 46 q 533 38 533 47 q 519 17 533 29 q 481 0 506 4 l 317 0 q 285 -11 303 -11 q 260 0 268 -11 l 78 0 q 64 10 64 0 q 76 31 64 19 q 101 43 88 43 l 256 43 q 350 797 304 561 l 350 839 m 574 1169 q 578 1163 574 1169 q 582 1143 582 1157 q 569 1122 582 1129 q 451 1061 557 1114 q 340 1008 344 1008 q 335 1013 335 1008 q 397 1075 335 1025 q 553 1181 532 1181 q 574 1169 565 1181 z "},"":{"ha":636,"x_min":64,"x_max":647,"o":"m 350 839 l 353 867 l 192 867 q 178 876 178 867 q 190 898 178 886 q 215 910 201 910 l 367 910 q 454 961 390 961 q 475 947 475 961 l 475 944 l 460 911 q 639 914 581 911 q 647 905 647 914 q 633 883 647 896 q 594 867 619 871 l 443 867 l 443 864 q 356 449 390 717 q 321 65 321 181 q 325 43 321 50 q 525 47 492 46 q 533 38 533 47 q 519 17 533 29 q 481 0 506 4 l 317 0 q 285 -11 303 -11 q 260 0 268 -11 l 78 0 q 64 10 64 0 q 76 31 64 19 q 101 43 88 43 l 256 43 q 350 797 304 561 l 350 839 m 463 1143 q 510 1077 469 1140 q 557 1001 550 1014 q 564 978 564 988 q 558 969 564 969 q 505 1020 551 969 q 444 1092 458 1071 q 356 1020 421 1071 q 287 969 290 969 q 283 974 283 969 q 293 991 283 979 q 376 1072 303 1003 q 463 1143 450 1140 z "},"":{"ha":636,"x_min":64,"x_max":647,"o":"m 350 839 l 353 867 l 192 867 q 178 876 178 867 q 190 898 178 886 q 215 910 201 910 l 367 910 q 454 961 390 961 q 475 947 475 961 l 475 944 l 460 911 q 639 914 581 911 q 647 905 647 914 q 633 883 647 896 q 594 867 619 871 l 443 867 l 443 864 q 356 449 390 717 q 321 65 321 181 q 325 43 321 50 q 525 47 492 46 q 533 38 533 47 q 519 17 533 29 q 481 0 506 4 l 317 0 q 285 -11 303 -11 q 260 0 268 -11 l 78 0 q 64 10 64 0 q 76 31 64 19 q 101 43 88 43 l 256 43 q 350 797 304 561 l 350 839 m 579 1153 q 571 1108 579 1139 q 563 1076 563 1078 q 525 1047 563 1057 q 500 1078 500 1047 q 524 1133 500 1110 q 571 1157 547 1157 q 579 1153 578 1157 m 401 1153 q 393 1108 401 1139 q 385 1076 385 1078 q 347 1047 385 1057 q 324 1078 324 1047 q 347 1133 324 1110 q 394 1157 371 1157 q 401 1153 400 1157 z "},"":{"ha":1076,"x_min":17,"x_max":1007,"o":"m 206 838 l 133 829 q 124 844 124 829 q 138 874 124 858 q 174 889 151 889 l 228 889 q 251 944 235 926 q 296 961 268 961 q 324 946 324 961 q 303 893 313 921 q 386 894 322 894 q 537 880 450 894 q 709 833 624 865 q 860 753 794 800 q 967 635 926 706 q 1007 482 1007 564 q 971 328 1007 400 q 874 205 935 257 q 738 110 814 153 q 581 42 663 68 q 283 -12 413 -12 q 171 4 213 -12 q 129 46 129 21 q 139 57 129 57 q 147 56 143 57 q 136 180 136 106 q 140 317 136 254 q 81 315 114 315 q 17 343 17 315 q 76 367 17 367 q 143 364 104 367 q 217 838 165 636 l 206 838 m 200 321 q 197 231 197 260 q 200 140 197 201 q 227 52 203 79 q 325 25 251 25 q 616 101 453 25 q 853 274 779 178 q 956 524 956 406 q 901 667 956 604 q 758 767 847 729 q 343 842 579 842 q 289 840 308 842 q 203 364 219 603 q 365 356 365 364 q 200 321 365 338 z "},"":{"ha":983,"x_min":92,"x_max":921,"o":"m 906 853 q 815 539 853 736 q 764 194 778 342 l 781 138 q 788 83 783 126 q 773 17 788 46 q 738 -11 758 -11 q 717 17 717 -11 q 726 158 717 44 q 547 540 639 372 q 329 835 454 707 q 241 483 283 696 q 199 108 199 269 q 204 0 199 46 q 190 -11 203 -11 q 138 56 138 -11 q 146 158 138 100 q 299 863 176 428 q 239 885 264 885 q 158 801 188 885 q 119 632 128 717 q 108 547 110 547 q 92 601 92 547 q 133 840 92 751 q 251 928 174 928 q 314 908 275 928 q 329 918 319 918 q 346 910 339 918 q 353 889 353 901 l 353 882 q 558 619 450 803 q 736 264 667 435 q 815 763 764 518 q 821 794 815 764 q 831 837 826 825 q 844 871 835 849 q 900 913 861 913 q 921 900 921 913 q 906 853 921 888 m 753 1110 q 714 1062 753 1083 q 655 1040 675 1040 q 590 1059 635 1040 q 522 1078 546 1078 q 476 1060 499 1078 q 449 1042 453 1042 q 444 1048 444 1042 q 467 1074 444 1054 q 508 1105 490 1094 q 552 1115 526 1115 q 621 1101 578 1115 q 692 1086 664 1086 q 744 1115 719 1086 q 753 1110 753 1115 z "},"":{"ha":1106,"x_min":86,"x_max":1040,"o":"m 271 763 q 175 717 179 717 q 163 730 163 717 q 219 771 163 743 q 324 817 275 799 q 488 933 396 888 q 674 979 579 979 q 769 926 769 979 q 738 853 769 896 q 1040 515 1040 808 q 992 289 1040 393 q 864 117 943 185 q 686 13 785 50 q 483 -25 588 -25 q 188 79 289 -25 q 86 344 86 183 q 133 567 86 457 q 271 763 179 678 m 714 857 q 726 904 726 886 q 667 938 726 938 q 528 908 607 938 q 396 838 449 879 q 572 863 478 863 q 714 857 665 863 m 351 790 q 201 601 250 714 q 153 364 153 488 q 239 110 153 211 q 493 8 325 8 q 660 43 576 8 q 815 140 744 78 q 931 299 886 201 q 976 515 976 397 q 906 722 976 633 q 724 825 835 811 q 692 800 703 800 q 682 806 682 800 q 694 828 682 817 q 638 829 675 829 q 351 790 494 829 m 739 1013 q 735 1008 739 1008 q 624 1061 731 1008 q 506 1121 518 1114 q 493 1142 493 1128 q 501 1169 493 1157 q 519 1181 510 1181 q 536 1176 528 1181 q 676 1075 613 1125 q 739 1013 739 1025 z "},"":{"ha":1106,"x_min":86,"x_max":1040,"o":"m 271 763 q 175 717 179 717 q 163 730 163 717 q 219 771 163 743 q 324 817 275 799 q 488 933 396 888 q 674 979 579 979 q 769 926 769 979 q 738 853 769 896 q 1040 515 1040 808 q 992 289 1040 393 q 864 117 943 185 q 686 13 785 50 q 483 -25 588 -25 q 188 79 289 -25 q 86 344 86 183 q 133 567 86 457 q 271 763 179 678 m 714 857 q 726 904 726 886 q 667 938 726 938 q 528 908 607 938 q 396 838 449 879 q 572 863 478 863 q 714 857 665 863 m 351 790 q 201 601 250 714 q 153 364 153 488 q 239 110 153 211 q 493 8 325 8 q 660 43 576 8 q 815 140 744 78 q 931 299 886 201 q 976 515 976 397 q 906 722 976 633 q 724 825 835 811 q 692 800 703 800 q 682 806 682 800 q 694 828 682 817 q 638 829 675 829 q 351 790 494 829 m 792 1169 q 796 1163 792 1169 q 800 1143 800 1157 q 788 1122 800 1129 q 669 1061 775 1114 q 558 1008 563 1008 q 553 1013 553 1008 q 616 1075 553 1025 q 757 1176 679 1125 q 774 1181 764 1181 q 792 1169 783 1181 z "},"":{"ha":1106,"x_min":86,"x_max":1040,"o":"m 271 763 q 175 717 179 717 q 163 730 163 717 q 219 771 163 743 q 324 817 275 799 q 488 933 396 888 q 674 979 579 979 q 769 926 769 979 q 738 853 769 896 q 1040 515 1040 808 q 992 289 1040 393 q 864 117 943 185 q 686 13 785 50 q 483 -25 588 -25 q 188 79 289 -25 q 86 344 86 183 q 133 567 86 457 q 271 763 179 678 m 714 857 q 726 904 726 886 q 667 938 726 938 q 528 908 607 938 q 396 838 449 879 q 572 863 478 863 q 714 857 665 863 m 351 790 q 201 601 250 714 q 153 364 153 488 q 239 110 153 211 q 493 8 325 8 q 660 43 576 8 q 815 140 744 78 q 931 299 886 201 q 976 515 976 397 q 906 722 976 633 q 724 825 835 811 q 692 800 703 800 q 682 806 682 800 q 694 828 682 817 q 638 829 675 829 q 351 790 494 829 m 697 1181 q 744 1115 704 1178 q 792 1040 785 1053 q 799 1019 799 1028 q 792 1010 799 1010 q 740 1060 786 1010 q 679 1132 693 1111 q 590 1060 656 1111 q 522 1010 525 1010 q 518 1015 518 1010 q 528 1031 518 1019 q 611 1110 538 1043 q 697 1181 685 1178 z "},"":{"ha":1106,"x_min":86,"x_max":1040,"o":"m 271 763 q 175 717 179 717 q 163 730 163 717 q 219 771 163 743 q 324 817 275 799 q 488 933 396 888 q 674 979 579 979 q 769 926 769 979 q 738 853 769 896 q 1040 515 1040 808 q 992 289 1040 393 q 864 117 943 185 q 686 13 785 50 q 483 -25 588 -25 q 188 79 289 -25 q 86 344 86 183 q 133 567 86 457 q 271 763 179 678 m 714 857 q 726 904 726 886 q 667 938 726 938 q 528 908 607 938 q 396 838 449 879 q 572 863 478 863 q 714 857 665 863 m 351 790 q 201 601 250 714 q 153 364 153 488 q 239 110 153 211 q 493 8 325 8 q 660 43 576 8 q 815 140 744 78 q 931 299 886 201 q 976 515 976 397 q 906 722 976 633 q 724 825 835 811 q 692 800 703 800 q 682 806 682 800 q 694 828 682 817 q 638 829 675 829 q 351 790 494 829 m 829 1092 q 790 1044 829 1065 q 731 1022 751 1022 q 667 1041 711 1022 q 599 1060 622 1060 q 552 1042 575 1060 q 525 1024 529 1024 q 521 1030 521 1024 q 544 1056 521 1036 q 585 1087 567 1076 q 628 1097 603 1097 q 697 1083 654 1097 q 768 1068 740 1068 q 821 1097 796 1068 q 829 1092 829 1097 z "},"":{"ha":1106,"x_min":86,"x_max":1040,"o":"m 271 763 q 175 717 179 717 q 163 730 163 717 q 219 771 163 743 q 324 817 275 799 q 488 933 396 888 q 674 979 579 979 q 769 926 769 979 q 738 853 769 896 q 1040 515 1040 808 q 992 289 1040 393 q 864 117 943 185 q 686 13 785 50 q 483 -25 588 -25 q 188 79 289 -25 q 86 344 86 183 q 133 567 86 457 q 271 763 179 678 m 714 857 q 726 904 726 886 q 667 938 726 938 q 528 908 607 938 q 396 838 449 879 q 572 863 478 863 q 714 857 665 863 m 351 790 q 201 601 250 714 q 153 364 153 488 q 239 110 153 211 q 493 8 325 8 q 660 43 576 8 q 815 140 744 78 q 931 299 886 201 q 976 515 976 397 q 906 722 976 633 q 724 825 835 811 q 692 800 703 800 q 682 806 682 800 q 694 828 682 817 q 638 829 675 829 q 351 790 494 829 m 799 1153 q 790 1108 799 1139 q 782 1076 782 1078 q 744 1047 782 1057 q 719 1078 719 1047 q 743 1133 719 1110 q 790 1157 767 1157 q 799 1153 797 1157 m 621 1153 q 613 1108 621 1139 q 604 1076 604 1078 q 567 1047 604 1057 q 543 1078 543 1047 q 567 1133 543 1110 q 614 1157 590 1157 q 621 1153 619 1157 z "},"":{"ha":611,"x_min":126,"x_max":536,"o":"m 535 131 q 535 124 535 131 q 522 118 535 118 q 494 131 510 118 q 469 151 478 143 q 445 175 461 158 q 422 198 429 192 q 322 297 415 204 l 160 126 q 147 121 154 121 q 133 129 139 121 q 126 147 126 138 q 142 174 126 156 q 181 213 158 192 q 207 238 204 235 l 293 326 q 224 397 243 376 q 189 432 206 417 q 161 458 172 447 q 126 504 126 493 q 133 524 126 515 q 147 532 139 532 q 160 526 154 532 l 322 354 q 434 466 394 426 q 489 518 474 506 q 526 542 515 542 q 536 536 536 542 q 501 482 536 517 l 349 326 q 428 250 376 299 q 508 172 481 201 q 535 131 535 143 z "},"":{"ha":1086,"x_min":86,"x_max":1040,"o":"m 271 763 q 175 717 179 717 q 163 730 163 717 q 219 771 163 743 q 324 817 275 799 q 488 933 396 888 q 674 979 579 979 q 769 926 769 979 q 738 853 769 896 q 800 840 792 843 q 940 982 925 982 q 954 974 949 982 q 960 956 960 967 q 943 924 960 946 q 892 867 926 903 q 851 822 858 831 q 1040 515 1040 743 q 992 289 1040 393 q 864 117 943 185 q 686 13 785 50 q 473 -25 588 -25 q 269 21 358 -25 q 222 -104 222 -62 q 232 -132 222 -119 l 242 -144 q 229 -158 242 -151 q 210 -165 217 -165 q 176 -121 176 -165 q 229 43 176 -58 q 86 344 86 143 q 133 567 86 457 q 271 763 179 678 m 825 790 q 527 409 678 615 q 293 63 376 203 q 493 8 374 8 q 660 43 576 8 q 815 140 744 78 q 931 299 886 201 q 976 499 976 397 q 935 676 976 601 q 825 790 894 750 m 351 790 q 201 601 250 714 q 153 364 153 488 q 256 92 153 189 q 502 463 346 249 q 776 813 658 676 q 724 825 751 821 q 692 800 703 800 q 682 806 682 800 q 694 828 682 817 q 638 829 675 829 q 351 790 494 829 m 714 857 q 726 904 726 886 q 667 938 726 938 q 528 908 607 938 q 396 838 449 879 q 572 863 478 863 q 714 857 665 863 z "},"":{"ha":897,"x_min":78,"x_max":840,"o":"m 165 760 q 157 780 157 761 q 181 845 157 799 q 218 904 204 892 q 268 925 244 925 q 313 901 313 925 q 307 889 313 894 q 215 699 257 843 q 160 433 174 554 q 146 250 146 313 q 243 54 146 54 q 525 297 344 54 q 663 540 610 413 q 715 760 715 668 l 715 790 q 741 877 715 842 q 819 913 767 913 q 840 899 840 913 l 840 896 q 738 492 778 751 q 699 100 699 233 q 710 60 710 85 q 664 -11 710 -11 q 631 19 631 -11 q 676 479 657 317 q 535 248 608 347 q 400 97 463 149 q 110 72 179 -87 q 78 268 78 146 q 165 760 78 510 m 619 1013 q 615 1008 619 1008 q 505 1061 611 1008 q 386 1121 399 1114 q 374 1142 374 1128 q 382 1169 374 1157 q 399 1181 390 1181 q 417 1176 408 1181 q 556 1075 493 1125 q 619 1013 619 1025 z "},"":{"ha":897,"x_min":78,"x_max":840,"o":"m 165 760 q 157 780 157 761 q 181 845 157 799 q 218 904 204 892 q 268 925 244 925 q 313 901 313 925 q 307 889 313 894 q 215 699 257 843 q 160 433 174 554 q 146 250 146 313 q 243 54 146 54 q 525 297 344 54 q 663 540 610 413 q 715 760 715 668 l 715 790 q 741 877 715 842 q 819 913 767 913 q 840 899 840 913 l 840 896 q 738 492 778 751 q 699 100 699 233 q 710 60 710 85 q 664 -11 710 -11 q 631 19 631 -11 q 676 479 657 317 q 535 248 608 347 q 400 97 463 149 q 110 72 179 -87 q 78 268 78 146 q 165 760 78 510 m 696 1169 q 700 1163 696 1169 q 704 1143 704 1157 q 692 1122 704 1129 q 573 1061 679 1114 q 462 1008 467 1008 q 457 1013 457 1008 q 519 1075 457 1025 q 675 1181 654 1181 q 696 1169 688 1181 z "},"":{"ha":897,"x_min":78,"x_max":840,"o":"m 165 760 q 157 780 157 761 q 181 845 157 799 q 218 904 204 892 q 268 925 244 925 q 313 901 313 925 q 307 889 313 894 q 215 699 257 843 q 160 433 174 554 q 146 250 146 313 q 243 54 146 54 q 525 297 344 54 q 663 540 610 413 q 715 760 715 668 l 715 790 q 741 877 715 842 q 819 913 767 913 q 840 899 840 913 l 840 896 q 738 492 778 751 q 699 100 699 233 q 710 60 710 85 q 664 -11 710 -11 q 631 19 631 -11 q 676 479 657 317 q 535 248 608 347 q 400 97 463 149 q 110 72 179 -87 q 78 268 78 146 q 165 760 78 510 m 593 1143 q 640 1077 600 1140 q 688 1001 681 1014 q 694 978 694 988 q 688 969 694 969 q 635 1020 682 969 q 575 1092 589 1071 q 486 1020 551 1071 q 417 969 421 969 q 414 974 414 969 q 424 991 414 979 q 507 1072 433 1003 q 593 1143 581 1140 z "},"":{"ha":897,"x_min":78,"x_max":840,"o":"m 165 760 q 157 780 157 761 q 181 845 157 799 q 218 904 204 892 q 268 925 244 925 q 313 901 313 925 q 307 889 313 894 q 215 699 257 843 q 160 433 174 554 q 146 250 146 313 q 243 54 146 54 q 525 297 344 54 q 663 540 610 413 q 715 760 715 668 l 715 790 q 741 877 715 842 q 819 913 767 913 q 840 899 840 913 l 840 896 q 738 492 778 751 q 699 100 699 233 q 710 60 710 85 q 664 -11 710 -11 q 631 19 631 -11 q 676 479 657 317 q 535 248 608 347 q 400 97 463 149 q 110 72 179 -87 q 78 268 78 146 q 165 760 78 510 m 685 1153 q 676 1108 685 1139 q 668 1076 668 1078 q 631 1047 668 1057 q 606 1078 606 1047 q 629 1133 606 1110 q 676 1157 653 1157 q 685 1153 683 1157 m 507 1153 q 499 1108 507 1139 q 490 1076 490 1078 q 453 1047 490 1057 q 429 1078 429 1047 q 453 1133 429 1110 q 500 1157 476 1157 q 507 1153 506 1157 z "},"":{"ha":722,"x_min":42,"x_max":706,"o":"m 132 96 q 201 363 201 246 q 200 383 201 378 q 51 811 132 561 q 42 865 42 839 q 104 908 42 908 q 142 903 121 908 q 163 889 163 897 q 146 867 163 878 q 129 831 129 857 q 257 429 129 736 q 502 676 397 549 q 622 865 607 804 q 674 926 636 926 q 706 894 706 926 q 560 685 706 863 q 274 394 474 581 q 245 279 260 356 q 228 159 231 203 q 221 92 225 115 q 206 44 217 69 q 117 0 185 0 q 93 13 93 0 q 132 96 93 25 m 550 1128 q 554 1122 550 1128 q 558 1103 558 1117 q 546 1081 558 1089 q 427 1021 533 1074 q 316 968 321 968 q 311 972 311 968 q 374 1034 311 985 q 478 1111 436 1083 q 531 1139 521 1139 q 550 1128 542 1139 z "},"":{"ha":414,"x_min":-89,"x_max":542,"o":"m 1 -229 l 11 -279 q -4 -325 11 -299 q -50 -351 -19 -351 q -89 -303 -89 -351 q 61 183 -89 -235 q 54 215 54 200 q 96 285 54 258 q 243 750 225 681 q 222 755 243 751 q 201 767 201 758 q 231 793 201 782 q 260 806 260 804 q 326 969 317 960 l 338 981 q 369 996 353 996 q 394 968 394 996 q 386 936 394 956 l 333 810 q 480 635 418 756 q 542 381 542 515 q 465 165 542 246 q 276 85 389 85 q 107 131 163 85 q 36 -67 71 60 q 1 -229 1 -194 m 457 457 q 315 738 429 639 q 131 172 271 638 q 272 121 181 121 q 413 197 363 121 q 463 382 463 274 q 457 457 463 424 z "},"":{"ha":847,"x_min":-196,"x_max":783,"o":"m -161 -153 l -162 -174 q -135 -237 -162 -214 q -74 -260 -108 -260 q -71 -260 -72 -260 q -3 -225 -37 -260 q 65 -105 32 -190 q 163 194 99 -19 q 247 481 228 407 l 157 481 q 139 488 139 481 q 149 503 139 496 q 168 510 158 510 l 257 510 q 349 800 322 742 q 429 890 376 858 q 549 922 482 922 q 722 869 663 922 q 781 769 781 817 q 731 683 781 721 q 622 622 681 644 q 513 565 563 600 q 463 492 463 531 q 496 426 463 454 q 576 378 529 399 q 669 338 622 358 q 750 286 717 318 q 783 214 783 254 q 678 56 783 125 q 447 -14 572 -14 q 367 8 390 -14 q 343 60 343 29 q 386 104 343 104 q 394 88 390 104 q 401 64 397 71 q 503 24 425 24 q 648 63 581 24 q 715 178 715 103 q 683 248 715 217 q 606 301 651 279 q 514 344 560 322 q 436 400 468 367 q 404 475 404 433 q 579 632 404 575 q 682 685 639 651 q 725 760 725 718 q 672 848 725 803 q 549 893 618 893 q 417 813 461 893 q 294 440 372 732 q 165 -10 215 147 q 48 -226 115 -167 q -84 -286 -19 -286 q -172 -258 -149 -286 q -196 -199 -196 -229 q -187 -156 -196 -169 q -170 -142 -179 -142 q -161 -153 -161 -142 z "},"":{"ha":457,"x_min":8,"x_max":479,"o":"m 461 111 q 434 86 444 94 q 410 66 424 78 q 388 47 397 54 q 364 31 378 40 q 339 17 350 21 q 297 3 311 3 q 263 38 268 3 q 308 253 263 96 q 42 -4 122 -4 q 8 53 8 -4 q 47 219 8 110 q 140 416 85 328 q 238 504 196 504 l 242 504 l 257 515 q 293 529 269 529 q 354 518 317 529 q 397 507 392 507 q 410 518 401 507 q 432 529 419 529 q 467 499 467 529 q 453 447 467 478 q 438 412 439 415 q 424 403 436 408 q 411 393 413 397 q 357 209 381 307 q 333 83 333 111 q 353 54 333 54 q 401 78 372 54 q 450 125 429 101 q 473 149 471 149 q 475 135 475 149 q 461 111 475 122 m 369 481 l 307 486 q 265 481 288 486 q 151 316 231 471 q 72 85 72 161 q 86 61 72 61 q 190 146 115 61 q 293 276 264 231 q 351 387 322 322 q 381 466 381 451 q 374 481 381 481 l 369 481 m 479 649 q 475 644 479 644 q 365 697 471 644 q 246 757 258 750 q 233 778 233 764 q 242 805 233 793 q 259 817 250 817 q 276 813 268 817 q 416 711 353 761 q 479 649 479 661 z "},"":{"ha":457,"x_min":8,"x_max":508,"o":"m 461 111 q 434 86 444 94 q 410 66 424 78 q 388 47 397 54 q 364 31 378 40 q 339 17 350 21 q 297 3 311 3 q 263 38 268 3 q 308 253 263 96 q 42 -4 122 -4 q 8 53 8 -4 q 47 219 8 110 q 140 416 85 328 q 238 504 196 504 l 242 504 l 257 515 q 293 529 269 529 q 354 518 317 529 q 397 507 392 507 q 410 518 401 507 q 432 529 419 529 q 467 499 467 529 q 453 447 467 478 q 438 412 439 415 q 424 403 436 408 q 411 393 413 397 q 357 209 381 307 q 333 83 333 111 q 353 54 333 54 q 401 78 372 54 q 450 125 429 101 q 473 149 471 149 q 475 135 475 149 q 461 111 475 122 m 369 481 l 307 486 q 265 481 288 486 q 151 316 231 471 q 72 85 72 161 q 86 61 72 61 q 190 146 115 61 q 293 276 264 231 q 351 387 322 322 q 381 466 381 451 q 374 481 381 481 l 369 481 m 500 772 q 504 766 500 772 q 508 746 508 760 q 496 724 508 732 q 377 664 483 717 q 266 611 271 611 q 261 615 261 611 q 324 678 261 628 q 465 779 388 728 q 482 783 472 783 q 500 772 492 783 z "},"":{"ha":457,"x_min":8,"x_max":543,"o":"m 461 111 q 434 86 444 94 q 410 66 424 78 q 388 47 397 54 q 364 31 378 40 q 339 17 350 21 q 297 3 311 3 q 263 38 268 3 q 308 253 263 96 q 42 -4 122 -4 q 8 53 8 -4 q 47 219 8 110 q 140 416 85 328 q 238 504 196 504 l 242 504 l 257 515 q 293 529 269 529 q 354 518 317 529 q 397 507 392 507 q 410 518 401 507 q 432 529 419 529 q 467 499 467 529 q 453 447 467 478 q 438 412 439 415 q 424 403 436 408 q 411 393 413 397 q 357 209 381 307 q 333 83 333 111 q 353 54 333 54 q 401 78 372 54 q 450 125 429 101 q 473 149 471 149 q 475 135 475 149 q 461 111 475 122 m 369 481 l 307 486 q 265 481 288 486 q 151 316 231 471 q 72 85 72 161 q 86 61 72 61 q 190 146 115 61 q 293 276 264 231 q 351 387 322 322 q 381 466 381 451 q 374 481 381 481 l 369 481 m 442 1054 q 489 988 449 1051 q 536 912 529 925 q 543 890 543 899 q 537 881 543 881 q 484 931 531 881 q 424 1003 438 982 q 335 931 400 982 q 266 881 269 881 q 263 885 263 881 q 272 902 263 890 q 356 983 282 914 q 442 1054 429 1051 z "},"":{"ha":457,"x_min":8,"x_max":750,"o":"m 461 111 q 434 86 444 94 q 410 66 424 78 q 388 47 397 54 q 364 31 378 40 q 339 17 350 21 q 297 3 311 3 q 263 38 268 3 q 308 253 263 96 q 42 -4 122 -4 q 8 53 8 -4 q 47 219 8 110 q 140 416 85 328 q 238 504 196 504 l 242 504 l 257 515 q 293 529 269 529 q 354 518 317 529 q 397 507 392 507 q 410 518 401 507 q 432 529 419 529 q 467 499 467 529 q 453 447 467 478 q 438 412 439 415 q 424 403 436 408 q 411 393 413 397 q 357 209 381 307 q 333 83 333 111 q 353 54 333 54 q 401 78 372 54 q 450 125 429 101 q 473 149 471 149 q 475 135 475 149 q 461 111 475 122 m 369 481 l 307 486 q 265 481 288 486 q 151 316 231 471 q 72 85 72 161 q 86 61 72 61 q 190 146 115 61 q 293 276 264 231 q 351 387 322 322 q 381 466 381 451 q 374 481 381 481 l 369 481 m 750 793 q 711 745 750 767 q 652 724 672 724 q 588 742 632 724 q 519 761 543 761 q 473 743 496 761 q 446 725 450 725 q 442 731 442 725 q 465 758 442 738 q 506 788 488 778 q 549 799 524 799 q 618 784 575 799 q 689 769 661 769 q 742 799 717 769 q 750 793 750 799 z "},"":{"ha":457,"x_min":8,"x_max":503,"o":"m 461 111 q 434 86 444 94 q 410 66 424 78 q 388 47 397 54 q 364 31 378 40 q 339 17 350 21 q 297 3 311 3 q 263 38 268 3 q 308 253 263 96 q 42 -4 122 -4 q 8 53 8 -4 q 47 219 8 110 q 140 416 85 328 q 238 504 196 504 l 242 504 l 257 515 q 293 529 269 529 q 354 518 317 529 q 397 507 392 507 q 410 518 401 507 q 432 529 419 529 q 467 499 467 529 q 453 447 467 478 q 438 412 439 415 q 424 403 436 408 q 411 393 413 397 q 357 209 381 307 q 333 83 333 111 q 353 54 333 54 q 401 78 372 54 q 450 125 429 101 q 473 149 471 149 q 475 135 475 149 q 461 111 475 122 m 369 481 l 307 486 q 265 481 288 486 q 151 316 231 471 q 72 85 72 161 q 86 61 72 61 q 190 146 115 61 q 293 276 264 231 q 351 387 322 322 q 381 466 381 451 q 374 481 381 481 l 369 481 m 503 760 q 494 715 503 744 q 486 683 486 686 q 449 654 486 664 q 424 685 424 654 q 447 740 424 717 q 494 764 471 764 q 503 760 500 764 m 325 760 q 317 715 325 744 q 308 683 308 686 q 271 654 308 664 q 247 685 247 654 q 271 740 247 717 q 318 764 294 764 q 325 760 322 764 z "},"":{"ha":457,"x_min":8,"x_max":497,"o":"m 461 111 q 434 86 444 94 q 410 66 424 78 q 388 47 397 54 q 364 31 378 40 q 339 17 350 21 q 297 3 311 3 q 263 38 268 3 q 308 253 263 96 q 42 -4 122 -4 q 8 53 8 -4 q 47 219 8 110 q 140 416 85 328 q 238 504 196 504 l 242 504 l 257 515 q 293 529 269 529 q 354 518 317 529 q 397 507 392 507 q 410 518 401 507 q 432 529 419 529 q 467 499 467 529 q 453 447 467 478 q 438 412 439 415 q 424 403 436 408 q 411 393 413 397 q 357 209 381 307 q 333 83 333 111 q 353 54 333 54 q 401 78 372 54 q 450 125 429 101 q 473 149 471 149 q 475 135 475 149 q 461 111 475 122 m 369 481 l 307 486 q 265 481 288 486 q 151 316 231 471 q 72 85 72 161 q 86 61 72 61 q 190 146 115 61 q 293 276 264 231 q 351 387 322 322 q 381 466 381 451 q 374 481 381 481 l 369 481 m 497 732 q 458 642 497 682 q 369 601 419 601 q 328 615 344 601 q 313 654 313 629 q 353 753 313 707 q 438 800 394 800 q 481 780 464 800 q 497 732 497 760 m 385 628 q 444 660 419 628 q 469 735 469 692 q 433 779 469 779 q 376 744 407 779 q 344 669 344 710 q 385 628 344 628 z "},"":{"ha":653,"x_min":8,"x_max":614,"o":"m 429 264 l 379 265 q 333 88 333 149 q 375 26 333 26 q 511 136 424 26 q 546 174 540 174 q 556 163 556 174 q 479 55 556 124 q 364 -14 403 -14 q 297 8 325 -14 q 268 81 268 29 q 307 251 268 132 q 42 -4 126 -4 q 8 53 8 -4 q 47 219 8 110 q 140 416 85 328 q 238 504 196 504 l 242 504 l 257 515 q 293 529 269 529 q 354 518 317 529 q 397 507 392 507 q 410 518 401 507 q 432 529 419 529 q 465 506 463 529 q 540 517 501 517 q 606 432 588 517 q 614 360 614 389 q 593 310 614 332 q 539 281 572 289 q 429 264 481 264 m 369 481 l 307 486 q 265 481 288 486 q 151 316 231 471 q 72 85 72 161 q 86 61 72 61 q 190 146 115 61 q 293 276 264 231 q 351 387 322 322 q 381 466 381 451 q 374 481 381 481 l 369 481 m 392 304 l 447 301 q 529 314 504 301 q 555 363 554 326 q 549 425 556 400 q 514 469 536 469 q 448 410 486 469 q 392 304 410 350 z "},"":{"ha":321,"x_min":-82,"x_max":367,"o":"m 308 406 l 319 468 q 296 490 319 490 q 244 467 279 490 q 186 422 208 444 q 112 269 164 399 q 60 71 60 139 q 100 21 60 21 q 204 63 151 21 q 290 148 257 104 q 324 192 322 192 q 331 182 331 189 q 251 65 331 144 q 90 -19 171 -14 q 57 -94 57 -44 q 97 -162 57 -111 q 138 -255 138 -212 q 101 -331 138 -297 q -69 -389 36 -389 q -82 -374 -82 -389 q -1 -353 -82 -354 q 54 -331 29 -351 q 79 -267 79 -310 q 43 -197 79 -247 q 7 -118 7 -146 q 51 -15 7 -49 q 1 76 1 1 q 65 314 1 175 q 176 474 129 453 q 222 494 197 482 q 301 521 272 521 q 367 456 367 521 q 353 402 367 424 q 324 381 340 381 q 308 406 308 381 z "},"":{"ha":351,"x_min":28,"x_max":400,"o":"m 189 264 l 139 265 q 93 88 93 149 q 135 26 93 26 q 271 136 183 26 q 306 174 300 174 q 315 163 315 174 q 239 55 315 124 q 124 -14 163 -14 q 56 8 85 -14 q 28 79 28 29 q 51 197 28 125 q 75 279 74 268 q 54 301 54 285 q 78 317 54 317 l 88 317 q 151 443 143 426 q 300 517 190 517 q 365 432 347 517 q 374 360 374 389 q 353 310 374 332 q 299 281 332 289 q 189 264 240 264 m 151 304 l 207 301 q 289 314 264 301 q 315 363 314 326 q 308 425 315 400 q 274 469 296 469 q 208 410 246 469 q 151 304 169 350 m 400 611 q 396 607 400 607 q 285 660 392 607 q 167 719 179 713 q 154 741 154 726 q 163 767 154 756 q 180 779 171 779 q 197 775 189 779 q 337 674 274 724 q 400 611 400 624 z "},"":{"ha":351,"x_min":28,"x_max":471,"o":"m 189 264 l 139 265 q 93 88 93 149 q 135 26 93 26 q 271 136 183 26 q 306 174 300 174 q 315 163 315 174 q 239 55 315 124 q 124 -14 163 -14 q 56 8 85 -14 q 28 79 28 29 q 51 197 28 125 q 75 279 74 268 q 54 301 54 285 q 78 317 54 317 l 88 317 q 151 443 143 426 q 300 517 190 517 q 365 432 347 517 q 374 360 374 389 q 353 310 374 332 q 299 281 332 289 q 189 264 240 264 m 151 304 l 207 301 q 289 314 264 301 q 315 363 314 326 q 308 425 315 400 q 274 469 296 469 q 208 410 246 469 q 151 304 169 350 m 463 758 q 467 752 463 758 q 471 732 471 746 q 458 710 471 718 q 340 650 446 703 q 228 597 233 597 q 224 601 224 597 q 286 664 224 614 q 442 769 421 769 q 463 758 454 769 z "},"":{"ha":351,"x_min":28,"x_max":469,"o":"m 189 264 l 139 265 q 93 88 93 149 q 135 26 93 26 q 271 136 183 26 q 306 174 300 174 q 315 163 315 174 q 239 55 315 124 q 124 -14 163 -14 q 56 8 85 -14 q 28 79 28 29 q 51 197 28 125 q 75 279 74 268 q 54 301 54 285 q 78 317 54 317 l 88 317 q 151 443 143 426 q 300 517 190 517 q 365 432 347 517 q 374 360 374 389 q 353 310 374 332 q 299 281 332 289 q 189 264 240 264 m 151 304 l 207 301 q 289 314 264 301 q 315 363 314 326 q 308 425 315 400 q 274 469 296 469 q 208 410 246 469 q 151 304 169 350 m 368 969 q 415 903 375 967 q 463 827 456 840 q 469 805 469 814 q 463 796 469 796 q 410 847 457 796 q 350 918 364 897 q 261 847 326 897 q 192 796 196 796 q 189 801 189 796 q 199 817 189 806 q 282 898 208 829 q 368 969 356 967 z "},"":{"ha":351,"x_min":28,"x_max":446,"o":"m 189 264 l 139 265 q 93 88 93 149 q 135 26 93 26 q 271 136 183 26 q 306 174 300 174 q 315 163 315 174 q 239 55 315 124 q 124 -14 163 -14 q 56 8 85 -14 q 28 79 28 29 q 51 197 28 125 q 75 279 74 268 q 54 301 54 285 q 78 317 54 317 l 88 317 q 151 443 143 426 q 300 517 190 517 q 365 432 347 517 q 374 360 374 389 q 353 310 374 332 q 299 281 332 289 q 189 264 240 264 m 151 304 l 207 301 q 289 314 264 301 q 315 363 314 326 q 308 425 315 400 q 274 469 296 469 q 208 410 246 469 q 151 304 169 350 m 446 740 q 438 695 446 725 q 429 664 429 665 q 392 635 429 644 q 367 666 367 635 q 390 721 367 697 q 438 744 414 744 q 446 740 444 744 m 268 740 q 260 695 268 725 q 251 664 251 665 q 214 635 251 644 q 190 666 190 635 q 214 721 190 697 q 261 744 238 744 q 268 740 267 744 z "},"":{"ha":233,"x_min":25,"x_max":365,"o":"m 131 357 l 126 375 q 144 431 126 381 q 185 510 161 481 q 254 539 208 539 q 275 526 272 539 q 216 411 253 492 q 164 292 179 331 q 103 90 128 201 q 101 79 101 86 q 115 63 101 63 q 160 83 124 63 q 208 104 197 104 q 219 99 218 104 q 149 37 219 82 q 51 -8 78 -8 q 25 17 25 -8 q 35 59 25 29 q 62 135 46 89 q 86 206 78 181 q 103 257 94 231 q 117 297 113 283 q 125 322 121 310 q 131 357 131 347 m 365 665 q 361 661 365 661 q 251 714 357 661 q 132 774 144 767 q 119 795 119 781 q 128 822 119 810 q 145 833 136 833 q 163 829 154 833 q 302 728 239 778 q 365 665 365 678 z "},"":{"ha":233,"x_min":25,"x_max":479,"o":"m 131 357 l 126 375 q 144 431 126 381 q 185 510 161 481 q 254 539 208 539 q 275 526 272 539 q 216 411 253 492 q 164 292 179 331 q 103 90 128 201 q 101 79 101 86 q 115 63 101 63 q 160 83 124 63 q 208 104 197 104 q 219 99 218 104 q 149 37 219 82 q 51 -8 78 -8 q 25 17 25 -8 q 35 59 25 29 q 62 135 46 89 q 86 206 78 181 q 103 257 94 231 q 117 297 113 283 q 125 322 121 310 q 131 357 131 347 m 471 820 q 475 814 471 820 q 479 794 479 808 q 467 773 479 781 q 348 713 454 765 q 237 660 242 660 q 232 664 232 660 q 294 726 232 676 q 450 832 429 832 q 471 820 463 832 z "},"":{"ha":233,"x_min":25,"x_max":414,"o":"m 131 357 l 126 375 q 144 431 126 381 q 185 510 161 481 q 254 539 208 539 q 275 526 272 539 q 216 411 253 492 q 164 292 179 331 q 103 90 128 201 q 101 79 101 86 q 115 63 101 63 q 160 83 124 63 q 208 104 197 104 q 219 99 218 104 q 149 37 219 82 q 51 -8 78 -8 q 25 17 25 -8 q 35 59 25 29 q 62 135 46 89 q 86 206 78 181 q 103 257 94 231 q 117 297 113 283 q 125 322 121 310 q 131 357 131 347 m 313 863 q 360 797 319 860 q 407 720 400 733 q 414 698 414 707 q 408 689 414 689 q 355 740 401 689 q 294 811 308 790 q 206 740 271 790 q 137 689 140 689 q 133 694 133 689 q 143 710 133 699 q 226 791 153 722 q 313 863 300 860 z "},"":{"ha":233,"x_min":25,"x_max":400,"o":"m 131 357 l 126 375 q 144 431 126 381 q 185 510 161 481 q 254 539 208 539 q 275 526 272 539 q 216 411 253 492 q 164 292 179 331 q 103 90 128 201 q 101 79 101 86 q 115 63 101 63 q 160 83 124 63 q 208 104 197 104 q 219 99 218 104 q 149 37 219 82 q 51 -8 78 -8 q 25 17 25 -8 q 35 59 25 29 q 62 135 46 89 q 86 206 78 181 q 103 257 94 231 q 117 297 113 283 q 125 322 121 310 q 131 357 131 347 m 400 803 q 392 758 400 789 q 383 726 383 728 q 346 697 383 707 q 321 728 321 697 q 344 783 321 760 q 392 807 368 807 q 400 803 397 807 m 222 803 q 214 758 222 789 q 206 726 206 728 q 168 697 206 707 q 144 728 144 697 q 168 783 144 760 q 215 807 192 807 q 222 803 219 807 z "},"":{"ha":431,"x_min":29,"x_max":406,"o":"m 231 725 q 110 671 126 671 q 93 685 93 671 q 115 715 93 700 q 210 761 136 729 q 169 815 194 786 q 117 890 117 879 q 127 913 117 901 q 151 925 138 925 q 265 786 190 925 q 397 839 389 839 q 406 836 406 839 q 282 751 406 817 q 365 400 365 585 q 285 117 365 251 q 104 -18 204 -18 q 29 90 29 -18 q 111 378 29 206 q 187 488 142 443 q 281 532 232 532 q 311 528 297 532 q 231 725 308 586 m 324 378 l 324 403 q 288 468 324 468 l 278 468 q 268 469 275 469 q 168 342 225 469 q 101 163 111 215 q 92 83 92 110 q 131 15 92 15 q 255 128 186 15 q 324 378 324 242 z "},"":{"ha":453,"x_min":-4,"x_max":551,"o":"m 124 357 l 119 375 q 138 431 119 381 q 178 510 156 482 q 246 539 200 539 q 267 526 264 539 q 131 193 153 293 q 482 563 360 563 q 510 544 510 563 q 500 517 510 532 q 368 246 429 399 q 307 17 307 93 q 318 -8 307 -8 l 372 19 q 381 7 381 19 q 350 -26 381 -6 q 289 -47 319 -47 q 249 10 249 -47 q 271 139 249 67 q 340 324 293 211 q 391 446 388 436 q 394 464 394 456 q 390 472 394 472 q 221 265 364 472 q 75 21 78 58 q 49 -6 74 11 q 10 -24 24 -24 q -4 -14 -3 -24 q 47 125 -1 -18 q 124 357 124 344 m 551 751 q 513 703 551 725 q 453 682 474 682 q 389 701 433 682 q 321 719 344 719 q 274 701 297 719 q 247 683 251 683 q 243 690 243 683 q 266 716 243 696 q 307 747 289 736 q 351 757 325 757 q 419 742 376 757 q 490 728 463 728 q 543 757 518 728 q 551 751 551 757 z "},"":{"ha":363,"x_min":29,"x_max":421,"o":"m 394 414 q 421 398 421 410 q 400 376 421 386 q 363 367 379 367 q 278 89 363 204 q 110 -26 193 -26 q 29 90 29 -26 q 107 371 29 193 q 178 484 136 438 q 264 531 221 531 l 274 531 q 285 564 274 550 q 315 578 296 578 q 350 497 335 576 q 394 414 365 417 m 324 378 q 293 427 311 385 q 268 469 275 469 q 168 342 225 469 q 101 163 111 215 q 92 83 92 110 q 131 15 92 15 q 255 128 186 15 q 324 378 324 242 m 414 710 q 410 706 414 706 q 299 758 406 706 q 181 818 193 811 q 168 840 168 825 q 176 866 168 854 q 194 878 185 878 q 211 874 203 878 q 351 772 288 822 q 414 710 414 722 z "},"":{"ha":363,"x_min":29,"x_max":500,"o":"m 394 414 q 421 398 421 410 q 400 376 421 386 q 363 367 379 367 q 278 89 363 204 q 110 -26 193 -26 q 29 90 29 -26 q 107 371 29 193 q 178 484 136 438 q 264 531 221 531 l 274 531 q 285 564 274 550 q 315 578 296 578 q 350 497 335 576 q 394 414 365 417 m 324 378 q 293 427 311 385 q 268 469 275 469 q 168 342 225 469 q 101 163 111 215 q 92 83 92 110 q 131 15 92 15 q 255 128 186 15 q 324 378 324 242 m 492 866 q 496 860 492 866 q 500 840 500 854 q 488 819 500 826 q 369 758 475 811 q 258 706 263 706 q 253 710 253 706 q 316 772 253 722 q 457 874 379 822 q 474 878 464 878 q 492 866 483 878 z "},"":{"ha":363,"x_min":29,"x_max":475,"o":"m 394 414 q 421 398 421 410 q 400 376 421 386 q 363 367 379 367 q 278 89 363 204 q 110 -26 193 -26 q 29 90 29 -26 q 107 371 29 193 q 178 484 136 438 q 264 531 221 531 l 274 531 q 285 564 274 550 q 315 578 296 578 q 350 497 335 576 q 394 414 365 417 m 324 378 q 293 427 311 385 q 268 469 275 469 q 168 342 225 469 q 101 163 111 215 q 92 83 92 110 q 131 15 92 15 q 255 128 186 15 q 324 378 324 242 m 374 865 q 421 799 381 863 q 468 723 461 736 q 475 701 475 710 q 469 692 475 692 q 416 742 463 692 q 356 814 369 793 q 267 742 332 793 q 198 692 201 692 q 194 697 194 692 q 204 713 194 701 q 288 794 214 725 q 374 865 361 863 z "},"":{"ha":363,"x_min":29,"x_max":475,"o":"m 394 414 q 421 398 421 410 q 400 376 421 386 q 363 367 379 367 q 278 89 363 204 q 110 -26 193 -26 q 29 90 29 -26 q 107 371 29 193 q 178 484 136 438 q 264 531 221 531 l 274 531 q 285 564 274 550 q 315 578 296 578 q 350 497 335 576 q 394 414 365 417 m 324 378 q 293 427 311 385 q 268 469 275 469 q 168 342 225 469 q 101 163 111 215 q 92 83 92 110 q 131 15 92 15 q 255 128 186 15 q 324 378 324 242 m 475 768 q 436 720 475 742 q 377 699 397 699 q 313 717 357 699 q 244 736 268 736 q 198 718 221 736 q 171 700 175 700 q 167 706 167 700 q 190 733 167 713 q 231 763 213 753 q 274 774 249 774 q 343 759 300 774 q 414 744 386 744 q 467 774 442 744 q 475 768 475 774 z "},"":{"ha":363,"x_min":29,"x_max":460,"o":"m 394 414 q 421 398 421 410 q 400 376 421 386 q 363 367 379 367 q 278 89 363 204 q 110 -26 193 -26 q 29 90 29 -26 q 107 371 29 193 q 178 484 136 438 q 264 531 221 531 l 274 531 q 285 564 274 550 q 315 578 296 578 q 350 497 335 576 q 394 414 365 417 m 324 378 q 293 427 311 385 q 268 469 275 469 q 168 342 225 469 q 101 163 111 215 q 92 83 92 110 q 131 15 92 15 q 255 128 186 15 q 324 378 324 242 m 460 803 q 451 758 460 789 q 443 726 443 728 q 406 697 443 707 q 381 728 381 697 q 404 783 381 760 q 451 807 428 807 q 460 803 458 807 m 282 803 q 274 758 282 789 q 265 726 265 728 q 228 697 265 707 q 204 728 204 697 q 228 783 204 760 q 275 807 251 807 q 282 803 281 807 z "},"":{"ha":564,"x_min":26,"x_max":551,"o":"m 314 513 q 353 499 333 513 q 372 467 372 486 q 354 436 372 449 q 316 424 336 424 q 278 438 296 424 q 261 472 261 453 q 314 513 261 513 m 275 361 l 417 360 q 550 364 501 360 q 551 360 551 361 q 371 308 551 333 q 288 296 299 299 q 222 293 276 293 q 97 301 168 293 q 26 326 26 310 q 47 358 26 353 q 121 363 67 363 l 275 361 m 250 235 q 289 222 269 235 q 308 190 308 208 q 290 158 308 171 q 252 146 272 146 q 215 160 232 146 q 197 194 197 175 q 250 235 197 235 z "},"":{"ha":363,"x_min":29,"x_max":438,"o":"m 344 524 q 419 628 411 628 q 433 621 428 628 q 438 607 438 614 q 425 579 438 600 q 388 522 413 558 q 354 472 363 486 q 378 427 361 442 q 408 408 394 413 q 421 399 421 404 q 400 377 421 388 q 363 367 379 367 q 278 89 363 204 q 108 -26 193 -26 q 78 -19 94 -26 q 54 -91 54 -75 q 57 -113 54 -107 q 63 -122 60 -119 q 65 -128 65 -125 q 59 -135 65 -131 q 49 -140 53 -140 q 31 -105 31 -140 q 57 -4 31 -69 q 29 89 29 24 q 107 371 29 193 q 178 484 136 438 q 264 531 221 531 l 274 531 q 285 564 274 550 q 315 578 296 578 q 344 524 332 576 m 324 378 q 307 397 315 382 q 101 31 175 179 q 129 15 111 15 q 255 128 186 15 q 324 378 324 240 m 168 342 q 92 88 92 172 l 92 74 q 289 433 161 215 q 281 456 283 447 q 276 467 278 464 q 268 469 274 469 q 168 342 225 469 z "},"":{"ha":463,"x_min":10,"x_max":499,"o":"m 132 351 l 126 375 q 140 428 126 376 q 174 508 153 479 q 243 536 194 536 q 267 524 263 536 q 100 94 100 114 q 105 89 100 89 q 138 111 110 89 q 382 411 276 218 q 408 500 383 454 q 482 546 433 546 q 499 533 497 546 q 468 450 494 521 q 421 319 442 379 q 372 158 400 260 q 343 44 343 57 q 346 31 343 31 q 402 65 357 31 q 461 100 447 100 q 475 93 475 100 q 372 14 475 76 q 325 -15 332 -10 q 300 -42 318 -21 q 237 -87 256 -87 q 218 -72 218 -87 q 240 -42 218 -62 q 269 -7 263 -22 q 364 325 293 50 q 191 108 299 228 q 29 -12 83 -12 q 10 10 10 -12 q 17 53 10 33 q 58 147 25 74 q 132 351 132 310 m 486 696 q 482 692 486 692 q 372 744 478 692 q 253 804 265 797 q 240 826 240 811 q 249 852 240 840 q 266 864 257 864 q 283 860 275 864 q 423 758 360 808 q 486 696 486 708 z "},"":{"ha":463,"x_min":10,"x_max":554,"o":"m 132 351 l 126 375 q 140 428 126 376 q 174 508 153 479 q 243 536 194 536 q 267 524 263 536 q 100 94 100 114 q 105 89 100 89 q 138 111 110 89 q 382 411 276 218 q 408 500 383 454 q 482 546 433 546 q 499 533 497 546 q 468 450 494 521 q 421 319 442 379 q 372 158 400 260 q 343 44 343 57 q 346 31 343 31 q 402 65 357 31 q 461 100 447 100 q 475 93 475 100 q 372 14 475 76 q 325 -15 332 -10 q 300 -42 318 -21 q 237 -87 256 -87 q 218 -72 218 -87 q 240 -42 218 -62 q 269 -7 263 -22 q 364 325 293 50 q 191 108 299 228 q 29 -12 83 -12 q 10 10 10 -12 q 17 53 10 33 q 58 147 25 74 q 132 351 132 310 m 546 848 q 550 842 546 848 q 554 822 554 836 q 542 801 554 808 q 423 740 529 793 q 312 688 317 688 q 307 692 307 688 q 369 754 307 704 q 525 860 504 860 q 546 848 538 860 z "},"":{"ha":463,"x_min":10,"x_max":522,"o":"m 132 351 l 126 375 q 140 428 126 376 q 174 508 153 479 q 243 536 194 536 q 267 524 263 536 q 100 94 100 114 q 105 89 100 89 q 138 111 110 89 q 382 411 276 218 q 408 500 383 454 q 482 546 433 546 q 499 533 497 546 q 468 450 494 521 q 421 319 442 379 q 372 158 400 260 q 343 44 343 57 q 346 31 343 31 q 402 65 357 31 q 461 100 447 100 q 475 93 475 100 q 372 14 475 76 q 325 -15 332 -10 q 300 -42 318 -21 q 237 -87 256 -87 q 218 -72 218 -87 q 240 -42 218 -62 q 269 -7 263 -22 q 364 325 293 50 q 191 108 299 228 q 29 -12 83 -12 q 10 10 10 -12 q 17 53 10 33 q 58 147 25 74 q 132 351 132 310 m 421 865 q 468 799 428 863 q 515 723 508 736 q 522 701 522 710 q 516 692 522 692 q 463 742 510 692 q 403 814 417 793 q 314 742 379 793 q 245 692 249 692 q 242 697 242 692 q 251 713 242 701 q 335 794 261 725 q 421 865 408 863 z "},"":{"ha":463,"x_min":10,"x_max":518,"o":"m 132 351 l 126 375 q 140 428 126 376 q 174 508 153 479 q 243 536 194 536 q 267 524 263 536 q 100 94 100 114 q 105 89 100 89 q 138 111 110 89 q 382 411 276 218 q 408 500 383 454 q 482 546 433 546 q 499 533 497 546 q 468 450 494 521 q 421 319 442 379 q 372 158 400 260 q 343 44 343 57 q 346 31 343 31 q 402 65 357 31 q 461 100 447 100 q 475 93 475 100 q 372 14 475 76 q 325 -15 332 -10 q 300 -42 318 -21 q 237 -87 256 -87 q 218 -72 218 -87 q 240 -42 218 -62 q 269 -7 263 -22 q 364 325 293 50 q 191 108 299 228 q 29 -12 83 -12 q 10 10 10 -12 q 17 53 10 33 q 58 147 25 74 q 132 351 132 310 m 518 803 q 510 758 518 789 q 501 726 501 728 q 464 697 501 707 q 439 728 439 697 q 463 783 439 760 q 510 807 486 807 q 518 803 517 807 m 340 803 q 332 758 340 789 q 324 726 324 728 q 286 697 324 707 q 263 728 263 697 q 286 783 263 760 q 333 807 310 807 q 340 803 339 807 z "},"":{"ha":440,"x_min":-121,"x_max":517,"o":"m 422 476 l 401 471 q 390 478 394 471 q 431 518 390 496 q 487 540 471 540 q 506 539 503 540 q 510 524 510 532 q 388 300 510 468 q 193 46 267 132 q 190 44 193 53 q 164 -50 169 -39 q 153 -62 158 -61 l 128 -56 q -60 -378 -60 -307 q -54 -403 -60 -390 q -49 -426 -49 -417 q -65 -447 -49 -436 q -99 -458 -82 -458 q -121 -432 -121 -458 q -61 -280 -121 -382 q 62 -90 -1 -178 q 126 3 125 -3 q 142 145 142 49 q 120 328 142 242 q 61 414 99 414 q 47 413 57 414 q 36 419 36 413 q 67 453 36 431 q 90 483 71 456 q 119 511 110 511 q 172 422 149 511 q 194 222 194 332 q 193 156 194 222 q 204 133 193 133 q 333 281 236 133 q 429 468 429 428 q 422 476 429 476 m 508 812 q 513 806 508 812 q 517 786 517 800 q 504 765 517 772 q 385 704 492 757 q 274 651 279 651 q 269 656 269 651 q 333 718 269 668 q 474 819 396 768 q 490 824 481 824 q 508 812 500 824 z "},"":{"ha":304,"x_min":-94,"x_max":383,"o":"m 75 24 q -24 -265 -24 -261 q -19 -276 -24 -268 q -14 -297 -14 -285 q -35 -347 -14 -310 q -78 -383 -56 -383 q -94 -351 -94 -383 q -72 -247 -94 -319 q -5 -59 -49 -175 q 40 63 39 57 q 36 86 36 72 q 67 138 36 118 q 175 481 160 425 q 160 484 175 482 q 144 493 144 486 q 166 513 144 504 q 188 522 188 521 q 233 651 208 579 q 270 760 257 722 q 300 833 283 797 q 361 901 329 901 q 371 891 371 901 q 365 868 371 881 q 301 691 360 856 q 242 525 242 526 q 344 390 306 481 q 383 204 383 300 q 340 48 383 108 q 208 -12 297 -12 q 75 24 119 -12 m 325 182 q 314 272 325 213 q 273 394 303 331 q 228 457 243 457 q 179 321 221 457 q 122 142 138 185 l 92 54 q 186 22 140 22 q 291 69 257 22 q 325 182 325 115 z "},"":{"ha":440,"x_min":-121,"x_max":510,"o":"m 422 476 l 401 471 q 390 478 394 471 q 431 518 390 496 q 487 540 471 540 q 506 539 503 540 q 510 524 510 532 q 388 300 510 468 q 193 46 267 132 q 190 44 193 53 q 164 -50 169 -39 q 153 -62 158 -61 l 128 -56 q -60 -378 -60 -307 q -54 -403 -60 -390 q -49 -426 -49 -417 q -65 -447 -49 -436 q -99 -458 -82 -458 q -121 -432 -121 -458 q -61 -280 -121 -382 q 62 -90 -1 -178 q 126 3 125 -3 q 142 145 142 49 q 120 328 142 242 q 61 414 99 414 q 47 413 57 414 q 36 419 36 413 q 67 453 36 431 q 90 483 71 456 q 119 511 110 511 q 172 422 149 511 q 194 222 194 332 q 193 156 194 222 q 204 133 193 133 q 333 281 236 133 q 429 468 429 428 q 422 476 429 476 m 468 761 q 460 717 468 747 q 451 685 451 686 q 414 656 451 665 q 389 687 389 656 q 413 742 389 718 q 460 765 436 765 q 468 761 467 765 m 290 761 q 282 717 290 747 q 274 685 274 686 q 236 656 274 665 q 213 687 213 656 q 236 742 213 718 q 283 765 260 765 q 290 761 289 765 z "},"":{"ha":233,"x_min":25,"x_max":275,"o":"m 131 357 l 126 375 q 144 431 126 381 q 185 510 161 481 q 254 539 208 539 q 275 526 272 539 q 216 411 253 492 q 164 292 179 331 q 103 90 128 201 q 101 79 101 86 q 115 63 101 63 q 160 83 124 63 q 208 104 197 104 q 219 99 218 104 q 149 37 219 82 q 51 -8 78 -8 q 25 17 25 -8 q 35 59 25 29 q 62 135 46 89 q 86 206 78 181 q 103 257 94 231 q 117 297 113 283 q 125 322 121 310 q 131 357 131 347 z "},"":{"ha":804,"x_min":17,"x_max":729,"o":"m 526 -1 l 185 0 q 153 -11 171 -11 q 128 0 136 -11 l 88 0 q 78 7 78 0 q 94 33 78 17 q 125 54 110 49 q 143 246 136 179 l 67 221 q 44 217 54 217 q 17 233 17 217 q 147 294 17 265 q 207 749 176 572 l 207 790 q 233 877 207 842 q 311 913 258 913 q 332 900 332 913 q 317 853 332 888 q 204 311 243 690 q 250 325 224 317 q 298 340 276 333 q 339 351 319 346 q 362 357 358 357 q 365 354 365 357 q 317 318 365 343 q 200 268 268 293 q 189 101 189 147 q 193 43 189 56 l 563 42 q 722 64 651 42 l 724 64 q 729 47 729 64 q 717 17 729 29 q 617 -4 696 -4 l 526 -1 z "},"":{"ha":249,"x_min":-31,"x_max":374,"o":"m 232 696 l 228 715 q 232 732 228 719 q 283 849 260 819 q 353 878 307 878 q 374 865 372 878 q 163 313 261 632 l 297 354 q 315 357 311 357 q 318 354 318 357 q 147 265 318 331 q 133 217 143 249 q 117 167 122 186 q 100 79 100 114 q 114 63 100 63 q 159 83 122 63 q 205 104 196 104 q 218 99 214 104 q 149 37 218 82 q 51 -8 79 -8 q 24 17 24 -8 q 43 85 24 31 q 97 247 63 139 l 19 221 q -3 217 7 217 q -31 233 -31 217 q 36 278 -31 258 q 78 289 51 282 q 114 299 104 296 q 168 476 131 353 q 219 641 206 599 q 232 696 232 683 z "},"":{"ha":1531,"x_min":86,"x_max":1485,"o":"m 1226 881 l 1464 882 q 1485 861 1485 882 q 1470 823 1485 846 q 1446 800 1456 800 q 1423 817 1436 800 q 1390 837 1410 835 q 1276 839 1371 839 l 1211 838 q 1040 840 1204 838 q 965 460 993 679 q 1363 464 1279 460 q 1371 455 1371 464 q 1357 433 1371 446 q 1318 417 1343 421 l 960 417 q 943 172 943 257 q 950 43 943 88 l 1311 42 q 1471 64 1400 42 l 1472 64 q 1478 49 1478 64 q 1467 17 1478 33 q 1436 0 1456 0 l 1243 -1 q 826 6 826 -1 q 846 31 826 15 q 882 50 865 47 l 881 71 q 883 135 881 88 q 699 17 804 58 q 483 -25 593 -25 q 188 79 289 -25 q 86 344 86 183 q 133 567 86 457 q 271 763 179 678 q 175 717 179 717 q 163 730 163 717 q 219 771 163 743 q 324 817 275 799 q 488 933 396 888 q 674 979 579 979 q 769 926 769 979 q 738 853 769 896 q 947 746 865 835 q 967 847 956 804 l 893 847 q 863 858 863 849 q 881 873 863 865 q 921 881 899 881 l 975 881 q 1003 944 983 926 q 1051 961 1022 961 q 1081 948 1081 961 q 1054 882 1081 935 l 1136 881 l 1226 881 m 351 790 q 201 601 250 714 q 153 364 153 488 q 239 110 153 211 q 493 8 325 8 q 713 66 596 8 q 888 206 829 124 q 936 674 906 456 q 848 776 903 736 q 724 825 793 815 q 692 800 703 800 q 682 806 682 800 q 694 828 682 817 q 638 829 675 829 q 351 790 494 829 m 714 857 q 726 904 726 886 q 667 938 726 938 q 528 908 607 938 q 396 838 449 879 q 572 863 478 863 q 714 857 665 863 z "},"":{"ha":638,"x_min":28,"x_max":607,"o":"m 422 264 l 372 265 q 326 88 326 149 q 368 26 326 26 q 504 136 417 26 q 539 174 533 174 q 549 163 549 174 q 472 55 549 124 q 358 -14 396 -14 q 292 5 319 -14 q 261 68 264 24 q 110 -26 185 -26 q 50 3 72 -26 q 28 74 28 32 q 35 153 28 115 q 60 247 42 190 q 107 371 78 304 q 178 484 136 438 q 264 531 221 531 l 274 531 q 292 560 274 560 q 333 510 311 560 q 364 404 356 460 q 430 493 392 469 q 533 517 468 517 q 599 432 581 517 q 607 360 607 389 q 586 310 607 332 q 532 281 565 289 q 422 264 474 264 m 324 378 q 293 427 311 385 q 268 469 275 469 q 168 342 225 469 q 101 163 111 215 q 92 83 92 110 q 131 15 92 15 q 255 128 186 15 q 324 378 324 242 m 385 304 l 440 301 q 522 314 497 301 q 548 363 547 326 q 542 425 549 400 q 507 469 529 469 q 441 410 479 469 q 385 304 403 350 z "},"":{"ha":731,"x_min":51,"x_max":706,"o":"m 181 658 q 240 535 189 582 q 356 465 290 489 q 486 417 421 440 q 638 275 638 364 q 506 67 638 163 q 213 -28 374 -28 q 51 71 51 -28 l 51 81 q 89 131 51 131 q 98 123 96 131 q 103 101 100 115 q 114 75 107 86 q 167 28 133 40 q 260 17 201 17 q 464 79 365 17 q 563 232 563 142 q 407 375 563 318 q 277 427 342 400 q 167 503 213 454 q 122 619 122 551 q 251 831 122 739 q 542 924 379 924 q 682 785 682 924 q 671 743 682 768 q 643 718 660 718 q 633 736 633 718 l 633 765 q 499 872 633 872 q 371 849 442 872 q 240 774 300 826 q 181 658 181 722 m 424 1142 q 424 1147 424 1142 q 431 1151 424 1151 q 485 1101 439 1151 q 544 1031 531 1051 q 632 1101 565 1050 q 702 1153 699 1153 q 706 1148 706 1153 q 696 1131 706 1143 q 613 1051 686 1119 q 526 979 539 982 q 479 1044 519 982 q 424 1142 424 1132 z "},"":{"ha":326,"x_min":19,"x_max":513,"o":"m 399 476 q 363 397 396 449 q 311 346 329 346 q 306 356 306 346 q 321 405 306 367 q 336 454 336 443 q 311 475 336 475 q 265 468 307 475 q 174 424 231 460 q 118 344 118 388 q 125 317 118 329 q 188 256 143 281 q 266 208 233 231 q 299 150 299 186 q 205 33 299 89 q 44 -24 111 -24 q 26 -15 33 -24 q 19 4 19 -6 q 35 21 19 21 q 163 49 81 21 q 246 111 246 78 q 147 206 246 146 q 78 259 110 228 q 47 317 47 290 q 62 361 47 343 q 90 394 76 379 q 117 419 104 408 q 145 442 129 431 q 174 461 161 453 q 203 478 186 469 l 229 492 q 271 510 258 506 q 297 519 283 514 q 349 532 329 532 q 399 476 399 532 m 231 756 q 231 760 231 756 q 238 765 231 765 q 292 715 246 765 q 351 644 338 665 q 439 715 372 664 q 509 767 506 767 q 513 762 513 767 q 503 745 513 757 q 419 665 493 733 q 333 593 346 596 q 286 658 326 596 q 231 756 231 746 z "},"":{"ha":722,"x_min":42,"x_max":706,"o":"m 132 96 q 201 363 201 246 q 200 383 201 378 q 51 811 132 561 q 42 865 42 839 q 104 908 42 908 q 142 903 121 908 q 163 889 163 897 q 156 876 163 881 q 147 869 150 872 q 129 831 129 865 q 257 429 129 736 q 502 676 397 549 q 622 865 607 804 q 674 926 636 926 q 706 894 706 926 q 560 685 706 863 q 274 394 474 581 q 245 279 260 356 q 228 159 231 203 q 221 92 225 115 q 206 44 217 69 q 117 0 185 0 q 93 13 93 0 q 132 96 93 25 m 533 1153 q 525 1108 533 1139 q 517 1076 517 1078 q 479 1047 517 1057 q 454 1078 454 1047 q 478 1133 454 1110 q 525 1157 501 1157 q 533 1153 531 1157 m 356 1153 q 347 1108 356 1139 q 339 1076 339 1078 q 301 1047 339 1057 q 278 1078 278 1047 q 301 1133 278 1110 q 349 1157 325 1157 q 356 1153 353 1157 z "},"":{"ha":832,"x_min":32,"x_max":790,"o":"m 675 -54 q 668 -44 668 -54 l 668 -40 q 693 13 693 -11 q 592 61 693 61 q 417 51 494 61 q 265 29 340 40 q 161 15 189 18 q 108 6 133 11 q 49 -7 54 -7 q 32 35 32 4 q 38 83 32 65 q 149 244 43 125 q 379 482 256 363 q 605 713 503 601 q 707 853 707 824 q 638 869 707 864 q 497 875 568 875 q 337 865 425 875 q 226 836 249 856 q 238 813 239 828 q 228 799 238 799 q 196 822 219 799 q 172 863 172 846 q 319 913 172 904 q 560 918 424 918 q 753 913 696 918 q 780 891 769 908 q 790 854 790 874 q 767 800 790 835 q 692 708 744 765 q 414 424 624 633 q 144 143 204 214 q 74 40 83 72 q 140 54 75 40 q 269 81 206 68 q 552 114 451 114 q 697 103 653 114 q 740 58 740 92 q 715 -15 740 24 q 675 -54 690 -54 m 413 1126 q 413 1131 413 1126 q 420 1136 413 1136 q 474 1086 428 1136 q 533 1015 519 1036 q 621 1086 554 1035 q 691 1138 688 1138 q 694 1133 694 1138 q 685 1116 694 1128 q 601 1035 675 1104 q 515 964 528 967 q 468 1031 508 967 q 413 1126 413 1117 z "},"":{"ha":421,"x_min":-15,"x_max":507,"o":"m 347 519 q 464 493 464 519 q 448 446 464 463 q 422 426 432 429 q 411 422 411 424 q 227 249 342 365 q 68 67 113 133 q 65 58 65 64 q 181 36 65 36 q 375 56 297 36 q 401 60 389 60 q 413 46 413 60 q 396 9 413 32 q 360 -14 379 -14 q 342 0 342 -14 q 207 7 258 7 q 92 2 156 7 q 19 -3 29 -3 q -15 32 -15 -3 q 11 90 -15 67 q 375 471 253 324 l 300 471 q 174 451 192 471 q 161 436 172 450 q 126 399 131 399 q 114 408 114 399 q 145 492 114 467 q 256 518 176 518 l 347 519 m 225 786 q 225 791 225 786 q 233 796 225 796 q 286 746 240 796 q 346 675 332 696 q 433 746 367 694 q 503 797 500 797 q 507 792 507 797 q 497 776 507 788 q 414 695 488 764 q 328 624 340 626 q 281 689 321 626 q 225 786 225 776 z "},"":{"ha":292,"x_min":-572,"x_max":508,"o":"m 235 419 q 296 400 296 421 q 275 392 296 392 l 185 392 q 88 58 106 111 q -417 -556 -114 -556 q -528 -522 -485 -556 q -572 -431 -572 -487 q -556 -343 -572 -374 q -521 -312 -539 -312 l -519 -314 l -519 -315 q -543 -401 -543 -353 q -502 -482 -543 -449 q -408 -515 -461 -515 q -305 -490 -356 -515 q -210 -416 -254 -465 q -129 -312 -167 -367 q -58 -182 -92 -258 q 1 -45 -24 -106 q 51 96 26 15 q 89 219 76 176 q 136 392 111 290 l 58 392 q 51 406 51 392 q 60 421 51 421 l 104 421 q 146 419 129 421 q 161 483 147 422 q 196 606 175 544 q 248 735 217 667 q 327 847 279 804 q 421 890 375 890 q 508 804 508 890 q 497 735 508 778 q 468 692 485 692 q 461 698 461 692 q 472 741 461 704 q 483 789 483 778 q 424 850 483 850 q 344 801 382 850 q 282 698 300 744 q 253 622 264 651 q 230 555 242 593 q 213 497 218 517 q 192 419 192 421 q 235 419 217 418 z "},"":{"ha":514,"x_min":156,"x_max":436,"o":"m 335 865 q 382 799 342 863 q 429 723 422 736 q 436 701 436 710 q 430 692 436 692 q 377 742 424 692 q 317 814 331 793 q 228 742 293 793 q 159 692 163 692 q 156 697 156 692 q 165 713 156 701 q 249 794 175 725 q 335 865 322 863 z "},"":{"ha":514,"x_min":138,"x_max":419,"o":"m 138 644 q 138 649 138 644 q 145 654 138 654 q 199 604 153 654 q 258 533 244 554 q 346 604 279 553 q 416 656 413 656 q 419 651 419 656 q 410 634 419 646 q 326 553 400 622 q 240 482 253 485 q 193 547 233 485 q 138 644 138 635 z "},"":{"ha":256,"x_min":64,"x_max":322,"o":"m 318 640 q 322 636 322 640 q 319 626 322 632 q 257 542 296 576 q 174 508 218 508 q 97 535 131 508 q 64 604 64 563 q 71 618 64 618 q 85 606 78 618 q 101 578 93 593 q 131 551 110 564 q 182 539 153 539 q 303 628 251 539 q 318 640 308 640 z "},"":{"ha":240,"x_min":76,"x_max":188,"o":"m 182 793 q 188 790 185 793 q 183 784 188 789 q 173 774 178 779 q 165 764 168 768 q 152 734 161 760 q 133 691 143 708 q 109 674 122 674 q 86 688 96 674 q 76 719 76 703 q 118 764 76 735 q 182 793 160 793 z "},"":{"ha":318,"x_min":60,"x_max":244,"o":"m 244 732 q 206 642 244 682 q 117 601 167 601 q 76 615 92 601 q 60 654 60 629 q 101 753 60 707 q 185 800 142 800 q 228 780 211 800 q 244 732 244 760 m 132 628 q 192 660 167 628 q 217 735 217 692 q 181 779 217 779 q 123 744 154 779 q 92 669 92 710 q 132 628 92 628 z "},"":{"ha":325,"x_min":53,"x_max":279,"o":"m 279 -153 q 217 -191 279 -171 q 126 -211 156 -211 q 75 -197 97 -211 q 53 -150 53 -183 q 81 -53 53 -117 q 140 11 110 10 l 144 7 q 97 -115 97 -60 q 115 -158 97 -143 q 158 -172 132 -172 q 223 -156 183 -172 q 264 -140 263 -140 q 279 -153 279 -140 z "},"":{"ha":378,"x_min":246,"x_max":554,"o":"m 554 751 q 515 703 554 725 q 456 682 476 682 q 392 701 436 682 q 324 719 347 719 q 277 701 300 719 q 250 683 254 683 q 246 690 246 683 q 269 716 246 696 q 310 747 292 736 q 353 757 328 757 q 422 742 379 757 q 493 728 465 728 q 546 757 521 728 q 554 751 554 757 z "},"":{"ha":986,"x_min":371,"x_max":686,"o":"m 481 986 q 506 976 494 986 q 518 955 518 965 q 453 834 518 944 q 378 724 388 724 q 371 737 371 724 q 374 756 371 750 q 386 792 376 763 q 407 851 396 821 q 432 914 418 881 q 481 986 463 986 m 683 943 q 546 724 560 724 q 539 737 539 724 q 542 756 539 750 q 555 792 544 763 q 576 851 565 822 q 600 914 588 881 q 649 986 631 986 q 674 976 663 986 q 686 957 686 965 q 683 943 686 949 z "},"":{"ha":469,"x_min":14,"x_max":461,"o":"m 269 17 l 250 14 q 214 63 214 14 q 283 333 214 175 l 189 353 q 168 253 183 306 q 56 -14 93 -14 q 47 -11 47 -14 q 133 243 114 129 l 153 353 l 150 353 q 22 297 78 353 l 17 297 q 14 303 14 297 q 28 325 21 319 q 172 397 104 397 q 265 381 190 397 q 368 364 339 364 q 458 408 397 364 q 461 403 461 408 q 410 351 461 375 q 325 328 360 328 l 281 214 q 246 78 246 124 q 269 33 246 33 q 283 35 274 35 q 292 29 292 35 q 272 15 281 15 l 269 17 z "},"":{"ha":551,"x_min":35,"x_max":613,"o":"m 164 233 q 613 204 613 233 q 561 192 613 192 l 51 192 q 35 207 35 192 q 40 225 35 217 q 54 233 46 233 l 164 233 z "},"":{"ha":842,"x_min":35,"x_max":818,"o":"m 811 211 q 818 204 818 207 q 767 192 818 192 l 51 192 q 35 207 35 192 q 40 225 35 217 q 54 233 46 233 l 164 233 q 811 211 769 233 z "},"":{"ha":307,"x_min":58,"x_max":294,"o":"m 294 890 l 293 890 q 199 780 247 844 q 151 683 151 715 q 161 661 151 676 q 171 626 171 646 q 150 592 171 606 q 94 558 117 558 q 58 617 58 558 q 65 637 58 626 q 72 651 71 647 q 178 826 104 756 q 288 897 253 897 q 294 890 294 897 z "},"":{"ha":290,"x_min":190,"x_max":424,"o":"m 414 783 q 424 740 424 753 q 417 717 424 728 q 410 703 411 707 l 411 701 q 303 528 378 599 q 196 457 229 457 q 190 463 190 457 l 190 465 q 283 575 236 511 q 331 671 331 639 q 321 690 331 681 q 311 722 311 700 q 333 763 311 744 l 336 764 q 390 794 371 794 q 414 783 408 794 z "},"":{"ha":354,"x_min":94,"x_max":326,"o":"m 318 321 q 326 280 326 296 q 324 256 326 264 q 317 240 321 247 q 311 228 313 232 q 205 65 279 136 q 100 -6 131 -6 q 94 0 94 -6 l 94 3 q 188 113 140 49 q 235 208 235 176 q 225 228 235 218 q 215 259 215 238 q 243 306 215 281 q 290 331 271 331 q 318 321 310 331 z "},"":{"ha":382,"x_min":58,"x_max":476,"o":"m 294 890 l 293 890 q 199 780 247 844 q 151 683 151 715 q 161 661 151 676 q 171 626 171 646 q 150 592 171 606 q 94 558 117 558 q 58 617 58 558 q 65 637 58 626 q 72 651 71 647 q 178 826 104 756 q 288 897 253 897 q 294 890 294 897 m 476 901 q 383 791 431 856 q 335 694 335 726 q 344 672 335 688 q 354 636 354 657 q 331 601 354 614 l 331 603 q 275 571 296 571 q 242 629 242 571 q 248 649 242 639 q 256 663 254 658 q 363 837 289 765 q 469 908 436 908 q 476 903 476 908 l 476 901 z "},"":{"ha":564,"x_min":124,"x_max":539,"o":"m 349 876 q 358 833 358 846 q 352 810 358 821 q 344 796 346 800 l 346 794 q 238 621 313 692 q 131 550 164 550 q 124 557 124 550 l 125 557 q 218 667 171 603 q 265 763 265 731 q 256 783 265 774 q 246 815 246 793 q 268 856 246 838 l 269 857 l 269 856 q 324 888 304 888 q 349 876 343 888 m 529 888 q 539 844 539 857 q 533 822 539 832 q 526 807 528 813 l 526 806 q 419 632 493 703 q 311 561 344 561 q 306 567 306 561 l 306 568 q 399 678 351 614 q 446 774 446 742 q 440 790 446 785 l 440 792 q 428 827 428 804 q 449 867 428 850 l 451 868 q 505 899 486 899 q 529 888 524 899 z "},"":{"ha":621,"x_min":94,"x_max":558,"o":"m 550 321 q 558 280 558 296 q 556 256 558 264 q 549 240 553 247 q 543 228 544 232 q 437 65 511 136 q 332 -6 363 -6 q 326 0 326 -6 l 326 3 q 419 113 372 49 q 467 208 467 176 q 457 228 467 218 q 447 259 447 238 q 475 306 447 281 q 522 331 503 331 q 550 321 542 331 m 318 321 q 326 280 326 296 q 324 256 326 264 q 317 240 321 247 q 311 228 313 232 q 205 65 279 136 q 100 -6 131 -6 q 94 0 94 -6 l 94 3 q 188 113 140 49 q 235 208 235 176 q 225 228 235 218 q 215 259 215 238 q 243 306 215 281 q 290 331 271 331 q 318 321 310 331 z "},"":{"ha":538,"x_min":39,"x_max":528,"o":"m 144 554 l 86 550 q 59 562 76 550 q 39 582 42 574 q 257 594 47 590 q 263 844 263 706 q 281 862 263 851 q 307 874 299 872 l 310 872 l 310 846 q 296 594 310 761 q 528 574 528 586 q 293 561 528 567 q 219 15 246 15 q 214 21 214 15 q 218 76 214 26 l 228 204 q 242 381 232 263 q 256 560 251 499 l 144 554 z "},"":{"ha":619,"x_min":39,"x_max":528,"o":"m 144 554 l 86 550 q 59 562 76 550 q 39 582 42 574 q 257 594 47 590 q 263 844 263 706 q 281 862 263 851 q 307 874 299 872 l 310 872 l 310 846 q 296 594 310 761 q 528 574 528 586 q 293 561 528 567 q 279 421 285 467 q 528 400 528 414 q 410 390 528 392 q 276 388 293 389 q 219 15 240 15 q 214 21 214 15 q 218 76 214 26 l 228 204 q 243 386 232 264 l 144 381 l 86 376 q 59 388 76 376 q 39 408 42 400 q 244 419 46 415 l 256 560 l 144 554 z "},"":{"ha":746,"x_min":75,"x_max":676,"o":"m 376 629 q 438 629 376 629 q 588 541 500 629 q 676 328 676 453 q 588 116 676 204 q 376 28 500 28 q 163 116 251 28 q 75 328 75 204 q 163 541 75 453 q 376 629 251 629 z "},"":{"ha":951,"x_min":157,"x_max":822,"o":"m 246 104 q 239 69 244 97 q 228 22 233 40 q 181 -18 217 -18 q 157 36 157 -18 q 190 83 157 60 q 233 107 222 107 q 246 104 243 107 m 822 101 q 791 -7 803 7 q 757 -21 779 -21 q 735 33 735 -21 q 767 81 735 57 q 811 104 800 104 q 822 101 822 104 m 535 104 q 528 69 533 97 q 517 22 522 40 q 469 -18 506 -18 q 446 36 446 -18 q 478 83 446 60 q 522 107 511 107 q 535 104 532 107 z "},"":{"ha":1092,"x_min":113,"x_max":1036,"o":"m 431 704 q 432 697 432 699 q 344 545 432 649 q 193 442 256 442 l 175 442 q 128 470 144 442 q 113 524 113 499 q 216 722 113 594 q 381 850 319 850 q 443 785 443 850 q 438 744 443 772 q 468 742 440 742 q 572 765 496 742 q 707 812 649 789 q 773 835 765 835 q 788 827 781 835 q 796 810 796 819 q 785 790 796 801 q 386 281 603 579 q 169 -85 169 -18 q 177 -108 169 -99 q 185 -118 185 -117 q 174 -131 185 -125 q 157 -136 163 -136 q 136 -95 136 -136 q 165 21 136 -54 q 395 374 193 96 q 715 785 597 651 q 569 731 657 757 q 431 704 482 706 m 667 167 q 668 160 668 161 q 580 7 668 111 q 429 -97 492 -97 l 411 -97 q 365 -69 381 -97 q 349 -15 349 -40 q 452 183 349 56 q 617 311 556 311 q 679 247 679 311 q 674 206 679 233 q 684 201 675 203 q 693 192 693 200 q 667 167 693 176 m 403 701 q 356 756 382 714 q 242 661 315 756 q 168 522 168 567 q 196 476 168 476 q 324 568 246 476 q 403 701 403 660 m 639 163 q 592 217 621 172 q 478 122 551 217 q 404 -17 404 28 q 432 -61 404 -61 q 560 31 482 -61 q 639 163 639 122 m 1010 167 q 1011 160 1011 161 q 923 7 1011 111 q 772 -97 835 -97 l 754 -97 q 708 -69 724 -97 q 692 -15 692 -40 q 795 183 692 56 q 960 311 899 311 q 1022 247 1022 311 q 1017 206 1022 233 q 1027 201 1018 203 q 1036 192 1036 200 q 1010 167 1036 176 m 982 163 q 935 217 961 175 q 821 122 894 217 q 747 -17 747 28 q 775 -61 747 -61 q 903 31 825 -61 q 982 163 982 122 z "},"":{"ha":450,"x_min":19,"x_max":418,"o":"m 399 621 q 79 374 139 433 q 191 199 110 315 q 272 76 272 82 q 263 15 272 33 q 251 -4 254 -3 q 190 101 256 1 q 111 222 125 200 q 74 277 97 243 q 38 331 51 311 q 19 360 24 351 q 31 400 21 396 q 410 707 351 651 q 415 708 411 708 q 418 693 418 708 q 411 652 418 678 q 399 621 404 626 z "},"":{"ha":515,"x_min":89,"x_max":488,"o":"m 108 75 q 428 322 368 263 q 354 439 404 368 q 233 618 233 613 q 242 678 233 657 q 253 700 250 699 q 351 539 249 693 q 469 364 454 385 q 488 336 483 343 q 476 296 486 300 q 97 -11 156 44 q 92 -14 94 -14 q 89 1 89 -14 q 96 43 89 17 q 108 75 103 69 z "},"":{"ha":279,"x_min":-8,"x_max":547,"o":"m 25 158 q 38 140 25 151 q 15 131 38 131 q -8 151 -8 131 q 121 326 -8 200 q 381 556 250 453 q 523 660 511 660 q 543 656 535 660 l 547 647 q 539 636 547 642 q 206 359 388 522 q 25 158 25 196 z "},"":{"ha":950,"x_min":17,"x_max":900,"o":"m 247 340 l 456 336 q 588 319 558 336 q 594 313 594 315 q 543 300 594 300 l 250 300 q 341 90 265 169 q 550 10 417 10 q 681 29 619 10 q 782 79 742 49 q 886 183 854 133 q 894 190 889 190 q 899 176 899 190 q 861 81 899 122 q 767 19 824 40 q 557 -22 657 -22 q 297 63 393 -22 q 182 300 201 147 l 33 300 q 17 315 17 300 q 22 332 17 324 q 35 340 28 340 l 56 340 l 146 342 l 178 342 l 178 378 q 192 517 178 451 l 92 517 q 75 532 75 517 q 81 549 75 540 q 93 557 86 557 l 114 557 q 203 558 114 557 q 363 815 247 717 q 646 914 479 914 q 900 803 900 914 q 894 768 900 768 l 892 771 q 855 814 878 793 q 776 857 832 835 q 649 879 719 879 q 414 790 513 879 q 274 558 315 700 q 610 547 568 554 q 653 529 651 540 q 601 517 653 517 l 263 517 q 247 363 247 446 l 247 340 z "},"":{"ha":911,"x_min":38,"x_max":881,"o":"m 881 829 q 872 779 881 815 q 863 731 864 743 q 858 661 861 718 q 843 496 851 510 q 794 472 829 472 q 779 485 779 472 q 785 515 779 493 q 805 616 792 538 q 825 725 818 694 q 613 538 681 538 q 489 725 540 538 q 458 624 476 697 q 419 503 439 550 q 368 456 399 456 q 353 463 353 456 q 378 535 353 471 q 433 673 404 600 q 467 758 463 746 q 472 803 471 769 q 508 879 475 879 q 532 801 522 879 q 563 644 542 722 q 626 567 583 567 q 713 642 657 567 q 813 792 768 717 q 864 867 858 867 q 881 829 881 867 m 172 840 l 72 833 q 38 851 43 833 q 205 881 49 869 q 438 893 361 893 q 468 882 468 893 q 420 861 468 868 q 320 847 372 854 q 260 825 268 840 q 206 678 235 778 q 152 513 176 578 q 99 447 128 447 q 74 465 74 447 q 132 624 74 488 l 194 769 q 211 828 211 819 q 172 840 211 840 z "},"":{"ha":942,"x_min":32,"x_max":883,"o":"m 300 -1 l 79 0 q 32 13 32 0 q 40 36 32 25 q 71 49 47 47 q 178 51 94 51 q 283 53 263 51 q 194 313 194 146 q 256 566 194 444 q 424 764 317 688 q 647 840 531 840 q 817 774 764 840 q 869 596 869 707 q 788 283 869 433 q 585 50 706 132 l 860 53 q 883 40 883 53 q 873 17 883 32 q 845 1 863 1 q 564 0 828 0 q 510 11 510 0 q 536 54 514 43 q 726 278 644 106 q 807 599 807 450 q 653 807 807 807 q 522 769 588 807 q 406 671 457 732 q 317 531 354 610 q 254 282 254 401 q 318 64 254 151 q 339 39 339 46 q 331 8 339 17 q 300 -1 322 -1 z "},"":{"ha":414,"x_min":29,"x_max":374,"o":"m 151 886 q 374 438 374 886 q 291 130 374 278 q 104 -18 208 -18 q 29 90 29 -18 q 111 378 29 206 q 187 488 142 443 q 281 532 232 532 q 311 528 297 532 q 287 642 308 574 q 222 772 265 711 q 131 833 178 833 q 89 816 113 833 q 60 777 65 799 q 44 756 56 756 q 39 771 39 756 q 67 855 39 824 q 151 886 96 886 m 129 15 q 226 86 171 15 q 303 242 281 157 q 325 390 325 328 q 275 486 325 486 q 171 354 229 486 q 90 82 90 172 q 129 15 90 15 z "},"":{"ha":628,"x_min":35,"x_max":594,"o":"m 594 -3 q 294 0 464 0 q 35 -3 124 0 q 229 328 115 143 l 419 638 q 428 653 421 640 q 444 681 436 667 q 461 710 451 694 q 490 743 481 743 q 496 733 496 743 q 534 356 506 575 q 594 -3 563 136 m 319 42 l 533 46 q 494 398 525 136 q 458 660 463 660 q 450 653 453 660 q 97 51 121 122 q 319 42 97 42 z "},"":{"ha":650,"x_min":14,"x_max":629,"o":"m 628 519 q 561 452 628 482 q 442 422 494 422 l 381 267 q 333 87 333 146 q 367 28 333 28 q 384 29 371 29 q 397 23 397 29 q 388 13 397 17 q 365 5 378 8 q 347 0 351 1 q 292 68 292 0 q 294 103 292 78 q 383 425 326 304 q 331 438 365 431 l 256 453 q 185 192 235 328 q 86 -31 136 56 q 72 -36 76 -36 l 61 -33 q 151 188 128 104 q 206 453 175 271 l 200 453 q 78 414 139 453 q 18 378 22 378 q 14 386 14 378 q 36 414 18 406 q 242 511 138 511 q 358 490 267 511 q 478 468 450 468 q 625 528 538 468 q 629 524 629 528 q 628 519 629 521 z "},"":{"ha":550,"x_min":28,"x_max":514,"o":"m 514 0 l 28 0 l 322 297 l 72 600 l 514 600 l 489 569 l 181 569 l 389 314 l 108 42 l 478 42 l 514 0 z "},"":{"ha":640,"x_min":21,"x_max":646,"o":"m 646 921 l 644 915 q 482 632 556 788 q 311 1 339 333 q 298 -10 308 -10 q 270 5 288 -10 q 251 29 253 19 q 193 244 236 132 q 117 357 150 357 q 74 303 100 357 q 40 222 47 250 q 31 194 33 194 q 21 210 21 194 q 31 257 21 226 q 65 332 42 288 q 126 411 100 399 q 140 414 135 414 q 228 311 185 414 q 293 86 271 208 q 403 546 308 243 q 594 943 497 849 q 613 950 601 950 q 635 941 625 950 q 646 921 646 932 z "},"":{"ha":831,"x_min":25,"x_max":783,"o":"m 408 374 q 169 214 326 214 q 63 265 101 214 q 25 396 25 317 q 83 540 25 475 q 214 604 140 604 q 325 548 267 604 q 392 469 383 492 q 460 556 411 518 q 578 593 510 593 q 735 543 686 593 q 783 406 783 493 q 733 268 783 319 q 621 217 682 217 q 510 255 560 217 q 435 328 460 293 q 408 374 411 363 m 68 393 q 68 365 68 393 q 99 304 68 336 q 184 272 129 272 q 292 319 239 272 q 369 428 346 365 q 204 539 293 539 q 109 494 150 539 q 68 393 68 450 m 722 396 q 722 428 722 396 q 684 494 722 460 q 592 529 646 529 q 494 496 539 529 q 431 408 450 463 q 531 290 493 319 q 613 260 568 260 q 690 296 657 260 q 722 396 722 332 z "},"":{"ha":383,"x_min":-476,"x_max":450,"o":"m 444 689 l 440 672 q 428 658 436 658 q 419 669 419 658 q 426 694 419 679 q 433 719 433 710 q 382 772 433 772 q 217 550 297 772 q 144 332 182 451 q 58 93 106 213 q -44 -125 11 -26 q -178 -285 -100 -224 q -350 -347 -257 -347 q -440 -322 -404 -347 q -476 -257 -476 -297 q -461 -181 -476 -217 l -446 -164 q -432 -157 -442 -157 l -431 -158 q -453 -232 -453 -192 q -418 -299 -453 -272 q -328 -326 -383 -326 q -229 -290 -274 -326 q -67 -86 -140 -217 q 46 167 6 44 q 238 678 176 558 q 392 799 299 799 q 450 732 450 799 q 444 689 450 719 z "},"":{"ha":556,"x_min":32,"x_max":531,"o":"m 39 215 q 84 262 58 246 q 149 278 110 278 q 237 271 189 278 q 331 256 285 264 q 416 242 399 242 q 456 263 433 242 q 481 283 479 283 q 483 278 483 283 q 481 268 483 274 q 371 199 449 199 q 238 215 331 199 q 122 232 146 232 q 78 219 97 232 q 47 192 58 206 q 38 178 35 178 q 32 192 32 178 q 39 215 32 206 m 86 354 q 131 401 106 385 q 197 417 157 417 q 284 410 236 417 q 378 394 332 403 q 463 381 446 381 q 503 401 481 381 q 528 422 526 422 q 531 417 531 422 q 528 407 531 413 q 418 338 496 338 q 285 354 378 338 q 169 371 193 371 q 125 358 144 371 q 94 331 106 344 q 85 317 82 317 q 79 331 79 317 q 86 354 79 344 z "},"":{"ha":554,"x_min":90,"x_max":531,"o":"m 189 281 l 175 279 q 154 297 154 279 q 169 324 154 310 q 194 343 183 339 l 197 346 q 224 350 214 350 q 233 344 233 350 q 225 329 233 338 q 314 326 256 329 q 444 495 385 424 q 511 567 503 567 q 526 560 519 567 l 531 551 q 453 447 531 538 q 353 326 375 356 q 403 329 367 326 l 457 328 q 482 318 482 324 q 322 285 482 299 q 269 215 293 250 q 339 214 293 214 l 414 215 q 475 205 475 215 q 392 182 475 194 q 233 167 310 169 q 111 -47 111 -7 q 117 -64 111 -58 q 122 -72 122 -69 q 115 -78 122 -75 q 104 -82 108 -82 q 90 -60 90 -82 q 109 27 90 -10 q 199 167 128 64 l 182 167 l 171 165 q 147 185 147 165 q 162 211 147 197 q 188 229 176 225 l 190 232 q 217 238 207 238 q 228 231 228 238 q 219 217 228 225 l 233 217 l 281 282 q 219 279 239 279 q 189 281 199 279 z "},"":{"ha":442,"x_min":31,"x_max":360,"o":"m 122 347 q 118 360 118 351 q 151 418 118 368 q 231 529 185 468 q 283 602 276 590 q 304 614 290 614 q 318 606 318 614 q 263 513 318 597 q 181 393 207 429 q 202 367 183 389 q 238 323 221 344 q 272 276 254 301 q 315 204 315 219 q 301 189 315 189 l 290 194 q 122 347 239 264 m 78 96 l 236 93 q 307 96 290 93 l 307 97 l 318 97 q 341 94 322 97 q 360 90 360 92 q 256 66 360 81 q 107 51 151 51 q 54 53 63 51 l 44 51 q 31 71 31 51 q 46 102 31 90 q 72 114 61 114 q 82 107 82 114 q 78 96 82 104 z "},"":{"ha":442,"x_min":31,"x_max":360,"o":"m 314 446 q 318 435 318 444 q 284 375 318 425 q 204 264 250 325 q 151 191 158 203 q 131 179 143 179 q 118 188 118 179 q 174 280 118 196 q 256 400 229 364 q 119 583 119 561 q 135 604 119 604 l 146 599 q 314 446 193 535 m 78 96 l 236 93 q 307 96 290 93 l 307 97 l 318 97 q 341 94 322 97 q 360 90 360 92 q 256 66 360 81 q 107 51 151 51 q 54 53 63 51 l 44 51 q 31 71 31 51 q 46 102 31 90 q 72 114 61 114 q 82 107 82 114 q 78 96 82 104 z "},"":{"ha":553,"x_min":129,"x_max":478,"o":"m 225 25 q 222 42 225 33 l 204 104 q 196 133 200 115 q 168 243 188 167 l 133 381 q 129 392 129 386 q 251 607 131 421 q 269 635 256 613 q 297 677 283 657 q 325 719 310 697 q 369 769 360 769 q 415 640 379 769 q 478 397 451 510 l 478 381 q 465 351 475 369 l 436 297 q 306 92 426 278 l 297 78 q 240 8 256 8 q 225 25 225 8 m 431 358 q 399 501 414 421 l 358 703 l 285 583 q 181 417 222 486 l 211 275 q 250 72 228 200 q 336 207 274 106 q 431 358 399 308 z "},"":{"ha":772,"x_min":67,"x_max":715,"o":"m 260 758 q 319 741 268 758 q 390 724 369 724 q 431 729 410 724 q 478 744 451 735 q 550 760 525 760 q 694 678 643 760 q 608 524 608 631 q 638 425 608 468 q 715 363 667 382 q 633 219 689 283 q 535 156 576 156 q 461 173 494 156 q 400 190 428 190 q 340 173 372 190 q 269 156 308 156 q 135 271 203 156 q 67 508 67 386 q 89 632 67 579 q 144 710 111 685 q 260 758 210 758 m 406 747 q 403 767 403 756 q 449 883 403 825 q 543 942 494 942 q 554 917 554 942 q 515 805 554 863 q 406 747 476 747 z "},"":{"ha":558,"x_min":-250,"x_max":649,"o":"m 264 508 l 336 506 q 384 512 354 506 q 418 518 414 518 q 422 515 422 518 q 253 471 422 471 q 188 254 247 457 q 106 -22 129 51 q -8 -227 60 -167 q -143 -287 -75 -287 q -250 -176 -250 -287 q -238 -104 -250 -137 q -217 -71 -226 -71 q -210 -79 -211 -71 q -212 -118 -212 -107 q -187 -221 -212 -182 q -128 -260 -162 -260 q -58 -224 -93 -260 q 10 -104 -24 -189 q 108 188 44 -19 q 190 465 172 394 l 100 465 q 67 478 67 465 q 84 498 67 486 q 113 510 101 510 l 201 510 q 283 763 235 629 q 366 881 313 843 q 498 918 419 918 q 613 869 576 918 q 649 769 649 821 q 625 697 649 718 q 575 675 601 675 q 549 703 549 675 q 570 762 549 724 q 592 803 592 800 q 558 858 592 826 q 490 889 524 889 q 432 878 457 889 q 389 842 407 867 q 339 744 363 804 q 264 508 315 683 m 449 357 l 444 375 q 462 431 444 381 q 503 510 479 481 q 572 539 526 539 q 593 526 592 539 q 533 411 569 492 q 482 292 497 331 q 421 90 446 201 q 419 79 419 86 q 433 63 419 63 q 478 83 442 63 q 526 104 515 104 q 538 99 536 104 q 467 37 538 82 q 369 -8 396 -8 q 343 17 343 -8 q 353 59 343 29 q 380 135 364 89 q 404 206 396 181 q 422 257 413 231 q 435 297 431 283 q 442 322 439 310 q 449 357 449 347 z "},"":{"ha":592,"x_min":-250,"x_max":717,"o":"m 264 508 l 336 506 q 384 512 354 506 q 418 518 414 518 q 422 515 422 518 q 253 471 422 471 q 188 254 247 457 q 106 -22 129 51 q -8 -227 60 -167 q -143 -287 -75 -287 q -250 -176 -250 -287 q -238 -104 -250 -137 q -217 -71 -226 -71 q -210 -79 -211 -71 q -212 -118 -212 -107 q -187 -221 -212 -182 q -128 -260 -162 -260 q -58 -224 -93 -260 q 10 -104 -24 -189 q 108 188 44 -19 q 190 465 172 394 l 100 465 q 67 478 67 465 q 84 498 67 486 q 113 510 101 510 l 201 510 q 297 806 267 742 q 363 894 326 871 q 504 918 399 918 q 697 885 610 918 q 717 868 717 876 q 707 850 717 860 q 556 473 632 692 q 443 90 481 254 q 442 79 442 86 q 456 63 442 63 q 501 83 464 63 q 547 104 538 104 q 560 99 556 104 q 490 37 560 82 q 393 -8 421 -8 q 365 17 365 -8 q 371 46 365 31 q 622 838 510 433 q 561 874 606 858 q 455 889 517 889 q 363 811 393 889 q 264 508 299 647 z "},"":{"ha":278,"x_min":0,"x_max":0,"o":""}}}
